<?xml version="1.0" encoding="UTF-8" standalone="no"?><svg xmlns="http://www.w3.org/2000/svg" xmlns:xlink="http://www.w3.org/1999/xlink" contentStyleType="text/css" height="240px" preserveAspectRatio="none" style="width:1081px;height:240px;background:#FFFFFF;" version="1.1" viewBox="0 0 1081 240" width="1081px" zoomAndPan="magnify"><defs/><g><rect fill="#F1F1F1" height="64.8281" rx="5" ry="5" style="stroke:#F1F1F1;stroke-width:1.5;" width="136" x="10" y="58"/><text fill="#000000" font-family="sans-serif" font-size="14" font-weight="bold" lengthAdjust="spacing" textLength="104" x="15" y="74.5332">characteristics</text><text fill="#000000" font-family="sans-serif" font-size="14" lengthAdjust="spacing" textLength="12" x="129" y="74.5332">   </text><line style="stroke:#000000;stroke-width:1.0;" x1="124" x2="124" y1="58" y2="79.6094"/><line style="stroke:#000000;stroke-width:1.0;" x1="10" x2="146" y1="79.6094" y2="79.6094"/><text fill="#000000" font-family="sans-serif" font-size="14" font-weight="bold" lengthAdjust="spacing" textLength="43" x="15" y="96.1426">fluxes</text><text fill="#000000" font-family="sans-serif" font-size="14" lengthAdjust="spacing" textLength="12" x="129" y="96.1426">   </text><line style="stroke:#000000;stroke-width:1.0;" x1="124" x2="124" y1="79.6094" y2="101.2188"/><line style="stroke:#000000;stroke-width:1.0;" x1="10" x2="146" y1="101.2188" y2="101.2188"/><text fill="#000000" font-family="sans-serif" font-size="14" font-weight="bold" lengthAdjust="spacing" textLength="49" x="15" y="117.752">results</text><text fill="#000000" font-family="sans-serif" font-size="14" lengthAdjust="spacing" textLength="12" x="129" y="117.752">   </text><line style="stroke:#000000;stroke-width:1.0;" x1="124" x2="124" y1="101.2188" y2="122.8281"/><rect fill="none" height="64.8281" rx="5" ry="5" style="stroke:#000000;stroke-width:1.5;" width="136" x="10" y="58"/><rect fill="#F1F1F1" height="43.2188" rx="5" ry="5" style="stroke:#F1F1F1;stroke-width:1.5;" width="176" x="260" y="17"/><text fill="#000000" font-family="sans-serif" font-size="14" font-weight="bold" lengthAdjust="spacing" textLength="74" x="265" y="33.5332">conditions</text><text fill="#000000" font-family="sans-serif" font-size="14" lengthAdjust="spacing" textLength="62" x="369" y="33.5332">stationary</text><line style="stroke:#000000;stroke-width:1.0;" x1="364" x2="364" y1="17" y2="38.6094"/><line style="stroke:#000000;stroke-width:1.0;" x1="260" x2="436" y1="38.6094" y2="38.6094"/><text fill="#000000" font-family="sans-serif" font-size="14" font-weight="bold" lengthAdjust="spacing" textLength="94" x="265" y="55.1426">primeSurface</text><text fill="#000000" font-family="sans-serif" font-size="14" lengthAdjust="spacing" textLength="44" x="369" y="55.1426">interior</text><line style="stroke:#000000;stroke-width:1.0;" x1="364" x2="364" y1="38.6094" y2="60.2188"/><rect fill="none" height="43.2188" rx="5" ry="5" style="stroke:#000000;stroke-width:1.5;" width="176" x="260" y="17"/><rect fill="#F1F1F1" height="21.6094" rx="5" ry="5" style="stroke:#F1F1F1;stroke-width:1.5;" width="330" x="183" y="78.5"/><text fill="#000000" font-family="sans-serif" font-size="14" font-weight="bold" lengthAdjust="spacing" textLength="298" x="188" y="95.0332">conductionConvectionLongwaveRadiation</text><text fill="#000000" font-family="sans-serif" font-size="14" lengthAdjust="spacing" textLength="12" x="496" y="95.0332">   </text><line style="stroke:#000000;stroke-width:1.0;" x1="491" x2="491" y1="78.5" y2="100.1094"/><rect fill="none" height="21.6094" rx="5" ry="5" style="stroke:#000000;stroke-width:1.5;" width="330" x="183" y="78.5"/><rect fill="#F1F1F1" height="43.2188" rx="5" ry="5" style="stroke:#F1F1F1;stroke-width:1.5;" width="22" x="632.5" y="62"/><text fill="#000000" font-family="sans-serif" font-size="14" lengthAdjust="spacing" textLength="12" x="637.5" y="78.5332">   </text><line style="stroke:#000000;stroke-width:1.0;" x1="632.5" x2="654.5" y1="83.6094" y2="83.6094"/><text fill="#000000" font-family="sans-serif" font-size="14" lengthAdjust="spacing" textLength="12" x="637.5" y="100.1426">   </text><rect fill="none" height="43.2188" rx="5" ry="5" style="stroke:#000000;stroke-width:1.5;" width="22" x="632.5" y="62"/><rect fill="#F1F1F1" height="64.8281" rx="5" ry="5" style="stroke:#F1F1F1;stroke-width:1.5;" width="162" x="776" y="10"/><text fill="#000000" font-family="sans-serif" font-size="14" font-weight="bold" lengthAdjust="spacing" textLength="30" x="781" y="26.5332">side</text><text fill="#000000" font-family="sans-serif" font-size="14" lengthAdjust="spacing" textLength="47" x="886" y="26.5332">exterior</text><line style="stroke:#000000;stroke-width:1.0;" x1="881" x2="881" y1="10" y2="31.6094"/><line style="stroke:#000000;stroke-width:1.0;" x1="776" x2="938" y1="31.6094" y2="31.6094"/><text fill="#000000" font-family="sans-serif" font-size="14" font-weight="bold" lengthAdjust="spacing" textLength="26" x="781" y="48.1426">flux</text><text fill="#000000" font-family="sans-serif" font-size="14" lengthAdjust="spacing" textLength="8" x="886" y="48.1426">3</text><line style="stroke:#000000;stroke-width:1.0;" x1="881" x2="881" y1="31.6094" y2="53.2188"/><line style="stroke:#000000;stroke-width:1.0;" x1="776" x2="938" y1="53.2188" y2="53.2188"/><text fill="#000000" font-family="sans-serif" font-size="14" font-weight="bold" lengthAdjust="spacing" textLength="95" x="781" y="69.752">temperatures</text><text fill="#000000" font-family="sans-serif" font-size="14" lengthAdjust="spacing" textLength="12" x="886" y="69.752">   </text><line style="stroke:#000000;stroke-width:1.0;" x1="881" x2="881" y1="53.2188" y2="74.8281"/><rect fill="none" height="64.8281" rx="5" ry="5" style="stroke:#000000;stroke-width:1.5;" width="162" x="776" y="10"/><rect fill="#F1F1F1" height="21.6094" rx="5" ry="5" style="stroke:#F1F1F1;stroke-width:1.5;" width="94" x="975" y="53.5"/><text fill="#000000" font-family="sans-serif" font-size="14" font-weight="bold" lengthAdjust="spacing" textLength="50" x="980" y="70.0332">sample</text><text fill="#000000" font-family="sans-serif" font-size="14" lengthAdjust="spacing" textLength="24" x="1040" y="70.0332">308</text><line style="stroke:#000000;stroke-width:1.0;" x1="1035" x2="1035" y1="53.5" y2="75.1094"/><rect fill="none" height="21.6094" rx="5" ry="5" style="stroke:#000000;stroke-width:1.5;" width="94" x="975" y="53.5"/><rect fill="#F1F1F1" height="64.8281" rx="5" ry="5" style="stroke:#F1F1F1;stroke-width:1.5;" width="159" x="777.5" y="93"/><text fill="#000000" font-family="sans-serif" font-size="14" font-weight="bold" lengthAdjust="spacing" textLength="30" x="782.5" y="109.5332">side</text><text fill="#000000" font-family="sans-serif" font-size="14" lengthAdjust="spacing" textLength="44" x="887.5" y="109.5332">interior</text><line style="stroke:#000000;stroke-width:1.0;" x1="882.5" x2="882.5" y1="93" y2="114.6094"/><line style="stroke:#000000;stroke-width:1.0;" x1="777.5" x2="936.5" y1="114.6094" y2="114.6094"/><text fill="#000000" font-family="sans-serif" font-size="14" font-weight="bold" lengthAdjust="spacing" textLength="26" x="782.5" y="131.1426">flux</text><text fill="#000000" font-family="sans-serif" font-size="14" lengthAdjust="spacing" textLength="13" x="887.5" y="131.1426">-3</text><line style="stroke:#000000;stroke-width:1.0;" x1="882.5" x2="882.5" y1="114.6094" y2="136.2188"/><line style="stroke:#000000;stroke-width:1.0;" x1="777.5" x2="936.5" y1="136.2188" y2="136.2188"/><text fill="#000000" font-family="sans-serif" font-size="14" font-weight="bold" lengthAdjust="spacing" textLength="95" x="782.5" y="152.752">temperatures</text><text fill="#000000" font-family="sans-serif" font-size="14" lengthAdjust="spacing" textLength="12" x="887.5" y="152.752">   </text><line style="stroke:#000000;stroke-width:1.0;" x1="882.5" x2="882.5" y1="136.2188" y2="157.8281"/><rect fill="none" height="64.8281" rx="5" ry="5" style="stroke:#000000;stroke-width:1.5;" width="159" x="777.5" y="93"/><rect fill="#F1F1F1" height="21.6094" rx="5" ry="5" style="stroke:#F1F1F1;stroke-width:1.5;" width="94" x="975" y="136.5"/><text fill="#000000" font-family="sans-serif" font-size="14" font-weight="bold" lengthAdjust="spacing" textLength="50" x="980" y="153.0332">sample</text><text fill="#000000" font-family="sans-serif" font-size="14" lengthAdjust="spacing" textLength="24" x="1040" y="153.0332">288</text><line style="stroke:#000000;stroke-width:1.0;" x1="1035" x2="1035" y1="136.5" y2="158.1094"/><rect fill="none" height="21.6094" rx="5" ry="5" style="stroke:#000000;stroke-width:1.5;" width="94" x="975" y="136.5"/><rect fill="#F1F1F1" height="43.2188" rx="5" ry="5" style="stroke:#F1F1F1;stroke-width:1.5;" width="80" x="308" y="124"/><text fill="#000000" font-family="sans-serif" font-size="14" font-weight="bold" lengthAdjust="spacing" textLength="31" x="313" y="140.5332">area</text><text fill="#000000" font-family="sans-serif" font-size="14" lengthAdjust="spacing" textLength="12" x="371" y="140.5332">   </text><line style="stroke:#000000;stroke-width:1.0;" x1="366" x2="366" y1="124" y2="145.6094"/><line style="stroke:#000000;stroke-width:1.0;" x1="308" x2="388" y1="145.6094" y2="145.6094"/><text fill="#000000" font-family="sans-serif" font-size="14" font-weight="bold" lengthAdjust="spacing" textLength="48" x="313" y="162.1426">uValue</text><text fill="#000000" font-family="sans-serif" font-size="14" lengthAdjust="spacing" textLength="12" x="371" y="162.1426">   </text><line style="stroke:#000000;stroke-width:1.0;" x1="366" x2="366" y1="145.6094" y2="167.2188"/><rect fill="none" height="43.2188" rx="5" ry="5" style="stroke:#000000;stroke-width:1.5;" width="80" x="308" y="124"/><rect fill="#F1F1F1" height="21.6094" rx="5" ry="5" style="stroke:#F1F1F1;stroke-width:1.5;" width="121" x="584" y="123.5"/><text fill="#000000" font-family="sans-serif" font-size="14" font-weight="bold" lengthAdjust="spacing" textLength="61" x="589" y="140.0332">category</text><text fill="#000000" font-family="sans-serif" font-size="14" lengthAdjust="spacing" textLength="40" x="660" y="140.0332">centre</text><line style="stroke:#000000;stroke-width:1.0;" x1="655" x2="655" y1="123.5" y2="145.1094"/><rect fill="none" height="21.6094" rx="5" ry="5" style="stroke:#000000;stroke-width:1.5;" width="121" x="584" y="123.5"/><rect fill="#F1F1F1" height="64.8281" rx="5" ry="5" style="stroke:#F1F1F1;stroke-width:1.5;" width="189" x="550" y="164"/><text fill="#000000" font-family="sans-serif" font-size="14" font-weight="bold" lengthAdjust="spacing" textLength="106" x="555" y="180.5332">uncertainValue</text><text fill="#000000" font-family="sans-serif" font-size="14" lengthAdjust="spacing" textLength="28" x="698" y="180.5332">0.15</text><line style="stroke:#000000;stroke-width:1.0;" x1="693" x2="693" y1="164" y2="185.6094"/><line style="stroke:#000000;stroke-width:1.0;" x1="550" x2="739" y1="185.6094" y2="185.6094"/><text fill="#000000" font-family="sans-serif" font-size="14" font-weight="bold" lengthAdjust="spacing" textLength="79" x="555" y="202.1426">uncertainty</text><text fill="#000000" font-family="sans-serif" font-size="14" lengthAdjust="spacing" textLength="36" x="698" y="202.1426">0.015</text><line style="stroke:#000000;stroke-width:1.0;" x1="693" x2="693" y1="185.6094" y2="207.2188"/><line style="stroke:#000000;stroke-width:1.0;" x1="550" x2="739" y1="207.2188" y2="207.2188"/><text fill="#000000" font-family="sans-serif" font-size="14" font-weight="bold" lengthAdjust="spacing" textLength="133" x="555" y="223.752">confidenceInterval</text><text fill="#000000" font-family="sans-serif" font-size="14" lengthAdjust="spacing" textLength="28" x="698" y="223.752">68.3</text><line style="stroke:#000000;stroke-width:1.0;" x1="693" x2="693" y1="207.2188" y2="228.8281"/><rect fill="none" height="64.8281" rx="5" ry="5" style="stroke:#000000;stroke-width:1.5;" width="189" x="550" y="164"/><path d="M134,68.5 L147,68.5 C181.6851,68.5 219.3774,64.0544 252.6219,58.5859 " fill="none" style="stroke:#000000;stroke-width:1.0;stroke-dasharray:3.0,3.0;"/><path d="M253.1246,61.5713 L254.8609,58.2089 L252.1191,55.6006 L260.0852,57.3291 L253.1246,61.5713 " fill="#000000" style="stroke:#000000;stroke-width:1.0;"/><ellipse cx="134" cy="68.5" fill="#000000" rx="3" ry="3" style="stroke:#000000;stroke-width:1.0;"/><path d="M926,64.5 L939,64.5 C948.2674,64.5 958.1203,64.5 967.6708,64.5 " fill="none" style="stroke:#000000;stroke-width:1.0;stroke-dasharray:3.0,3.0;"/><path d="M967.6708,67.531 L969.9441,64.5 L967.6708,61.469 L975.2484,64.5 L967.6708,67.531 " fill="#000000" style="stroke:#000000;stroke-width:1.0;"/><ellipse cx="926" cy="64.5" fill="#000000" rx="3" ry="3" style="stroke:#000000;stroke-width:1.0;"/><path d="M645,72.5 L658,72.5 C694.4529,72.5 734.2527,67.4925 768.5801,61.5692 " fill="none" style="stroke:#000000;stroke-width:1.0;stroke-dasharray:3.0,3.0;"/><path d="M769.1233,64.6455 L770.8874,61.1618 L768.0369,58.4928 L776.271,60.2113 L769.1233,64.6455 " fill="#000000" style="stroke:#000000;stroke-width:1.0;"/><ellipse cx="645" cy="72.5" fill="#000000" rx="3" ry="3" style="stroke:#000000;stroke-width:1.0;"/><path d="M925.5,147.5 L938.5,147.5 C947.9372,147.5 957.9781,147.5 967.696,147.5 " fill="none" style="stroke:#000000;stroke-width:1.0;stroke-dasharray:3.0,3.0;"/><path d="M967.696,150.5827 L970.008,147.5 L967.696,144.4173 L975.4026,147.5 L967.696,150.5827 " fill="#000000" style="stroke:#000000;stroke-width:1.0;"/><ellipse cx="925.5" cy="147.5" fill="#000000" rx="3" ry="3" style="stroke:#000000;stroke-width:1.0;"/><path d="M645,94.5 L658,94.5 C694.9668,94.5 735.3474,99.8133 769.9791,106.0405 " fill="none" style="stroke:#000000;stroke-width:1.0;stroke-dasharray:3.0,3.0;"/><path d="M769.4084,109.1425 L772.3055,106.4685 L770.5497,102.9385 L777.734,107.4672 L769.4084,109.1425 " fill="#000000" style="stroke:#000000;stroke-width:1.0;"/><ellipse cx="645" cy="94.5" fill="#000000" rx="3" ry="3" style="stroke:#000000;stroke-width:1.0;"/><path d="M501,89.5 L514,89.5 C553.5827,89.5 599.8728,86.6899 625.1514,84.916 " fill="none" style="stroke:#000000;stroke-width:1.0;stroke-dasharray:3.0,3.0;"/><path d="M625.3739,88.0069 L627.4696,84.7491 L624.9289,81.8251 L632.8786,84.3597 L625.3739,88.0069 " fill="#000000" style="stroke:#000000;stroke-width:1.0;"/><ellipse cx="501" cy="89.5" fill="#000000" rx="3" ry="3" style="stroke:#000000;stroke-width:1.0;"/><path d="M134,89.5 L147,89.5 C156.3386,89.5 165.9219,89.5 175.596,89.5 " fill="none" style="stroke:#000000;stroke-width:1.0;stroke-dasharray:3.0,3.0;"/><path d="M175.596,92.61 L177.9285,89.5 L175.596,86.39 L183.371,89.5 L175.596,92.61 " fill="#000000" style="stroke:#000000;stroke-width:1.0;"/><ellipse cx="134" cy="89.5" fill="#000000" rx="3" ry="3" style="stroke:#000000;stroke-width:1.0;"/><path d="M376.5,134.5 L389.5,134.5 C452.9602,134.5 525.3213,134.5 576.6205,134.5 " fill="none" style="stroke:#000000;stroke-width:1.0;stroke-dasharray:3.0,3.0;"/><path d="M576.6205,137.5919 L578.9394,134.5 L576.6205,131.4081 L584.3502,134.5 L576.6205,137.5919 " fill="#000000" style="stroke:#000000;stroke-width:1.0;"/><ellipse cx="376.5" cy="134.5" fill="#000000" rx="3" ry="3" style="stroke:#000000;stroke-width:1.0;"/><path d="M376.5,156.5 L389.5,156.5 C440.4462,156.5 496.441,164.4191 542.9054,173.2101 " fill="none" style="stroke:#000000;stroke-width:1.0;stroke-dasharray:3.0,3.0;"/><path d="M542.3385,176.1594 L545.1174,173.6353 L543.4723,170.2608 L550.2786,174.6274 L542.3385,176.1594 " fill="#000000" style="stroke:#000000;stroke-width:1.0;"/><ellipse cx="376.5" cy="156.5" fill="#000000" rx="3" ry="3" style="stroke:#000000;stroke-width:1.0;"/><path d="M134,112.5 L147,112.5 C200.3026,112.5 260.5304,123.9958 300.9404,133.4173 " fill="none" style="stroke:#000000;stroke-width:1.0;stroke-dasharray:3.0,3.0;"/><path d="M300.2477,136.3408 L303.133,133.9369 L301.6332,130.4938 L308.2491,135.1491 L300.2477,136.3408 " fill="#000000" style="stroke:#000000;stroke-width:1.0;"/><ellipse cx="134" cy="112.5" fill="#000000" rx="3" ry="3" style="stroke:#000000;stroke-width:1.0;"/><!--MD5=[b1c11b4130a2f47d7eb21fe6cee0b3d5]
@startjson uValueOpaqueInsulation
{
  "characteristics": {
    "conditions": "stationary",
    "primeSurface": "interior"
  },
  "fluxes": {
    "conductionConvectionLongwaveRadiation": [
      {
        "side": "exterior",
        "flux": 3,
        "temperatures": { "sample": 308 }
      },
      {
        "side": "interior",
        "flux": -3,
        "temperatures": { "sample": 288 }
      }
    ]
  },
  "results": {
    "area": {
      "category": "centre"
    },
    "uValue": {
      "uncertainValue": 0.15,
      "uncertainty": 0.015,
      "confidenceInterval": 68.3
    }
  }
}
@endjson

PlantUML version 1.2022.7(Mon Aug 22 19:01:30 CEST 2022)
(GPL source distribution)
Java Runtime: OpenJDK Runtime Environment
JVM: OpenJDK 64-Bit Server VM
Default Encoding: UTF-8
Language: en
Country: US
--></g></svg>