<?xml version="1.0" encoding="UTF-8" standalone="no"?><svg xmlns="http://www.w3.org/2000/svg" xmlns:xlink="http://www.w3.org/1999/xlink" contentStyleType="text/css" height="255px" preserveAspectRatio="none" style="width:1081px;height:255px;background:#FFFFFF;" version="1.1" viewBox="0 0 1081 255" width="1081px" zoomAndPan="magnify"><defs/><g><rect fill="#F1F1F1" height="64.8281" rx="5" ry="5" style="stroke:#F1F1F1;stroke-width:1.5;" width="136" x="10" y="73"/><text fill="#000000" font-family="sans-serif" font-size="14" font-weight="bold" lengthAdjust="spacing" textLength="104" x="15" y="89.5332">characteristics</text><text fill="#000000" font-family="sans-serif" font-size="14" lengthAdjust="spacing" textLength="12" x="129" y="89.5332">   </text><line style="stroke:#000000;stroke-width:1.0;" x1="124" x2="124" y1="73" y2="94.6094"/><line style="stroke:#000000;stroke-width:1.0;" x1="10" x2="146" y1="94.6094" y2="94.6094"/><text fill="#000000" font-family="sans-serif" font-size="14" font-weight="bold" lengthAdjust="spacing" textLength="43" x="15" y="111.1426">fluxes</text><text fill="#000000" font-family="sans-serif" font-size="14" lengthAdjust="spacing" textLength="12" x="129" y="111.1426">   </text><line style="stroke:#000000;stroke-width:1.0;" x1="124" x2="124" y1="94.6094" y2="116.2188"/><line style="stroke:#000000;stroke-width:1.0;" x1="10" x2="146" y1="116.2188" y2="116.2188"/><text fill="#000000" font-family="sans-serif" font-size="14" font-weight="bold" lengthAdjust="spacing" textLength="49" x="15" y="132.752">results</text><text fill="#000000" font-family="sans-serif" font-size="14" lengthAdjust="spacing" textLength="12" x="129" y="132.752">   </text><line style="stroke:#000000;stroke-width:1.0;" x1="124" x2="124" y1="116.2188" y2="137.8281"/><rect fill="none" height="64.8281" rx="5" ry="5" style="stroke:#000000;stroke-width:1.5;" width="136" x="10" y="73"/><rect fill="#F1F1F1" height="64.8281" rx="5" ry="5" style="stroke:#F1F1F1;stroke-width:1.5;" width="182" x="257" y="10"/><text fill="#000000" font-family="sans-serif" font-size="14" font-weight="bold" lengthAdjust="spacing" textLength="74" x="262" y="26.5332">conditions</text><text fill="#000000" font-family="sans-serif" font-size="14" lengthAdjust="spacing" textLength="62" x="372" y="26.5332">stationary</text><line style="stroke:#000000;stroke-width:1.0;" x1="367" x2="367" y1="10" y2="31.6094"/><line style="stroke:#000000;stroke-width:1.0;" x1="257" x2="439" y1="31.6094" y2="31.6094"/><text fill="#000000" font-family="sans-serif" font-size="14" font-weight="bold" lengthAdjust="spacing" textLength="94" x="262" y="48.1426">primeSurface</text><text fill="#000000" font-family="sans-serif" font-size="14" lengthAdjust="spacing" textLength="44" x="372" y="48.1426">interior</text><line style="stroke:#000000;stroke-width:1.0;" x1="367" x2="367" y1="31.6094" y2="53.2188"/><line style="stroke:#000000;stroke-width:1.0;" x1="257" x2="439" y1="53.2188" y2="53.2188"/><text fill="#000000" font-family="sans-serif" font-size="14" font-weight="bold" lengthAdjust="spacing" textLength="100" x="262" y="69.752">componentTilt</text><text fill="#000000" font-family="sans-serif" font-size="14" lengthAdjust="spacing" textLength="16" x="372" y="69.752">90</text><line style="stroke:#000000;stroke-width:1.0;" x1="367" x2="367" y1="53.2188" y2="74.8281"/><rect fill="none" height="64.8281" rx="5" ry="5" style="stroke:#000000;stroke-width:1.5;" width="182" x="257" y="10"/><rect fill="#F1F1F1" height="21.6094" rx="5" ry="5" style="stroke:#F1F1F1;stroke-width:1.5;" width="330" x="183" y="93.5"/><text fill="#000000" font-family="sans-serif" font-size="14" font-weight="bold" lengthAdjust="spacing" textLength="298" x="188" y="110.0332">conductionConvectionLongwaveRadiation</text><text fill="#000000" font-family="sans-serif" font-size="14" lengthAdjust="spacing" textLength="12" x="496" y="110.0332">   </text><line style="stroke:#000000;stroke-width:1.0;" x1="491" x2="491" y1="93.5" y2="115.1094"/><rect fill="none" height="21.6094" rx="5" ry="5" style="stroke:#000000;stroke-width:1.5;" width="330" x="183" y="93.5"/><rect fill="#F1F1F1" height="43.2188" rx="5" ry="5" style="stroke:#F1F1F1;stroke-width:1.5;" width="22" x="632.5" y="77"/><text fill="#000000" font-family="sans-serif" font-size="14" lengthAdjust="spacing" textLength="12" x="637.5" y="93.5332">   </text><line style="stroke:#000000;stroke-width:1.0;" x1="632.5" x2="654.5" y1="98.6094" y2="98.6094"/><text fill="#000000" font-family="sans-serif" font-size="14" lengthAdjust="spacing" textLength="12" x="637.5" y="115.1426">   </text><rect fill="none" height="43.2188" rx="5" ry="5" style="stroke:#000000;stroke-width:1.5;" width="22" x="632.5" y="77"/><rect fill="#F1F1F1" height="64.8281" rx="5" ry="5" style="stroke:#F1F1F1;stroke-width:1.5;" width="162" x="776" y="25"/><text fill="#000000" font-family="sans-serif" font-size="14" font-weight="bold" lengthAdjust="spacing" textLength="30" x="781" y="41.5332">side</text><text fill="#000000" font-family="sans-serif" font-size="14" lengthAdjust="spacing" textLength="47" x="886" y="41.5332">exterior</text><line style="stroke:#000000;stroke-width:1.0;" x1="881" x2="881" y1="25" y2="46.6094"/><line style="stroke:#000000;stroke-width:1.0;" x1="776" x2="938" y1="46.6094" y2="46.6094"/><text fill="#000000" font-family="sans-serif" font-size="14" font-weight="bold" lengthAdjust="spacing" textLength="26" x="781" y="63.1426">flux</text><text fill="#000000" font-family="sans-serif" font-size="14" lengthAdjust="spacing" textLength="8" x="886" y="63.1426">3</text><line style="stroke:#000000;stroke-width:1.0;" x1="881" x2="881" y1="46.6094" y2="68.2188"/><line style="stroke:#000000;stroke-width:1.0;" x1="776" x2="938" y1="68.2188" y2="68.2188"/><text fill="#000000" font-family="sans-serif" font-size="14" font-weight="bold" lengthAdjust="spacing" textLength="95" x="781" y="84.752">temperatures</text><text fill="#000000" font-family="sans-serif" font-size="14" lengthAdjust="spacing" textLength="12" x="886" y="84.752">   </text><line style="stroke:#000000;stroke-width:1.0;" x1="881" x2="881" y1="68.2188" y2="89.8281"/><rect fill="none" height="64.8281" rx="5" ry="5" style="stroke:#000000;stroke-width:1.5;" width="162" x="776" y="25"/><rect fill="#F1F1F1" height="21.6094" rx="5" ry="5" style="stroke:#F1F1F1;stroke-width:1.5;" width="94" x="975" y="68.5"/><text fill="#000000" font-family="sans-serif" font-size="14" font-weight="bold" lengthAdjust="spacing" textLength="50" x="980" y="85.0332">sample</text><text fill="#000000" font-family="sans-serif" font-size="14" lengthAdjust="spacing" textLength="24" x="1040" y="85.0332">308</text><line style="stroke:#000000;stroke-width:1.0;" x1="1035" x2="1035" y1="68.5" y2="90.1094"/><rect fill="none" height="21.6094" rx="5" ry="5" style="stroke:#000000;stroke-width:1.5;" width="94" x="975" y="68.5"/><rect fill="#F1F1F1" height="64.8281" rx="5" ry="5" style="stroke:#F1F1F1;stroke-width:1.5;" width="159" x="777.5" y="108"/><text fill="#000000" font-family="sans-serif" font-size="14" font-weight="bold" lengthAdjust="spacing" textLength="30" x="782.5" y="124.5332">side</text><text fill="#000000" font-family="sans-serif" font-size="14" lengthAdjust="spacing" textLength="44" x="887.5" y="124.5332">interior</text><line style="stroke:#000000;stroke-width:1.0;" x1="882.5" x2="882.5" y1="108" y2="129.6094"/><line style="stroke:#000000;stroke-width:1.0;" x1="777.5" x2="936.5" y1="129.6094" y2="129.6094"/><text fill="#000000" font-family="sans-serif" font-size="14" font-weight="bold" lengthAdjust="spacing" textLength="26" x="782.5" y="146.1426">flux</text><text fill="#000000" font-family="sans-serif" font-size="14" lengthAdjust="spacing" textLength="13" x="887.5" y="146.1426">-3</text><line style="stroke:#000000;stroke-width:1.0;" x1="882.5" x2="882.5" y1="129.6094" y2="151.2188"/><line style="stroke:#000000;stroke-width:1.0;" x1="777.5" x2="936.5" y1="151.2188" y2="151.2188"/><text fill="#000000" font-family="sans-serif" font-size="14" font-weight="bold" lengthAdjust="spacing" textLength="95" x="782.5" y="167.752">temperatures</text><text fill="#000000" font-family="sans-serif" font-size="14" lengthAdjust="spacing" textLength="12" x="887.5" y="167.752">   </text><line style="stroke:#000000;stroke-width:1.0;" x1="882.5" x2="882.5" y1="151.2188" y2="172.8281"/><rect fill="none" height="64.8281" rx="5" ry="5" style="stroke:#000000;stroke-width:1.5;" width="159" x="777.5" y="108"/><rect fill="#F1F1F1" height="21.6094" rx="5" ry="5" style="stroke:#F1F1F1;stroke-width:1.5;" width="94" x="975" y="151.5"/><text fill="#000000" font-family="sans-serif" font-size="14" font-weight="bold" lengthAdjust="spacing" textLength="50" x="980" y="168.0332">sample</text><text fill="#000000" font-family="sans-serif" font-size="14" lengthAdjust="spacing" textLength="24" x="1040" y="168.0332">288</text><line style="stroke:#000000;stroke-width:1.0;" x1="1035" x2="1035" y1="151.5" y2="173.1094"/><rect fill="none" height="21.6094" rx="5" ry="5" style="stroke:#000000;stroke-width:1.5;" width="94" x="975" y="151.5"/><rect fill="#F1F1F1" height="43.2188" rx="5" ry="5" style="stroke:#F1F1F1;stroke-width:1.5;" width="80" x="308" y="139"/><text fill="#000000" font-family="sans-serif" font-size="14" font-weight="bold" lengthAdjust="spacing" textLength="31" x="313" y="155.5332">area</text><text fill="#000000" font-family="sans-serif" font-size="14" lengthAdjust="spacing" textLength="12" x="371" y="155.5332">   </text><line style="stroke:#000000;stroke-width:1.0;" x1="366" x2="366" y1="139" y2="160.6094"/><line style="stroke:#000000;stroke-width:1.0;" x1="308" x2="388" y1="160.6094" y2="160.6094"/><text fill="#000000" font-family="sans-serif" font-size="14" font-weight="bold" lengthAdjust="spacing" textLength="48" x="313" y="177.1426">uValue</text><text fill="#000000" font-family="sans-serif" font-size="14" lengthAdjust="spacing" textLength="12" x="371" y="177.1426">   </text><line style="stroke:#000000;stroke-width:1.0;" x1="366" x2="366" y1="160.6094" y2="182.2188"/><rect fill="none" height="43.2188" rx="5" ry="5" style="stroke:#000000;stroke-width:1.5;" width="80" x="308" y="139"/><rect fill="#F1F1F1" height="21.6094" rx="5" ry="5" style="stroke:#F1F1F1;stroke-width:1.5;" width="121" x="584" y="138.5"/><text fill="#000000" font-family="sans-serif" font-size="14" font-weight="bold" lengthAdjust="spacing" textLength="61" x="589" y="155.0332">category</text><text fill="#000000" font-family="sans-serif" font-size="14" lengthAdjust="spacing" textLength="40" x="660" y="155.0332">centre</text><line style="stroke:#000000;stroke-width:1.0;" x1="655" x2="655" y1="138.5" y2="160.1094"/><rect fill="none" height="21.6094" rx="5" ry="5" style="stroke:#000000;stroke-width:1.5;" width="121" x="584" y="138.5"/><rect fill="#F1F1F1" height="64.8281" rx="5" ry="5" style="stroke:#F1F1F1;stroke-width:1.5;" width="189" x="550" y="179"/><text fill="#000000" font-family="sans-serif" font-size="14" font-weight="bold" lengthAdjust="spacing" textLength="106" x="555" y="195.5332">uncertainValue</text><text fill="#000000" font-family="sans-serif" font-size="14" lengthAdjust="spacing" textLength="28" x="698" y="195.5332">0.15</text><line style="stroke:#000000;stroke-width:1.0;" x1="693" x2="693" y1="179" y2="200.6094"/><line style="stroke:#000000;stroke-width:1.0;" x1="550" x2="739" y1="200.6094" y2="200.6094"/><text fill="#000000" font-family="sans-serif" font-size="14" font-weight="bold" lengthAdjust="spacing" textLength="79" x="555" y="217.1426">uncertainty</text><text fill="#000000" font-family="sans-serif" font-size="14" lengthAdjust="spacing" textLength="36" x="698" y="217.1426">0.015</text><line style="stroke:#000000;stroke-width:1.0;" x1="693" x2="693" y1="200.6094" y2="222.2188"/><line style="stroke:#000000;stroke-width:1.0;" x1="550" x2="739" y1="222.2188" y2="222.2188"/><text fill="#000000" font-family="sans-serif" font-size="14" font-weight="bold" lengthAdjust="spacing" textLength="133" x="555" y="238.752">confidenceInterval</text><text fill="#000000" font-family="sans-serif" font-size="14" lengthAdjust="spacing" textLength="28" x="698" y="238.752">68.3</text><line style="stroke:#000000;stroke-width:1.0;" x1="693" x2="693" y1="222.2188" y2="243.8281"/><rect fill="none" height="64.8281" rx="5" ry="5" style="stroke:#000000;stroke-width:1.5;" width="189" x="550" y="179"/><path d="M134,83.5 L147,83.5 C180.8792,83.5 217.3376,77.8115 249.7532,70.6723 " fill="none" style="stroke:#000000;stroke-width:1.0;stroke-dasharray:3.0,3.0;"/><path d="M250.4503,73.7582 L252.0677,70.1495 L249.0561,67.5864 L257.468,68.9295 L250.4503,73.7582 " fill="#000000" style="stroke:#000000;stroke-width:1.0;"/><ellipse cx="134" cy="83.5" fill="#000000" rx="3" ry="3" style="stroke:#000000;stroke-width:1.0;"/><path d="M926,79.5 L939,79.5 C948.2674,79.5 958.1203,79.5 967.6708,79.5 " fill="none" style="stroke:#000000;stroke-width:1.0;stroke-dasharray:3.0,3.0;"/><path d="M967.6708,82.531 L969.9441,79.5 L967.6708,76.469 L975.2484,79.5 L967.6708,82.531 " fill="#000000" style="stroke:#000000;stroke-width:1.0;"/><ellipse cx="926" cy="79.5" fill="#000000" rx="3" ry="3" style="stroke:#000000;stroke-width:1.0;"/><path d="M645,87.5 L658,87.5 C694.4529,87.5 734.2527,82.4925 768.5801,76.5692 " fill="none" style="stroke:#000000;stroke-width:1.0;stroke-dasharray:3.0,3.0;"/><path d="M769.1233,79.6455 L770.8874,76.1618 L768.0369,73.4928 L776.271,75.2113 L769.1233,79.6455 " fill="#000000" style="stroke:#000000;stroke-width:1.0;"/><ellipse cx="645" cy="87.5" fill="#000000" rx="3" ry="3" style="stroke:#000000;stroke-width:1.0;"/><path d="M925.5,162.5 L938.5,162.5 C947.9372,162.5 957.9781,162.5 967.696,162.5 " fill="none" style="stroke:#000000;stroke-width:1.0;stroke-dasharray:3.0,3.0;"/><path d="M967.696,165.5827 L970.008,162.5 L967.696,159.4173 L975.4026,162.5 L967.696,165.5827 " fill="#000000" style="stroke:#000000;stroke-width:1.0;"/><ellipse cx="925.5" cy="162.5" fill="#000000" rx="3" ry="3" style="stroke:#000000;stroke-width:1.0;"/><path d="M645,109.5 L658,109.5 C694.9668,109.5 735.3474,114.8133 769.9791,121.0405 " fill="none" style="stroke:#000000;stroke-width:1.0;stroke-dasharray:3.0,3.0;"/><path d="M769.4084,124.1425 L772.3055,121.4685 L770.5497,117.9385 L777.734,122.4672 L769.4084,124.1425 " fill="#000000" style="stroke:#000000;stroke-width:1.0;"/><ellipse cx="645" cy="109.5" fill="#000000" rx="3" ry="3" style="stroke:#000000;stroke-width:1.0;"/><path d="M501,104.5 L514,104.5 C553.5827,104.5 599.8728,101.6899 625.1514,99.916 " fill="none" style="stroke:#000000;stroke-width:1.0;stroke-dasharray:3.0,3.0;"/><path d="M625.3739,103.0069 L627.4696,99.7491 L624.9289,96.8251 L632.8786,99.3597 L625.3739,103.0069 " fill="#000000" style="stroke:#000000;stroke-width:1.0;"/><ellipse cx="501" cy="104.5" fill="#000000" rx="3" ry="3" style="stroke:#000000;stroke-width:1.0;"/><path d="M134,104.5 L147,104.5 C156.3386,104.5 165.9219,104.5 175.596,104.5 " fill="none" style="stroke:#000000;stroke-width:1.0;stroke-dasharray:3.0,3.0;"/><path d="M175.596,107.61 L177.9285,104.5 L175.596,101.39 L183.371,104.5 L175.596,107.61 " fill="#000000" style="stroke:#000000;stroke-width:1.0;"/><ellipse cx="134" cy="104.5" fill="#000000" rx="3" ry="3" style="stroke:#000000;stroke-width:1.0;"/><path d="M376.5,149.5 L389.5,149.5 C452.9602,149.5 525.3213,149.5 576.6205,149.5 " fill="none" style="stroke:#000000;stroke-width:1.0;stroke-dasharray:3.0,3.0;"/><path d="M576.6205,152.5919 L578.9394,149.5 L576.6205,146.4081 L584.3502,149.5 L576.6205,152.5919 " fill="#000000" style="stroke:#000000;stroke-width:1.0;"/><ellipse cx="376.5" cy="149.5" fill="#000000" rx="3" ry="3" style="stroke:#000000;stroke-width:1.0;"/><path d="M376.5,171.5 L389.5,171.5 C440.4462,171.5 496.441,179.4191 542.9054,188.2101 " fill="none" style="stroke:#000000;stroke-width:1.0;stroke-dasharray:3.0,3.0;"/><path d="M542.3385,191.1594 L545.1174,188.6353 L543.4723,185.2608 L550.2786,189.6274 L542.3385,191.1594 " fill="#000000" style="stroke:#000000;stroke-width:1.0;"/><ellipse cx="376.5" cy="171.5" fill="#000000" rx="3" ry="3" style="stroke:#000000;stroke-width:1.0;"/><path d="M134,127.5 L147,127.5 C200.3026,127.5 260.5304,138.9958 300.9404,148.4173 " fill="none" style="stroke:#000000;stroke-width:1.0;stroke-dasharray:3.0,3.0;"/><path d="M300.2477,151.3408 L303.133,148.9369 L301.6332,145.4938 L308.2491,150.1491 L300.2477,151.3408 " fill="#000000" style="stroke:#000000;stroke-width:1.0;"/><ellipse cx="134" cy="127.5" fill="#000000" rx="3" ry="3" style="stroke:#000000;stroke-width:1.0;"/><!--MD5=[0a4e284ac75193a4412e0b1728faaa27]
@startjson uValueOpaqueInsulation
{
  "characteristics": {
    "conditions": "stationary",
    "primeSurface": "interior",
    "componentTilt": 90
  },
  "fluxes": {
    "conductionConvectionLongwaveRadiation": [
      {
        "side": "exterior",
        "flux": 3,
        "temperatures": { "sample": 308 }
      },
      {
        "side": "interior",
        "flux": -3,
        "temperatures": { "sample": 288 }
      }
    ]
  },
  "results": {
    "area": {
      "category": "centre"
    },
    "uValue": {
      "uncertainValue": 0.15,
      "uncertainty": 0.015,
      "confidenceInterval": 68.3
    }
  }
}
@endjson

PlantUML version 1.2022.7(Mon Aug 22 19:01:30 CEST 2022)
(GPL source distribution)
Java Runtime: OpenJDK Runtime Environment
JVM: OpenJDK 64-Bit Server VM
Default Encoding: UTF-8
Language: en
Country: US
--></g></svg>