<?xml version="1.0" encoding="UTF-8" standalone="no"?><svg xmlns="http://www.w3.org/2000/svg" xmlns:xlink="http://www.w3.org/1999/xlink" contentStyleType="text/css" height="511px" preserveAspectRatio="none" style="width:690px;height:511px;background:#FFFFFF;" version="1.1" viewBox="0 0 690 511" width="690px" zoomAndPan="magnify"><defs/><g><rect fill="#F1F1F1" height="21.6094" rx="5" ry="5" style="stroke:#F1F1F1;stroke-width:1.5;" width="106" x="10" y="255"/><text fill="#000000" font-family="sans-serif" font-size="14" font-weight="bold" lengthAdjust="spacing" textLength="74" x="15" y="271.5332">dataPoints</text><text fill="#000000" font-family="sans-serif" font-size="14" lengthAdjust="spacing" textLength="12" x="99" y="271.5332">   </text><line style="stroke:#000000;stroke-width:1.0;" x1="94" x2="94" y1="255" y2="276.6094"/><rect fill="none" height="21.6094" rx="5" ry="5" style="stroke:#000000;stroke-width:1.5;" width="106" x="10" y="255"/><rect fill="#F1F1F1" height="64.8281" rx="5" ry="5" style="stroke:#F1F1F1;stroke-width:1.5;" width="22" x="153" y="233.5"/><text fill="#000000" font-family="sans-serif" font-size="14" lengthAdjust="spacing" textLength="12" x="158" y="250.0332">   </text><line style="stroke:#000000;stroke-width:1.0;" x1="153" x2="175" y1="255.1094" y2="255.1094"/><text fill="#000000" font-family="sans-serif" font-size="14" lengthAdjust="spacing" textLength="12" x="158" y="271.6426">   </text><line style="stroke:#000000;stroke-width:1.0;" x1="153" x2="175" y1="276.7188" y2="276.7188"/><text fill="#000000" font-family="sans-serif" font-size="14" lengthAdjust="spacing" textLength="12" x="158" y="293.252">   </text><rect fill="none" height="64.8281" rx="5" ry="5" style="stroke:#000000;stroke-width:1.5;" width="22" x="153" y="233.5"/><rect fill="#F1F1F1" height="64.8281" rx="5" ry="5" style="stroke:#F1F1F1;stroke-width:1.5;" width="112" x="214" y="83.5"/><text fill="#000000" font-family="sans-serif" font-size="14" font-weight="bold" lengthAdjust="spacing" textLength="69" x="219" y="100.0332">incidence</text><text fill="#000000" font-family="sans-serif" font-size="14" lengthAdjust="spacing" textLength="12" x="309" y="100.0332">   </text><line style="stroke:#000000;stroke-width:1.0;" x1="304" x2="304" y1="83.5" y2="105.1094"/><line style="stroke:#000000;stroke-width:1.0;" x1="214" x2="326" y1="105.1094" y2="105.1094"/><text fill="#000000" font-family="sans-serif" font-size="14" font-weight="bold" lengthAdjust="spacing" textLength="80" x="219" y="121.6426">emergence</text><text fill="#000000" font-family="sans-serif" font-size="14" lengthAdjust="spacing" textLength="12" x="309" y="121.6426">   </text><line style="stroke:#000000;stroke-width:1.0;" x1="304" x2="304" y1="105.1094" y2="126.7188"/><line style="stroke:#000000;stroke-width:1.0;" x1="214" x2="326" y1="126.7188" y2="126.7188"/><text fill="#000000" font-family="sans-serif" font-size="14" font-weight="bold" lengthAdjust="spacing" textLength="49" x="219" y="143.252">results</text><text fill="#000000" font-family="sans-serif" font-size="14" lengthAdjust="spacing" textLength="12" x="309" y="143.252">   </text><line style="stroke:#000000;stroke-width:1.0;" x1="304" x2="304" y1="126.7188" y2="148.3281"/><rect fill="none" height="64.8281" rx="5" ry="5" style="stroke:#000000;stroke-width:1.5;" width="112" x="214" y="83.5"/><rect fill="#F1F1F1" height="43.2188" rx="5" ry="5" style="stroke:#F1F1F1;stroke-width:1.5;" width="122" x="378" y="28.5"/><text fill="#000000" font-family="sans-serif" font-size="14" font-weight="bold" lengthAdjust="spacing" textLength="63" x="383" y="45.0332">direction</text><text fill="#000000" font-family="sans-serif" font-size="14" lengthAdjust="spacing" textLength="12" x="483" y="45.0332">   </text><line style="stroke:#000000;stroke-width:1.0;" x1="478" x2="478" y1="28.5" y2="50.1094"/><line style="stroke:#000000;stroke-width:1.0;" x1="378" x2="500" y1="50.1094" y2="50.1094"/><text fill="#000000" font-family="sans-serif" font-size="14" font-weight="bold" lengthAdjust="spacing" textLength="90" x="383" y="66.6426">wavelengths</text><text fill="#000000" font-family="sans-serif" font-size="14" lengthAdjust="spacing" textLength="12" x="483" y="66.6426">   </text><line style="stroke:#000000;stroke-width:1.0;" x1="478" x2="478" y1="50.1094" y2="71.7188"/><rect fill="none" height="43.2188" rx="5" ry="5" style="stroke:#000000;stroke-width:1.5;" width="122" x="378" y="28.5"/><rect fill="#F1F1F1" height="21.6094" rx="5" ry="5" style="stroke:#F1F1F1;stroke-width:1.5;" width="64" x="583" y="10"/><text fill="#000000" font-family="sans-serif" font-size="14" font-weight="bold" lengthAdjust="spacing" textLength="36" x="588" y="26.5332">polar</text><text fill="#000000" font-family="sans-serif" font-size="14" lengthAdjust="spacing" textLength="8" x="634" y="26.5332">8</text><line style="stroke:#000000;stroke-width:1.0;" x1="629" x2="629" y1="10" y2="31.6094"/><rect fill="none" height="21.6094" rx="5" ry="5" style="stroke:#000000;stroke-width:1.5;" width="64" x="583" y="10"/><rect fill="#F1F1F1" height="21.6094" rx="5" ry="5" style="stroke:#F1F1F1;stroke-width:1.5;" width="126" x="552" y="50"/><text fill="#000000" font-family="sans-serif" font-size="14" font-weight="bold" lengthAdjust="spacing" textLength="82" x="557" y="66.5332">wavelength</text><text fill="#000000" font-family="sans-serif" font-size="14" lengthAdjust="spacing" textLength="24" x="649" y="66.5332">280</text><line style="stroke:#000000;stroke-width:1.0;" x1="644" x2="644" y1="50" y2="71.6094"/><rect fill="none" height="21.6094" rx="5" ry="5" style="stroke:#000000;stroke-width:1.5;" width="126" x="552" y="50"/><rect fill="#F1F1F1" height="21.6094" rx="5" ry="5" style="stroke:#F1F1F1;stroke-width:1.5;" width="95" x="391.5" y="90"/><text fill="#000000" font-family="sans-serif" font-size="14" font-weight="bold" lengthAdjust="spacing" textLength="63" x="396.5" y="106.5332">direction</text><text fill="#000000" font-family="sans-serif" font-size="14" lengthAdjust="spacing" textLength="12" x="469.5" y="106.5332">   </text><line style="stroke:#000000;stroke-width:1.0;" x1="464.5" x2="464.5" y1="90" y2="111.6094"/><rect fill="none" height="21.6094" rx="5" ry="5" style="stroke:#000000;stroke-width:1.5;" width="95" x="391.5" y="90"/><rect fill="#F1F1F1" height="21.6094" rx="5" ry="5" style="stroke:#F1F1F1;stroke-width:1.5;" width="64" x="583" y="90"/><text fill="#000000" font-family="sans-serif" font-size="14" font-weight="bold" lengthAdjust="spacing" textLength="36" x="588" y="106.5332">polar</text><text fill="#000000" font-family="sans-serif" font-size="14" lengthAdjust="spacing" textLength="8" x="634" y="106.5332">8</text><line style="stroke:#000000;stroke-width:1.0;" x1="629" x2="629" y1="90" y2="111.6094"/><rect fill="none" height="21.6094" rx="5" ry="5" style="stroke:#000000;stroke-width:1.5;" width="64" x="583" y="90"/><rect fill="#F1F1F1" height="43.2188" rx="5" ry="5" style="stroke:#F1F1F1;stroke-width:1.5;" width="152" x="363" y="130.5"/><text fill="#000000" font-family="sans-serif" font-size="14" font-weight="bold" lengthAdjust="spacing" textLength="96" x="368" y="147.0332">transmittance</text><text fill="#000000" font-family="sans-serif" font-size="14" lengthAdjust="spacing" textLength="28" x="474" y="147.0332">0.65</text><line style="stroke:#000000;stroke-width:1.0;" x1="469" x2="469" y1="130.5" y2="152.1094"/><line style="stroke:#000000;stroke-width:1.0;" x1="363" x2="515" y1="152.1094" y2="152.1094"/><text fill="#000000" font-family="sans-serif" font-size="14" font-weight="bold" lengthAdjust="spacing" textLength="80" x="368" y="168.6426">reflectance</text><text fill="#000000" font-family="sans-serif" font-size="14" lengthAdjust="spacing" textLength="36" x="474" y="168.6426">0.071</text><line style="stroke:#000000;stroke-width:1.0;" x1="469" x2="469" y1="152.1094" y2="173.7188"/><rect fill="none" height="43.2188" rx="5" ry="5" style="stroke:#000000;stroke-width:1.5;" width="152" x="363" y="130.5"/><rect fill="#F1F1F1" height="64.8281" rx="5" ry="5" style="stroke:#F1F1F1;stroke-width:1.5;" width="112" x="214" y="232.5"/><text fill="#000000" font-family="sans-serif" font-size="14" font-weight="bold" lengthAdjust="spacing" textLength="69" x="219" y="249.0332">incidence</text><text fill="#000000" font-family="sans-serif" font-size="14" lengthAdjust="spacing" textLength="12" x="309" y="249.0332">   </text><line style="stroke:#000000;stroke-width:1.0;" x1="304" x2="304" y1="232.5" y2="254.1094"/><line style="stroke:#000000;stroke-width:1.0;" x1="214" x2="326" y1="254.1094" y2="254.1094"/><text fill="#000000" font-family="sans-serif" font-size="14" font-weight="bold" lengthAdjust="spacing" textLength="80" x="219" y="270.6426">emergence</text><text fill="#000000" font-family="sans-serif" font-size="14" lengthAdjust="spacing" textLength="12" x="309" y="270.6426">   </text><line style="stroke:#000000;stroke-width:1.0;" x1="304" x2="304" y1="254.1094" y2="275.7188"/><line style="stroke:#000000;stroke-width:1.0;" x1="214" x2="326" y1="275.7188" y2="275.7188"/><text fill="#000000" font-family="sans-serif" font-size="14" font-weight="bold" lengthAdjust="spacing" textLength="49" x="219" y="292.252">results</text><text fill="#000000" font-family="sans-serif" font-size="14" lengthAdjust="spacing" textLength="12" x="309" y="292.252">   </text><line style="stroke:#000000;stroke-width:1.0;" x1="304" x2="304" y1="275.7188" y2="297.3281"/><rect fill="none" height="64.8281" rx="5" ry="5" style="stroke:#000000;stroke-width:1.5;" width="112" x="214" y="232.5"/><rect fill="#F1F1F1" height="43.2188" rx="5" ry="5" style="stroke:#F1F1F1;stroke-width:1.5;" width="122" x="378" y="191.5"/><text fill="#000000" font-family="sans-serif" font-size="14" font-weight="bold" lengthAdjust="spacing" textLength="63" x="383" y="208.0332">direction</text><text fill="#000000" font-family="sans-serif" font-size="14" lengthAdjust="spacing" textLength="12" x="483" y="208.0332">   </text><line style="stroke:#000000;stroke-width:1.0;" x1="478" x2="478" y1="191.5" y2="213.1094"/><line style="stroke:#000000;stroke-width:1.0;" x1="378" x2="500" y1="213.1094" y2="213.1094"/><text fill="#000000" font-family="sans-serif" font-size="14" font-weight="bold" lengthAdjust="spacing" textLength="90" x="383" y="229.6426">wavelengths</text><text fill="#000000" font-family="sans-serif" font-size="14" lengthAdjust="spacing" textLength="12" x="483" y="229.6426">   </text><line style="stroke:#000000;stroke-width:1.0;" x1="478" x2="478" y1="213.1094" y2="234.7188"/><rect fill="none" height="43.2188" rx="5" ry="5" style="stroke:#000000;stroke-width:1.5;" width="122" x="378" y="191.5"/><rect fill="#F1F1F1" height="21.6094" rx="5" ry="5" style="stroke:#F1F1F1;stroke-width:1.5;" width="64" x="583" y="173"/><text fill="#000000" font-family="sans-serif" font-size="14" font-weight="bold" lengthAdjust="spacing" textLength="36" x="588" y="189.5332">polar</text><text fill="#000000" font-family="sans-serif" font-size="14" lengthAdjust="spacing" textLength="8" x="634" y="189.5332">8</text><line style="stroke:#000000;stroke-width:1.0;" x1="629" x2="629" y1="173" y2="194.6094"/><rect fill="none" height="21.6094" rx="5" ry="5" style="stroke:#000000;stroke-width:1.5;" width="64" x="583" y="173"/><rect fill="#F1F1F1" height="21.6094" rx="5" ry="5" style="stroke:#F1F1F1;stroke-width:1.5;" width="126" x="552" y="213"/><text fill="#000000" font-family="sans-serif" font-size="14" font-weight="bold" lengthAdjust="spacing" textLength="82" x="557" y="229.5332">wavelength</text><text fill="#000000" font-family="sans-serif" font-size="14" lengthAdjust="spacing" textLength="24" x="649" y="229.5332">285</text><line style="stroke:#000000;stroke-width:1.0;" x1="644" x2="644" y1="213" y2="234.6094"/><rect fill="none" height="21.6094" rx="5" ry="5" style="stroke:#000000;stroke-width:1.5;" width="126" x="552" y="213"/><rect fill="#F1F1F1" height="21.6094" rx="5" ry="5" style="stroke:#F1F1F1;stroke-width:1.5;" width="95" x="391.5" y="253"/><text fill="#000000" font-family="sans-serif" font-size="14" font-weight="bold" lengthAdjust="spacing" textLength="63" x="396.5" y="269.5332">direction</text><text fill="#000000" font-family="sans-serif" font-size="14" lengthAdjust="spacing" textLength="12" x="469.5" y="269.5332">   </text><line style="stroke:#000000;stroke-width:1.0;" x1="464.5" x2="464.5" y1="253" y2="274.6094"/><rect fill="none" height="21.6094" rx="5" ry="5" style="stroke:#000000;stroke-width:1.5;" width="95" x="391.5" y="253"/><rect fill="#F1F1F1" height="21.6094" rx="5" ry="5" style="stroke:#F1F1F1;stroke-width:1.5;" width="64" x="583" y="253"/><text fill="#000000" font-family="sans-serif" font-size="14" font-weight="bold" lengthAdjust="spacing" textLength="36" x="588" y="269.5332">polar</text><text fill="#000000" font-family="sans-serif" font-size="14" lengthAdjust="spacing" textLength="8" x="634" y="269.5332">8</text><line style="stroke:#000000;stroke-width:1.0;" x1="629" x2="629" y1="253" y2="274.6094"/><rect fill="none" height="21.6094" rx="5" ry="5" style="stroke:#000000;stroke-width:1.5;" width="64" x="583" y="253"/><rect fill="#F1F1F1" height="43.2188" rx="5" ry="5" style="stroke:#F1F1F1;stroke-width:1.5;" width="152" x="363" y="293.5"/><text fill="#000000" font-family="sans-serif" font-size="14" font-weight="bold" lengthAdjust="spacing" textLength="96" x="368" y="310.0332">transmittance</text><text fill="#000000" font-family="sans-serif" font-size="14" lengthAdjust="spacing" textLength="28" x="474" y="310.0332">0.66</text><line style="stroke:#000000;stroke-width:1.0;" x1="469" x2="469" y1="293.5" y2="315.1094"/><line style="stroke:#000000;stroke-width:1.0;" x1="363" x2="515" y1="315.1094" y2="315.1094"/><text fill="#000000" font-family="sans-serif" font-size="14" font-weight="bold" lengthAdjust="spacing" textLength="80" x="368" y="331.6426">reflectance</text><text fill="#000000" font-family="sans-serif" font-size="14" lengthAdjust="spacing" textLength="36" x="474" y="331.6426">0.070</text><line style="stroke:#000000;stroke-width:1.0;" x1="469" x2="469" y1="315.1094" y2="336.7188"/><rect fill="none" height="43.2188" rx="5" ry="5" style="stroke:#000000;stroke-width:1.5;" width="152" x="363" y="293.5"/><rect fill="#F1F1F1" height="64.8281" rx="5" ry="5" style="stroke:#F1F1F1;stroke-width:1.5;" width="112" x="214" y="380.5"/><text fill="#000000" font-family="sans-serif" font-size="14" font-weight="bold" lengthAdjust="spacing" textLength="69" x="219" y="397.0332">incidence</text><text fill="#000000" font-family="sans-serif" font-size="14" lengthAdjust="spacing" textLength="12" x="309" y="397.0332">   </text><line style="stroke:#000000;stroke-width:1.0;" x1="304" x2="304" y1="380.5" y2="402.1094"/><line style="stroke:#000000;stroke-width:1.0;" x1="214" x2="326" y1="402.1094" y2="402.1094"/><text fill="#000000" font-family="sans-serif" font-size="14" font-weight="bold" lengthAdjust="spacing" textLength="80" x="219" y="418.6426">emergence</text><text fill="#000000" font-family="sans-serif" font-size="14" lengthAdjust="spacing" textLength="12" x="309" y="418.6426">   </text><line style="stroke:#000000;stroke-width:1.0;" x1="304" x2="304" y1="402.1094" y2="423.7188"/><line style="stroke:#000000;stroke-width:1.0;" x1="214" x2="326" y1="423.7188" y2="423.7188"/><text fill="#000000" font-family="sans-serif" font-size="14" font-weight="bold" lengthAdjust="spacing" textLength="49" x="219" y="440.252">results</text><text fill="#000000" font-family="sans-serif" font-size="14" lengthAdjust="spacing" textLength="12" x="309" y="440.252">   </text><line style="stroke:#000000;stroke-width:1.0;" x1="304" x2="304" y1="423.7188" y2="445.3281"/><rect fill="none" height="64.8281" rx="5" ry="5" style="stroke:#000000;stroke-width:1.5;" width="112" x="214" y="380.5"/><rect fill="#F1F1F1" height="43.2188" rx="5" ry="5" style="stroke:#F1F1F1;stroke-width:1.5;" width="122" x="378" y="354.5"/><text fill="#000000" font-family="sans-serif" font-size="14" font-weight="bold" lengthAdjust="spacing" textLength="63" x="383" y="371.0332">direction</text><text fill="#000000" font-family="sans-serif" font-size="14" lengthAdjust="spacing" textLength="12" x="483" y="371.0332">   </text><line style="stroke:#000000;stroke-width:1.0;" x1="478" x2="478" y1="354.5" y2="376.1094"/><line style="stroke:#000000;stroke-width:1.0;" x1="378" x2="500" y1="376.1094" y2="376.1094"/><text fill="#000000" font-family="sans-serif" font-size="14" font-weight="bold" lengthAdjust="spacing" textLength="90" x="383" y="392.6426">wavelengths</text><text fill="#000000" font-family="sans-serif" font-size="14" lengthAdjust="spacing" textLength="12" x="483" y="392.6426">   </text><line style="stroke:#000000;stroke-width:1.0;" x1="478" x2="478" y1="376.1094" y2="397.7188"/><rect fill="none" height="43.2188" rx="5" ry="5" style="stroke:#000000;stroke-width:1.5;" width="122" x="378" y="354.5"/><rect fill="#F1F1F1" height="21.6094" rx="5" ry="5" style="stroke:#F1F1F1;stroke-width:1.5;" width="64" x="583" y="336"/><text fill="#000000" font-family="sans-serif" font-size="14" font-weight="bold" lengthAdjust="spacing" textLength="36" x="588" y="352.5332">polar</text><text fill="#000000" font-family="sans-serif" font-size="14" lengthAdjust="spacing" textLength="8" x="634" y="352.5332">8</text><line style="stroke:#000000;stroke-width:1.0;" x1="629" x2="629" y1="336" y2="357.6094"/><rect fill="none" height="21.6094" rx="5" ry="5" style="stroke:#000000;stroke-width:1.5;" width="64" x="583" y="336"/><rect fill="#F1F1F1" height="21.6094" rx="5" ry="5" style="stroke:#F1F1F1;stroke-width:1.5;" width="126" x="552" y="376"/><text fill="#000000" font-family="sans-serif" font-size="14" font-weight="bold" lengthAdjust="spacing" textLength="82" x="557" y="392.5332">wavelength</text><text fill="#000000" font-family="sans-serif" font-size="14" lengthAdjust="spacing" textLength="24" x="649" y="392.5332">290</text><line style="stroke:#000000;stroke-width:1.0;" x1="644" x2="644" y1="376" y2="397.6094"/><rect fill="none" height="21.6094" rx="5" ry="5" style="stroke:#000000;stroke-width:1.5;" width="126" x="552" y="376"/><rect fill="#F1F1F1" height="21.6094" rx="5" ry="5" style="stroke:#F1F1F1;stroke-width:1.5;" width="95" x="391.5" y="416"/><text fill="#000000" font-family="sans-serif" font-size="14" font-weight="bold" lengthAdjust="spacing" textLength="63" x="396.5" y="432.5332">direction</text><text fill="#000000" font-family="sans-serif" font-size="14" lengthAdjust="spacing" textLength="12" x="469.5" y="432.5332">   </text><line style="stroke:#000000;stroke-width:1.0;" x1="464.5" x2="464.5" y1="416" y2="437.6094"/><rect fill="none" height="21.6094" rx="5" ry="5" style="stroke:#000000;stroke-width:1.5;" width="95" x="391.5" y="416"/><rect fill="#F1F1F1" height="21.6094" rx="5" ry="5" style="stroke:#F1F1F1;stroke-width:1.5;" width="64" x="583" y="416"/><text fill="#000000" font-family="sans-serif" font-size="14" font-weight="bold" lengthAdjust="spacing" textLength="36" x="588" y="432.5332">polar</text><text fill="#000000" font-family="sans-serif" font-size="14" lengthAdjust="spacing" textLength="8" x="634" y="432.5332">8</text><line style="stroke:#000000;stroke-width:1.0;" x1="629" x2="629" y1="416" y2="437.6094"/><rect fill="none" height="21.6094" rx="5" ry="5" style="stroke:#000000;stroke-width:1.5;" width="64" x="583" y="416"/><rect fill="#F1F1F1" height="43.2188" rx="5" ry="5" style="stroke:#F1F1F1;stroke-width:1.5;" width="152" x="363" y="456.5"/><text fill="#000000" font-family="sans-serif" font-size="14" font-weight="bold" lengthAdjust="spacing" textLength="96" x="368" y="473.0332">transmittance</text><text fill="#000000" font-family="sans-serif" font-size="14" lengthAdjust="spacing" textLength="28" x="474" y="473.0332">0.64</text><line style="stroke:#000000;stroke-width:1.0;" x1="469" x2="469" y1="456.5" y2="478.1094"/><line style="stroke:#000000;stroke-width:1.0;" x1="363" x2="515" y1="478.1094" y2="478.1094"/><text fill="#000000" font-family="sans-serif" font-size="14" font-weight="bold" lengthAdjust="spacing" textLength="80" x="368" y="494.6426">reflectance</text><text fill="#000000" font-family="sans-serif" font-size="14" lengthAdjust="spacing" textLength="36" x="474" y="494.6426">0.072</text><line style="stroke:#000000;stroke-width:1.0;" x1="469" x2="469" y1="478.1094" y2="499.7188"/><rect fill="none" height="43.2188" rx="5" ry="5" style="stroke:#000000;stroke-width:1.5;" width="152" x="363" y="456.5"/><path d="M488.5,39 L501.5,39 C526.3783,39 553.9583,34.6924 575.6429,30.2916 " fill="none" style="stroke:#000000;stroke-width:1.0;stroke-dasharray:3.0,3.0;"/><path d="M576.2643,33.2557 L577.8659,29.8256 L575.0214,27.3276 L583.053,28.7381 L576.2643,33.2557 " fill="#000000" style="stroke:#000000;stroke-width:1.0;"/><ellipse cx="488.5" cy="39" fill="#000000" rx="3" ry="3" style="stroke:#000000;stroke-width:1.0;"/><path d="M488.5,61 L501.5,61 C515.4043,61 530.271,61 544.5014,61 " fill="none" style="stroke:#000000;stroke-width:1.0;stroke-dasharray:3.0,3.0;"/><path d="M544.5014,64.1321 L546.8504,61 L544.5014,57.8679 L552.3316,61 L544.5014,64.1321 " fill="#000000" style="stroke:#000000;stroke-width:1.0;"/><ellipse cx="488.5" cy="61" fill="#000000" rx="3" ry="3" style="stroke:#000000;stroke-width:1.0;"/><path d="M314,94 L327,94 C330.0792,94 354.1497,84.5927 379.141,74.4778 " fill="none" style="stroke:#000000;stroke-width:1.0;stroke-dasharray:3.0,3.0;"/><path d="M380.2868,77.3004 L381.258,73.6184 L377.9952,71.6551 L386.1976,71.6133 L380.2868,77.3004 " fill="#000000" style="stroke:#000000;stroke-width:1.0;"/><ellipse cx="314" cy="94" fill="#000000" rx="3" ry="3" style="stroke:#000000;stroke-width:1.0;"/><path d="M475.5,101 L488.5,101 C517.7134,101 550.7367,101 575.6448,101 " fill="none" style="stroke:#000000;stroke-width:1.0;stroke-dasharray:3.0,3.0;"/><path d="M575.6448,104.1147 L577.9809,101 L575.6448,97.8853 L583.4316,101 L575.6448,104.1147 " fill="#000000" style="stroke:#000000;stroke-width:1.0;"/><ellipse cx="475.5" cy="101" fill="#000000" rx="3" ry="3" style="stroke:#000000;stroke-width:1.0;"/><path d="M314,115 L327,115 C345.6927,115 366.0117,113.0389 384.1213,110.5847 " fill="none" style="stroke:#000000;stroke-width:1.0;stroke-dasharray:3.0,3.0;"/><path d="M384.5524,113.6307 L386.4058,110.2614 L383.6903,107.5388 L391.7362,109.507 L384.5524,113.6307 " fill="#000000" style="stroke:#000000;stroke-width:1.0;"/><ellipse cx="314" cy="115" fill="#000000" rx="3" ry="3" style="stroke:#000000;stroke-width:1.0;"/><path d="M314,138 L327,138 C336.3136,138 346.0309,138.4868 355.6775,139.2789 " fill="none" style="stroke:#000000;stroke-width:1.0;stroke-dasharray:3.0,3.0;"/><path d="M355.3986,142.3638 L357.9911,139.4881 L355.9564,136.1941 L363.3897,139.9762 L355.3986,142.3638 " fill="#000000" style="stroke:#000000;stroke-width:1.0;"/><ellipse cx="314" cy="138" fill="#000000" rx="3" ry="3" style="stroke:#000000;stroke-width:1.0;"/><path d="M165.5,245 L165.5,232 C165.5,200.3331 187.2523,173.3688 210.8606,153.4293 " fill="none" style="stroke:#000000;stroke-width:1.0;stroke-dasharray:3.0,3.0;"/><path d="M212.8273,155.8413 L212.6696,151.9543 L208.894,151.0172 L216.8906,148.5126 L212.8273,155.8413 " fill="#000000" style="stroke:#000000;stroke-width:1.0;"/><ellipse cx="165.5" cy="245" fill="#000000" rx="3" ry="3" style="stroke:#000000;stroke-width:1.0;"/><path d="M488.5,202 L501.5,202 C526.3783,202 553.9583,197.6924 575.6429,193.2916 " fill="none" style="stroke:#000000;stroke-width:1.0;stroke-dasharray:3.0,3.0;"/><path d="M576.2643,196.2557 L577.8659,192.8256 L575.0214,190.3276 L583.053,191.7381 L576.2643,196.2557 " fill="#000000" style="stroke:#000000;stroke-width:1.0;"/><ellipse cx="488.5" cy="202" fill="#000000" rx="3" ry="3" style="stroke:#000000;stroke-width:1.0;"/><path d="M488.5,224 L501.5,224 C515.4043,224 530.271,224 544.5014,224 " fill="none" style="stroke:#000000;stroke-width:1.0;stroke-dasharray:3.0,3.0;"/><path d="M544.5014,227.1321 L546.8504,224 L544.5014,220.8679 L552.3316,224 L544.5014,227.1321 " fill="#000000" style="stroke:#000000;stroke-width:1.0;"/><ellipse cx="488.5" cy="224" fill="#000000" rx="3" ry="3" style="stroke:#000000;stroke-width:1.0;"/><path d="M314,243 L327,243 C342.4182,243 358.6366,240.292 373.7826,236.5032 " fill="none" style="stroke:#000000;stroke-width:1.0;stroke-dasharray:3.0,3.0;"/><path d="M374.5585,239.4395 L375.9849,235.9213 L373.0067,233.5668 L381.1235,234.5635 L374.5585,239.4395 " fill="#000000" style="stroke:#000000;stroke-width:1.0;"/><ellipse cx="314" cy="243" fill="#000000" rx="3" ry="3" style="stroke:#000000;stroke-width:1.0;"/><path d="M475.5,264 L488.5,264 C517.7134,264 550.7367,264 575.6448,264 " fill="none" style="stroke:#000000;stroke-width:1.0;stroke-dasharray:3.0,3.0;"/><path d="M575.6448,267.1147 L577.9809,264 L575.6448,260.8853 L583.4316,264 L575.6448,267.1147 " fill="#000000" style="stroke:#000000;stroke-width:1.0;"/><ellipse cx="475.5" cy="264" fill="#000000" rx="3" ry="3" style="stroke:#000000;stroke-width:1.0;"/><path d="M314,264 L327,264 C345.6317,264 366.0147,264 384.1984,264 " fill="none" style="stroke:#000000;stroke-width:1.0;stroke-dasharray:3.0,3.0;"/><path d="M384.1984,267.0587 L386.4924,264 L384.1984,260.9413 L391.8452,264 L384.1984,267.0587 " fill="#000000" style="stroke:#000000;stroke-width:1.0;"/><ellipse cx="314" cy="264" fill="#000000" rx="3" ry="3" style="stroke:#000000;stroke-width:1.0;"/><path d="M314,287 L327,287 C340.4721,287 354.5916,288.9466 368.0804,291.8134 " fill="none" style="stroke:#000000;stroke-width:1.0;stroke-dasharray:3.0,3.0;"/><path d="M367.4081,294.7817 L370.3067,292.3176 L368.7527,288.8451 L375.5012,293.4941 L367.4081,294.7817 " fill="#000000" style="stroke:#000000;stroke-width:1.0;"/><ellipse cx="314" cy="287" fill="#000000" rx="3" ry="3" style="stroke:#000000;stroke-width:1.0;"/><path d="M165,265 L178,265 C187.2756,265 197.0801,265 206.6897,265 " fill="none" style="stroke:#000000;stroke-width:1.0;stroke-dasharray:3.0,3.0;"/><path d="M206.6897,268.0604 L208.985,265 L206.6897,261.9396 L214.3408,265 L206.6897,268.0604 " fill="#000000" style="stroke:#000000;stroke-width:1.0;"/><ellipse cx="165" cy="265" fill="#000000" rx="3" ry="3" style="stroke:#000000;stroke-width:1.0;"/><path d="M488.5,365 L501.5,365 C526.3783,365 553.9583,360.6924 575.6429,356.2916 " fill="none" style="stroke:#000000;stroke-width:1.0;stroke-dasharray:3.0,3.0;"/><path d="M576.2643,359.2557 L577.8659,355.8256 L575.0214,353.3276 L583.053,354.7381 L576.2643,359.2557 " fill="#000000" style="stroke:#000000;stroke-width:1.0;"/><ellipse cx="488.5" cy="365" fill="#000000" rx="3" ry="3" style="stroke:#000000;stroke-width:1.0;"/><path d="M488.5,387 L501.5,387 C515.4043,387 530.271,387 544.5014,387 " fill="none" style="stroke:#000000;stroke-width:1.0;stroke-dasharray:3.0,3.0;"/><path d="M544.5014,390.1321 L546.8504,387 L544.5014,383.8679 L552.3316,387 L544.5014,390.1321 " fill="#000000" style="stroke:#000000;stroke-width:1.0;"/><ellipse cx="488.5" cy="387" fill="#000000" rx="3" ry="3" style="stroke:#000000;stroke-width:1.0;"/><path d="M314,391 L327,391 C341.221,391 356.3719,389.7867 370.7734,388.0502 " fill="none" style="stroke:#000000;stroke-width:1.0;stroke-dasharray:3.0,3.0;"/><path d="M371.1542,391.0317 L373.0096,387.7646 L370.3926,385.0686 L378.2273,387.0981 L371.1542,391.0317 " fill="#000000" style="stroke:#000000;stroke-width:1.0;"/><ellipse cx="314" cy="391" fill="#000000" rx="3" ry="3" style="stroke:#000000;stroke-width:1.0;"/><path d="M475.5,427 L488.5,427 C517.7134,427 550.7367,427 575.6448,427 " fill="none" style="stroke:#000000;stroke-width:1.0;stroke-dasharray:3.0,3.0;"/><path d="M575.6448,430.1147 L577.9809,427 L575.6448,423.8853 L583.4316,427 L575.6448,430.1147 " fill="#000000" style="stroke:#000000;stroke-width:1.0;"/><ellipse cx="475.5" cy="427" fill="#000000" rx="3" ry="3" style="stroke:#000000;stroke-width:1.0;"/><path d="M314,412 L327,412 C345.7141,412 366.0386,414.1011 384.1465,416.7307 " fill="none" style="stroke:#000000;stroke-width:1.0;stroke-dasharray:3.0,3.0;"/><path d="M383.6847,419.7761 L386.4306,417.0771 L384.6084,413.6852 L391.7602,417.8853 L383.6847,419.7761 " fill="#000000" style="stroke:#000000;stroke-width:1.0;"/><ellipse cx="314" cy="412" fill="#000000" rx="3" ry="3" style="stroke:#000000;stroke-width:1.0;"/><path d="M314,435 L327,435 C330.0095,435 353.2018,443.8357 377.6607,453.4966 " fill="none" style="stroke:#000000;stroke-width:1.0;stroke-dasharray:3.0,3.0;"/><path d="M376.5097,456.4014 L379.8393,454.3599 L378.8116,450.5918 L384.9227,456.374 L376.5097,456.4014 " fill="#000000" style="stroke:#000000;stroke-width:1.0;"/><ellipse cx="314" cy="435" fill="#000000" rx="3" ry="3" style="stroke:#000000;stroke-width:1.0;"/><path d="M165.5,287 L165.5,300 C165.5,330.6011 186.4043,356.4765 209.4688,375.7127 " fill="none" style="stroke:#000000;stroke-width:1.0;stroke-dasharray:3.0,3.0;"/><path d="M207.5702,378.0723 L211.2384,377.1367 L211.3673,373.3532 L215.3677,380.4591 L207.5702,378.0723 " fill="#000000" style="stroke:#000000;stroke-width:1.0;"/><ellipse cx="165.5" cy="287" fill="#000000" rx="3" ry="3" style="stroke:#000000;stroke-width:1.0;"/><path d="M104,266 L117,266 C126.374,266 136.7885,266 145.4714,266 " fill="none" style="stroke:#000000;stroke-width:1.0;stroke-dasharray:3.0,3.0;"/><path d="M145.4714,269.0815 L147.7825,266 L145.4714,262.9185 L153.1751,266 L145.4714,269.0815 " fill="#000000" style="stroke:#000000;stroke-width:1.0;"/><ellipse cx="104" cy="266" fill="#000000" rx="3" ry="3" style="stroke:#000000;stroke-width:1.0;"/><!--MD5=[d77e71708ae71ada4cc9b89396041c9a]
@startjson spectrallyResolvedDataPoints
{
  "dataPoints": [
    {
      "incidence": {
        "direction": {
          "polar": 8
        },
        "wavelengths": { "wavelength": 280 }
      },
      "emergence": {
        "direction": {
          "polar": 8
        }
      },
      "results": {
        "transmittance": 0.65,
        "reflectance": 0.071
      }
    },
    {
      "incidence": {
        "direction": {
          "polar": 8
        },
        "wavelengths": { "wavelength": 285 }
      },
      "emergence": {
        "direction": {
          "polar": 8
        }
      },
      "results": {
        "transmittance": 0.66,
        "reflectance": 0.070
      }
    },
    {
      "incidence": {
        "direction": {
          "polar": 8
        },
        "wavelengths": { "wavelength": 290 }
      },
      "emergence": {
        "direction": {
          "polar": 8
        }
      },
      "results": {
        "transmittance": 0.64,
        "reflectance": 0.072
      }
    }
  ]
}
@endjson

PlantUML version 1.2022.7(Mon Aug 22 19:01:30 CEST 2022)
(GPL source distribution)
Java Runtime: OpenJDK Runtime Environment
JVM: OpenJDK 64-Bit Server VM
Default Encoding: UTF-8
Language: en
Country: US
--></g></svg>