<?xml version="1.0" encoding="UTF-8" standalone="no"?><svg xmlns="http://www.w3.org/2000/svg" xmlns:xlink="http://www.w3.org/1999/xlink" contentStyleType="text/css" height="511px" preserveAspectRatio="none" style="width:682px;height:511px;background:#FFFFFF;" version="1.1" viewBox="0 0 682 511" width="682px" zoomAndPan="magnify"><defs/><g><rect fill="#F1F1F1" height="21.6094" rx="5" ry="5" style="stroke:#F1F1F1;stroke-width:1.5;" width="106" x="10" y="255"/><text fill="#000000" font-family="sans-serif" font-size="14" font-weight="bold" lengthAdjust="spacing" textLength="74" x="15" y="271.5332">dataPoints</text><text fill="#000000" font-family="sans-serif" font-size="14" lengthAdjust="spacing" textLength="12" x="99" y="271.5332">   </text><line style="stroke:#000000;stroke-width:1.0;" x1="94" x2="94" y1="255" y2="276.6094"/><rect fill="none" height="21.6094" rx="5" ry="5" style="stroke:#000000;stroke-width:1.5;" width="106" x="10" y="255"/><rect fill="#F1F1F1" height="64.8281" rx="5" ry="5" style="stroke:#F1F1F1;stroke-width:1.5;" width="22" x="153" y="233.5"/><text fill="#000000" font-family="sans-serif" font-size="14" lengthAdjust="spacing" textLength="12" x="158" y="250.0332">   </text><line style="stroke:#000000;stroke-width:1.0;" x1="153" x2="175" y1="255.1094" y2="255.1094"/><text fill="#000000" font-family="sans-serif" font-size="14" lengthAdjust="spacing" textLength="12" x="158" y="271.6426">   </text><line style="stroke:#000000;stroke-width:1.0;" x1="153" x2="175" y1="276.7188" y2="276.7188"/><text fill="#000000" font-family="sans-serif" font-size="14" lengthAdjust="spacing" textLength="12" x="158" y="293.252">   </text><rect fill="none" height="64.8281" rx="5" ry="5" style="stroke:#000000;stroke-width:1.5;" width="22" x="153" y="233.5"/><rect fill="#F1F1F1" height="64.8281" rx="5" ry="5" style="stroke:#F1F1F1;stroke-width:1.5;" width="112" x="214" y="83.5"/><text fill="#000000" font-family="sans-serif" font-size="14" font-weight="bold" lengthAdjust="spacing" textLength="69" x="219" y="100.0332">incidence</text><text fill="#000000" font-family="sans-serif" font-size="14" lengthAdjust="spacing" textLength="12" x="309" y="100.0332">   </text><line style="stroke:#000000;stroke-width:1.0;" x1="304" x2="304" y1="83.5" y2="105.1094"/><line style="stroke:#000000;stroke-width:1.0;" x1="214" x2="326" y1="105.1094" y2="105.1094"/><text fill="#000000" font-family="sans-serif" font-size="14" font-weight="bold" lengthAdjust="spacing" textLength="80" x="219" y="121.6426">emergence</text><text fill="#000000" font-family="sans-serif" font-size="14" lengthAdjust="spacing" textLength="12" x="309" y="121.6426">   </text><line style="stroke:#000000;stroke-width:1.0;" x1="304" x2="304" y1="105.1094" y2="126.7188"/><line style="stroke:#000000;stroke-width:1.0;" x1="214" x2="326" y1="126.7188" y2="126.7188"/><text fill="#000000" font-family="sans-serif" font-size="14" font-weight="bold" lengthAdjust="spacing" textLength="49" x="219" y="143.252">results</text><text fill="#000000" font-family="sans-serif" font-size="14" lengthAdjust="spacing" textLength="12" x="309" y="143.252">   </text><line style="stroke:#000000;stroke-width:1.0;" x1="304" x2="304" y1="126.7188" y2="148.3281"/><rect fill="none" height="64.8281" rx="5" ry="5" style="stroke:#000000;stroke-width:1.5;" width="112" x="214" y="83.5"/><rect fill="#F1F1F1" height="43.2188" rx="5" ry="5" style="stroke:#F1F1F1;stroke-width:1.5;" width="122" x="374" y="28.5"/><text fill="#000000" font-family="sans-serif" font-size="14" font-weight="bold" lengthAdjust="spacing" textLength="63" x="379" y="45.0332">direction</text><text fill="#000000" font-family="sans-serif" font-size="14" lengthAdjust="spacing" textLength="12" x="479" y="45.0332">   </text><line style="stroke:#000000;stroke-width:1.0;" x1="474" x2="474" y1="28.5" y2="50.1094"/><line style="stroke:#000000;stroke-width:1.0;" x1="374" x2="496" y1="50.1094" y2="50.1094"/><text fill="#000000" font-family="sans-serif" font-size="14" font-weight="bold" lengthAdjust="spacing" textLength="90" x="379" y="66.6426">wavelengths</text><text fill="#000000" font-family="sans-serif" font-size="14" lengthAdjust="spacing" textLength="12" x="479" y="66.6426">   </text><line style="stroke:#000000;stroke-width:1.0;" x1="474" x2="474" y1="50.1094" y2="71.7188"/><rect fill="none" height="43.2188" rx="5" ry="5" style="stroke:#000000;stroke-width:1.5;" width="122" x="374" y="28.5"/><rect fill="#F1F1F1" height="21.6094" rx="5" ry="5" style="stroke:#F1F1F1;stroke-width:1.5;" width="64" x="575" y="10"/><text fill="#000000" font-family="sans-serif" font-size="14" font-weight="bold" lengthAdjust="spacing" textLength="36" x="580" y="26.5332">polar</text><text fill="#000000" font-family="sans-serif" font-size="14" lengthAdjust="spacing" textLength="8" x="626" y="26.5332">8</text><line style="stroke:#000000;stroke-width:1.0;" x1="621" x2="621" y1="10" y2="31.6094"/><rect fill="none" height="21.6094" rx="5" ry="5" style="stroke:#000000;stroke-width:1.5;" width="64" x="575" y="10"/><rect fill="#F1F1F1" height="21.6094" rx="5" ry="5" style="stroke:#F1F1F1;stroke-width:1.5;" width="126" x="544" y="50"/><text fill="#000000" font-family="sans-serif" font-size="14" font-weight="bold" lengthAdjust="spacing" textLength="82" x="549" y="66.5332">wavelength</text><text fill="#000000" font-family="sans-serif" font-size="14" lengthAdjust="spacing" textLength="24" x="641" y="66.5332">480</text><line style="stroke:#000000;stroke-width:1.0;" x1="636" x2="636" y1="50" y2="71.6094"/><rect fill="none" height="21.6094" rx="5" ry="5" style="stroke:#000000;stroke-width:1.5;" width="126" x="544" y="50"/><rect fill="#F1F1F1" height="21.6094" rx="5" ry="5" style="stroke:#F1F1F1;stroke-width:1.5;" width="95" x="387.5" y="90"/><text fill="#000000" font-family="sans-serif" font-size="14" font-weight="bold" lengthAdjust="spacing" textLength="63" x="392.5" y="106.5332">direction</text><text fill="#000000" font-family="sans-serif" font-size="14" lengthAdjust="spacing" textLength="12" x="465.5" y="106.5332">   </text><line style="stroke:#000000;stroke-width:1.0;" x1="460.5" x2="460.5" y1="90" y2="111.6094"/><rect fill="none" height="21.6094" rx="5" ry="5" style="stroke:#000000;stroke-width:1.5;" width="95" x="387.5" y="90"/><rect fill="#F1F1F1" height="21.6094" rx="5" ry="5" style="stroke:#F1F1F1;stroke-width:1.5;" width="64" x="575" y="90"/><text fill="#000000" font-family="sans-serif" font-size="14" font-weight="bold" lengthAdjust="spacing" textLength="36" x="580" y="106.5332">polar</text><text fill="#000000" font-family="sans-serif" font-size="14" lengthAdjust="spacing" textLength="8" x="626" y="106.5332">8</text><line style="stroke:#000000;stroke-width:1.0;" x1="621" x2="621" y1="90" y2="111.6094"/><rect fill="none" height="21.6094" rx="5" ry="5" style="stroke:#000000;stroke-width:1.5;" width="64" x="575" y="90"/><rect fill="#F1F1F1" height="43.2188" rx="5" ry="5" style="stroke:#F1F1F1;stroke-width:1.5;" width="144" x="363" y="130.5"/><text fill="#000000" font-family="sans-serif" font-size="14" font-weight="bold" lengthAdjust="spacing" textLength="96" x="368" y="147.0332">transmittance</text><text fill="#000000" font-family="sans-serif" font-size="14" lengthAdjust="spacing" textLength="28" x="474" y="147.0332">0.65</text><line style="stroke:#000000;stroke-width:1.0;" x1="469" x2="469" y1="130.5" y2="152.1094"/><line style="stroke:#000000;stroke-width:1.0;" x1="363" x2="507" y1="152.1094" y2="152.1094"/><text fill="#000000" font-family="sans-serif" font-size="14" font-weight="bold" lengthAdjust="spacing" textLength="80" x="368" y="168.6426">reflectance</text><text fill="#000000" font-family="sans-serif" font-size="14" lengthAdjust="spacing" textLength="28" x="474" y="168.6426">0.07</text><line style="stroke:#000000;stroke-width:1.0;" x1="469" x2="469" y1="152.1094" y2="173.7188"/><rect fill="none" height="43.2188" rx="5" ry="5" style="stroke:#000000;stroke-width:1.5;" width="144" x="363" y="130.5"/><rect fill="#F1F1F1" height="64.8281" rx="5" ry="5" style="stroke:#F1F1F1;stroke-width:1.5;" width="112" x="214" y="232.5"/><text fill="#000000" font-family="sans-serif" font-size="14" font-weight="bold" lengthAdjust="spacing" textLength="69" x="219" y="249.0332">incidence</text><text fill="#000000" font-family="sans-serif" font-size="14" lengthAdjust="spacing" textLength="12" x="309" y="249.0332">   </text><line style="stroke:#000000;stroke-width:1.0;" x1="304" x2="304" y1="232.5" y2="254.1094"/><line style="stroke:#000000;stroke-width:1.0;" x1="214" x2="326" y1="254.1094" y2="254.1094"/><text fill="#000000" font-family="sans-serif" font-size="14" font-weight="bold" lengthAdjust="spacing" textLength="80" x="219" y="270.6426">emergence</text><text fill="#000000" font-family="sans-serif" font-size="14" lengthAdjust="spacing" textLength="12" x="309" y="270.6426">   </text><line style="stroke:#000000;stroke-width:1.0;" x1="304" x2="304" y1="254.1094" y2="275.7188"/><line style="stroke:#000000;stroke-width:1.0;" x1="214" x2="326" y1="275.7188" y2="275.7188"/><text fill="#000000" font-family="sans-serif" font-size="14" font-weight="bold" lengthAdjust="spacing" textLength="49" x="219" y="292.252">results</text><text fill="#000000" font-family="sans-serif" font-size="14" lengthAdjust="spacing" textLength="12" x="309" y="292.252">   </text><line style="stroke:#000000;stroke-width:1.0;" x1="304" x2="304" y1="275.7188" y2="297.3281"/><rect fill="none" height="64.8281" rx="5" ry="5" style="stroke:#000000;stroke-width:1.5;" width="112" x="214" y="232.5"/><rect fill="#F1F1F1" height="43.2188" rx="5" ry="5" style="stroke:#F1F1F1;stroke-width:1.5;" width="122" x="374" y="191.5"/><text fill="#000000" font-family="sans-serif" font-size="14" font-weight="bold" lengthAdjust="spacing" textLength="63" x="379" y="208.0332">direction</text><text fill="#000000" font-family="sans-serif" font-size="14" lengthAdjust="spacing" textLength="12" x="479" y="208.0332">   </text><line style="stroke:#000000;stroke-width:1.0;" x1="474" x2="474" y1="191.5" y2="213.1094"/><line style="stroke:#000000;stroke-width:1.0;" x1="374" x2="496" y1="213.1094" y2="213.1094"/><text fill="#000000" font-family="sans-serif" font-size="14" font-weight="bold" lengthAdjust="spacing" textLength="90" x="379" y="229.6426">wavelengths</text><text fill="#000000" font-family="sans-serif" font-size="14" lengthAdjust="spacing" textLength="12" x="479" y="229.6426">   </text><line style="stroke:#000000;stroke-width:1.0;" x1="474" x2="474" y1="213.1094" y2="234.7188"/><rect fill="none" height="43.2188" rx="5" ry="5" style="stroke:#000000;stroke-width:1.5;" width="122" x="374" y="191.5"/><rect fill="#F1F1F1" height="21.6094" rx="5" ry="5" style="stroke:#F1F1F1;stroke-width:1.5;" width="64" x="575" y="173"/><text fill="#000000" font-family="sans-serif" font-size="14" font-weight="bold" lengthAdjust="spacing" textLength="36" x="580" y="189.5332">polar</text><text fill="#000000" font-family="sans-serif" font-size="14" lengthAdjust="spacing" textLength="8" x="626" y="189.5332">8</text><line style="stroke:#000000;stroke-width:1.0;" x1="621" x2="621" y1="173" y2="194.6094"/><rect fill="none" height="21.6094" rx="5" ry="5" style="stroke:#000000;stroke-width:1.5;" width="64" x="575" y="173"/><rect fill="#F1F1F1" height="21.6094" rx="5" ry="5" style="stroke:#F1F1F1;stroke-width:1.5;" width="126" x="544" y="213"/><text fill="#000000" font-family="sans-serif" font-size="14" font-weight="bold" lengthAdjust="spacing" textLength="82" x="549" y="229.5332">wavelength</text><text fill="#000000" font-family="sans-serif" font-size="14" lengthAdjust="spacing" textLength="24" x="641" y="229.5332">485</text><line style="stroke:#000000;stroke-width:1.0;" x1="636" x2="636" y1="213" y2="234.6094"/><rect fill="none" height="21.6094" rx="5" ry="5" style="stroke:#000000;stroke-width:1.5;" width="126" x="544" y="213"/><rect fill="#F1F1F1" height="21.6094" rx="5" ry="5" style="stroke:#F1F1F1;stroke-width:1.5;" width="95" x="387.5" y="253"/><text fill="#000000" font-family="sans-serif" font-size="14" font-weight="bold" lengthAdjust="spacing" textLength="63" x="392.5" y="269.5332">direction</text><text fill="#000000" font-family="sans-serif" font-size="14" lengthAdjust="spacing" textLength="12" x="465.5" y="269.5332">   </text><line style="stroke:#000000;stroke-width:1.0;" x1="460.5" x2="460.5" y1="253" y2="274.6094"/><rect fill="none" height="21.6094" rx="5" ry="5" style="stroke:#000000;stroke-width:1.5;" width="95" x="387.5" y="253"/><rect fill="#F1F1F1" height="21.6094" rx="5" ry="5" style="stroke:#F1F1F1;stroke-width:1.5;" width="64" x="575" y="253"/><text fill="#000000" font-family="sans-serif" font-size="14" font-weight="bold" lengthAdjust="spacing" textLength="36" x="580" y="269.5332">polar</text><text fill="#000000" font-family="sans-serif" font-size="14" lengthAdjust="spacing" textLength="8" x="626" y="269.5332">8</text><line style="stroke:#000000;stroke-width:1.0;" x1="621" x2="621" y1="253" y2="274.6094"/><rect fill="none" height="21.6094" rx="5" ry="5" style="stroke:#000000;stroke-width:1.5;" width="64" x="575" y="253"/><rect fill="#F1F1F1" height="43.2188" rx="5" ry="5" style="stroke:#F1F1F1;stroke-width:1.5;" width="144" x="363" y="293.5"/><text fill="#000000" font-family="sans-serif" font-size="14" font-weight="bold" lengthAdjust="spacing" textLength="96" x="368" y="310.0332">transmittance</text><text fill="#000000" font-family="sans-serif" font-size="14" lengthAdjust="spacing" textLength="28" x="474" y="310.0332">0.66</text><line style="stroke:#000000;stroke-width:1.0;" x1="469" x2="469" y1="293.5" y2="315.1094"/><line style="stroke:#000000;stroke-width:1.0;" x1="363" x2="507" y1="315.1094" y2="315.1094"/><text fill="#000000" font-family="sans-serif" font-size="14" font-weight="bold" lengthAdjust="spacing" textLength="80" x="368" y="331.6426">reflectance</text><text fill="#000000" font-family="sans-serif" font-size="14" lengthAdjust="spacing" textLength="28" x="474" y="331.6426">0.07</text><line style="stroke:#000000;stroke-width:1.0;" x1="469" x2="469" y1="315.1094" y2="336.7188"/><rect fill="none" height="43.2188" rx="5" ry="5" style="stroke:#000000;stroke-width:1.5;" width="144" x="363" y="293.5"/><rect fill="#F1F1F1" height="64.8281" rx="5" ry="5" style="stroke:#F1F1F1;stroke-width:1.5;" width="112" x="214" y="380.5"/><text fill="#000000" font-family="sans-serif" font-size="14" font-weight="bold" lengthAdjust="spacing" textLength="69" x="219" y="397.0332">incidence</text><text fill="#000000" font-family="sans-serif" font-size="14" lengthAdjust="spacing" textLength="12" x="309" y="397.0332">   </text><line style="stroke:#000000;stroke-width:1.0;" x1="304" x2="304" y1="380.5" y2="402.1094"/><line style="stroke:#000000;stroke-width:1.0;" x1="214" x2="326" y1="402.1094" y2="402.1094"/><text fill="#000000" font-family="sans-serif" font-size="14" font-weight="bold" lengthAdjust="spacing" textLength="80" x="219" y="418.6426">emergence</text><text fill="#000000" font-family="sans-serif" font-size="14" lengthAdjust="spacing" textLength="12" x="309" y="418.6426">   </text><line style="stroke:#000000;stroke-width:1.0;" x1="304" x2="304" y1="402.1094" y2="423.7188"/><line style="stroke:#000000;stroke-width:1.0;" x1="214" x2="326" y1="423.7188" y2="423.7188"/><text fill="#000000" font-family="sans-serif" font-size="14" font-weight="bold" lengthAdjust="spacing" textLength="49" x="219" y="440.252">results</text><text fill="#000000" font-family="sans-serif" font-size="14" lengthAdjust="spacing" textLength="12" x="309" y="440.252">   </text><line style="stroke:#000000;stroke-width:1.0;" x1="304" x2="304" y1="423.7188" y2="445.3281"/><rect fill="none" height="64.8281" rx="5" ry="5" style="stroke:#000000;stroke-width:1.5;" width="112" x="214" y="380.5"/><rect fill="#F1F1F1" height="43.2188" rx="5" ry="5" style="stroke:#F1F1F1;stroke-width:1.5;" width="122" x="374" y="354.5"/><text fill="#000000" font-family="sans-serif" font-size="14" font-weight="bold" lengthAdjust="spacing" textLength="63" x="379" y="371.0332">direction</text><text fill="#000000" font-family="sans-serif" font-size="14" lengthAdjust="spacing" textLength="12" x="479" y="371.0332">   </text><line style="stroke:#000000;stroke-width:1.0;" x1="474" x2="474" y1="354.5" y2="376.1094"/><line style="stroke:#000000;stroke-width:1.0;" x1="374" x2="496" y1="376.1094" y2="376.1094"/><text fill="#000000" font-family="sans-serif" font-size="14" font-weight="bold" lengthAdjust="spacing" textLength="90" x="379" y="392.6426">wavelengths</text><text fill="#000000" font-family="sans-serif" font-size="14" lengthAdjust="spacing" textLength="12" x="479" y="392.6426">   </text><line style="stroke:#000000;stroke-width:1.0;" x1="474" x2="474" y1="376.1094" y2="397.7188"/><rect fill="none" height="43.2188" rx="5" ry="5" style="stroke:#000000;stroke-width:1.5;" width="122" x="374" y="354.5"/><rect fill="#F1F1F1" height="21.6094" rx="5" ry="5" style="stroke:#F1F1F1;stroke-width:1.5;" width="64" x="575" y="336"/><text fill="#000000" font-family="sans-serif" font-size="14" font-weight="bold" lengthAdjust="spacing" textLength="36" x="580" y="352.5332">polar</text><text fill="#000000" font-family="sans-serif" font-size="14" lengthAdjust="spacing" textLength="8" x="626" y="352.5332">8</text><line style="stroke:#000000;stroke-width:1.0;" x1="621" x2="621" y1="336" y2="357.6094"/><rect fill="none" height="21.6094" rx="5" ry="5" style="stroke:#000000;stroke-width:1.5;" width="64" x="575" y="336"/><rect fill="#F1F1F1" height="21.6094" rx="5" ry="5" style="stroke:#F1F1F1;stroke-width:1.5;" width="126" x="544" y="376"/><text fill="#000000" font-family="sans-serif" font-size="14" font-weight="bold" lengthAdjust="spacing" textLength="82" x="549" y="392.5332">wavelength</text><text fill="#000000" font-family="sans-serif" font-size="14" lengthAdjust="spacing" textLength="24" x="641" y="392.5332">490</text><line style="stroke:#000000;stroke-width:1.0;" x1="636" x2="636" y1="376" y2="397.6094"/><rect fill="none" height="21.6094" rx="5" ry="5" style="stroke:#000000;stroke-width:1.5;" width="126" x="544" y="376"/><rect fill="#F1F1F1" height="21.6094" rx="5" ry="5" style="stroke:#F1F1F1;stroke-width:1.5;" width="95" x="387.5" y="416"/><text fill="#000000" font-family="sans-serif" font-size="14" font-weight="bold" lengthAdjust="spacing" textLength="63" x="392.5" y="432.5332">direction</text><text fill="#000000" font-family="sans-serif" font-size="14" lengthAdjust="spacing" textLength="12" x="465.5" y="432.5332">   </text><line style="stroke:#000000;stroke-width:1.0;" x1="460.5" x2="460.5" y1="416" y2="437.6094"/><rect fill="none" height="21.6094" rx="5" ry="5" style="stroke:#000000;stroke-width:1.5;" width="95" x="387.5" y="416"/><rect fill="#F1F1F1" height="21.6094" rx="5" ry="5" style="stroke:#F1F1F1;stroke-width:1.5;" width="64" x="575" y="416"/><text fill="#000000" font-family="sans-serif" font-size="14" font-weight="bold" lengthAdjust="spacing" textLength="36" x="580" y="432.5332">polar</text><text fill="#000000" font-family="sans-serif" font-size="14" lengthAdjust="spacing" textLength="8" x="626" y="432.5332">8</text><line style="stroke:#000000;stroke-width:1.0;" x1="621" x2="621" y1="416" y2="437.6094"/><rect fill="none" height="21.6094" rx="5" ry="5" style="stroke:#000000;stroke-width:1.5;" width="64" x="575" y="416"/><rect fill="#F1F1F1" height="43.2188" rx="5" ry="5" style="stroke:#F1F1F1;stroke-width:1.5;" width="144" x="363" y="456.5"/><text fill="#000000" font-family="sans-serif" font-size="14" font-weight="bold" lengthAdjust="spacing" textLength="96" x="368" y="473.0332">transmittance</text><text fill="#000000" font-family="sans-serif" font-size="14" lengthAdjust="spacing" textLength="28" x="474" y="473.0332">0.67</text><line style="stroke:#000000;stroke-width:1.0;" x1="469" x2="469" y1="456.5" y2="478.1094"/><line style="stroke:#000000;stroke-width:1.0;" x1="363" x2="507" y1="478.1094" y2="478.1094"/><text fill="#000000" font-family="sans-serif" font-size="14" font-weight="bold" lengthAdjust="spacing" textLength="80" x="368" y="494.6426">reflectance</text><text fill="#000000" font-family="sans-serif" font-size="14" lengthAdjust="spacing" textLength="28" x="474" y="494.6426">0.07</text><line style="stroke:#000000;stroke-width:1.0;" x1="469" x2="469" y1="478.1094" y2="499.7188"/><rect fill="none" height="43.2188" rx="5" ry="5" style="stroke:#000000;stroke-width:1.5;" width="144" x="363" y="456.5"/><path d="M484.5,39 L497.5,39 C521.0733,39 547.1357,34.851 567.8636,30.5369 " fill="none" style="stroke:#000000;stroke-width:1.0;stroke-dasharray:3.0,3.0;"/><path d="M568.4994,33.4892 L570.0778,30.0601 L567.2278,27.5847 L575.2443,28.9475 L568.4994,33.4892 " fill="#000000" style="stroke:#000000;stroke-width:1.0;"/><ellipse cx="484.5" cy="39" fill="#000000" rx="3" ry="3" style="stroke:#000000;stroke-width:1.0;"/><path d="M484.5,61 L497.5,61 C510.1552,61 523.6368,61 536.6495,61 " fill="none" style="stroke:#000000;stroke-width:1.0;stroke-dasharray:3.0,3.0;"/><path d="M536.6495,64.0391 L538.9288,61 L536.6495,57.9609 L544.2472,61 L536.6495,64.0391 " fill="#000000" style="stroke:#000000;stroke-width:1.0;"/><ellipse cx="484.5" cy="61" fill="#000000" rx="3" ry="3" style="stroke:#000000;stroke-width:1.0;"/><path d="M314,94 L327,94 C329.9711,94 352.994,84.673 376.9748,74.6074 " fill="none" style="stroke:#000000;stroke-width:1.0;stroke-dasharray:3.0,3.0;"/><path d="M378.1724,77.4519 L379.1081,73.7092 L375.7771,71.7629 L384.086,71.6133 L378.1724,77.4519 " fill="#000000" style="stroke:#000000;stroke-width:1.0;"/><ellipse cx="314" cy="94" fill="#000000" rx="3" ry="3" style="stroke:#000000;stroke-width:1.0;"/><path d="M471.5,101 L484.5,101 C512.4037,101 543.8974,101 567.8963,101 " fill="none" style="stroke:#000000;stroke-width:1.0;stroke-dasharray:3.0,3.0;"/><path d="M567.8963,104.0058 L570.1507,101 L567.8963,97.9942 L575.4108,101 L567.8963,104.0058 " fill="#000000" style="stroke:#000000;stroke-width:1.0;"/><ellipse cx="471.5" cy="101" fill="#000000" rx="3" ry="3" style="stroke:#000000;stroke-width:1.0;"/><path d="M314,115 L327,115 C344.382,115 363.2136,113.1779 380.1866,110.8484 " fill="none" style="stroke:#000000;stroke-width:1.0;stroke-dasharray:3.0,3.0;"/><path d="M380.6271,113.9107 L382.4833,110.518 L379.7461,107.7861 L387.8423,109.7471 L380.6271,113.9107 " fill="#000000" style="stroke:#000000;stroke-width:1.0;"/><ellipse cx="314" cy="115" fill="#000000" rx="3" ry="3" style="stroke:#000000;stroke-width:1.0;"/><path d="M314,138 L327,138 C336.2817,138 345.9768,138.5196 355.5815,139.3585 " fill="none" style="stroke:#000000;stroke-width:1.0;stroke-dasharray:3.0,3.0;"/><path d="M355.2865,142.428 L357.8836,139.5797 L355.8765,136.289 L363.2553,140.0959 L355.2865,142.428 " fill="#000000" style="stroke:#000000;stroke-width:1.0;"/><ellipse cx="314" cy="138" fill="#000000" rx="3" ry="3" style="stroke:#000000;stroke-width:1.0;"/><path d="M165.5,245 L165.5,232 C165.5,200.3331 187.2523,173.3688 210.8606,153.4293 " fill="none" style="stroke:#000000;stroke-width:1.0;stroke-dasharray:3.0,3.0;"/><path d="M212.8273,155.8413 L212.6696,151.9543 L208.894,151.0172 L216.8906,148.5126 L212.8273,155.8413 " fill="#000000" style="stroke:#000000;stroke-width:1.0;"/><ellipse cx="165.5" cy="245" fill="#000000" rx="3" ry="3" style="stroke:#000000;stroke-width:1.0;"/><path d="M484.5,202 L497.5,202 C521.0733,202 547.1357,197.851 567.8636,193.5369 " fill="none" style="stroke:#000000;stroke-width:1.0;stroke-dasharray:3.0,3.0;"/><path d="M568.4994,196.4892 L570.0778,193.0601 L567.2278,190.5847 L575.2443,191.9475 L568.4994,196.4892 " fill="#000000" style="stroke:#000000;stroke-width:1.0;"/><ellipse cx="484.5" cy="202" fill="#000000" rx="3" ry="3" style="stroke:#000000;stroke-width:1.0;"/><path d="M484.5,224 L497.5,224 C510.1552,224 523.6368,224 536.6495,224 " fill="none" style="stroke:#000000;stroke-width:1.0;stroke-dasharray:3.0,3.0;"/><path d="M536.6495,227.0391 L538.9288,224 L536.6495,220.9609 L544.2472,224 L536.6495,227.0391 " fill="#000000" style="stroke:#000000;stroke-width:1.0;"/><ellipse cx="484.5" cy="224" fill="#000000" rx="3" ry="3" style="stroke:#000000;stroke-width:1.0;"/><path d="M314,243 L327,243 C341.7676,243 357.2703,240.341 371.7615,236.6062 " fill="none" style="stroke:#000000;stroke-width:1.0;stroke-dasharray:3.0,3.0;"/><path d="M372.5786,239.5968 L374.0044,235.9934 L370.9444,233.6156 L379.238,234.5635 L372.5786,239.5968 " fill="#000000" style="stroke:#000000;stroke-width:1.0;"/><ellipse cx="314" cy="243" fill="#000000" rx="3" ry="3" style="stroke:#000000;stroke-width:1.0;"/><path d="M471.5,264 L484.5,264 C512.4037,264 543.8974,264 567.8963,264 " fill="none" style="stroke:#000000;stroke-width:1.0;stroke-dasharray:3.0,3.0;"/><path d="M567.8963,267.0058 L570.1507,264 L567.8963,260.9942 L575.4108,264 L567.8963,267.0058 " fill="#000000" style="stroke:#000000;stroke-width:1.0;"/><ellipse cx="471.5" cy="264" fill="#000000" rx="3" ry="3" style="stroke:#000000;stroke-width:1.0;"/><path d="M314,264 L327,264 C344.3174,264 363.204,264 380.2472,264 " fill="none" style="stroke:#000000;stroke-width:1.0;stroke-dasharray:3.0,3.0;"/><path d="M380.2472,267.0755 L382.5538,264 L380.2472,260.9245 L387.9359,264 L380.2472,267.0755 " fill="#000000" style="stroke:#000000;stroke-width:1.0;"/><ellipse cx="314" cy="264" fill="#000000" rx="3" ry="3" style="stroke:#000000;stroke-width:1.0;"/><path d="M314,287 L327,287 C339.8974,287 353.3924,288.9108 366.2926,291.734 " fill="none" style="stroke:#000000;stroke-width:1.0;stroke-dasharray:3.0,3.0;"/><path d="M365.5885,294.7411 L368.5479,292.262 L366.9967,288.7269 L373.8103,293.4941 L365.5885,294.7411 " fill="#000000" style="stroke:#000000;stroke-width:1.0;"/><ellipse cx="314" cy="287" fill="#000000" rx="3" ry="3" style="stroke:#000000;stroke-width:1.0;"/><path d="M165,265 L178,265 C187.2756,265 197.0801,265 206.6897,265 " fill="none" style="stroke:#000000;stroke-width:1.0;stroke-dasharray:3.0,3.0;"/><path d="M206.6897,268.0604 L208.985,265 L206.6897,261.9396 L214.3408,265 L206.6897,268.0604 " fill="#000000" style="stroke:#000000;stroke-width:1.0;"/><ellipse cx="165" cy="265" fill="#000000" rx="3" ry="3" style="stroke:#000000;stroke-width:1.0;"/><path d="M484.5,365 L497.5,365 C521.0733,365 547.1357,360.851 567.8636,356.5369 " fill="none" style="stroke:#000000;stroke-width:1.0;stroke-dasharray:3.0,3.0;"/><path d="M568.4994,359.4892 L570.0778,356.0601 L567.2278,353.5847 L575.2443,354.9475 L568.4994,359.4892 " fill="#000000" style="stroke:#000000;stroke-width:1.0;"/><ellipse cx="484.5" cy="365" fill="#000000" rx="3" ry="3" style="stroke:#000000;stroke-width:1.0;"/><path d="M484.5,387 L497.5,387 C510.1552,387 523.6368,387 536.6495,387 " fill="none" style="stroke:#000000;stroke-width:1.0;stroke-dasharray:3.0,3.0;"/><path d="M536.6495,390.0391 L538.9288,387 L536.6495,383.9609 L544.2472,387 L536.6495,390.0391 " fill="#000000" style="stroke:#000000;stroke-width:1.0;"/><ellipse cx="484.5" cy="387" fill="#000000" rx="3" ry="3" style="stroke:#000000;stroke-width:1.0;"/><path d="M314,391 L327,391 C339.917,391 353.6239,389.9246 366.7718,388.3496 " fill="none" style="stroke:#000000;stroke-width:1.0;stroke-dasharray:3.0,3.0;"/><path d="M367.164,391.4162 L369.0717,388.0554 L366.3795,385.283 L374.4382,387.3689 L367.164,391.4162 " fill="#000000" style="stroke:#000000;stroke-width:1.0;"/><ellipse cx="314" cy="391" fill="#000000" rx="3" ry="3" style="stroke:#000000;stroke-width:1.0;"/><path d="M471.5,427 L484.5,427 C512.4037,427 543.8974,427 567.8963,427 " fill="none" style="stroke:#000000;stroke-width:1.0;stroke-dasharray:3.0,3.0;"/><path d="M567.8963,430.0058 L570.1507,427 L567.8963,423.9942 L575.4108,427 L567.8963,430.0058 " fill="#000000" style="stroke:#000000;stroke-width:1.0;"/><ellipse cx="471.5" cy="427" fill="#000000" rx="3" ry="3" style="stroke:#000000;stroke-width:1.0;"/><path d="M314,412 L327,412 C344.4035,412 363.241,413.9523 380.2129,416.4482 " fill="none" style="stroke:#000000;stroke-width:1.0;stroke-dasharray:3.0,3.0;"/><path d="M379.7409,419.5101 L382.5093,416.8021 L380.6849,413.3863 L387.8676,417.6281 L379.7409,419.5101 " fill="#000000" style="stroke:#000000;stroke-width:1.0;"/><ellipse cx="314" cy="412" fill="#000000" rx="3" ry="3" style="stroke:#000000;stroke-width:1.0;"/><path d="M314,435 L327,435 C332.8065,435 355.2714,443.76 378.1742,453.3723 " fill="none" style="stroke:#000000;stroke-width:1.0;stroke-dasharray:3.0,3.0;"/><path d="M376.9735,456.2138 L380.3053,454.2728 L379.3749,450.5308 L385.278,456.374 L376.9735,456.2138 " fill="#000000" style="stroke:#000000;stroke-width:1.0;"/><ellipse cx="314" cy="435" fill="#000000" rx="3" ry="3" style="stroke:#000000;stroke-width:1.0;"/><path d="M165.5,287 L165.5,300 C165.5,330.6011 186.4043,356.4765 209.4688,375.7127 " fill="none" style="stroke:#000000;stroke-width:1.0;stroke-dasharray:3.0,3.0;"/><path d="M207.5702,378.0723 L211.2384,377.1367 L211.3673,373.3532 L215.3677,380.4591 L207.5702,378.0723 " fill="#000000" style="stroke:#000000;stroke-width:1.0;"/><ellipse cx="165.5" cy="287" fill="#000000" rx="3" ry="3" style="stroke:#000000;stroke-width:1.0;"/><path d="M104,266 L117,266 C126.374,266 136.7885,266 145.4714,266 " fill="none" style="stroke:#000000;stroke-width:1.0;stroke-dasharray:3.0,3.0;"/><path d="M145.4714,269.0815 L147.7825,266 L145.4714,262.9185 L153.1751,266 L145.4714,269.0815 " fill="#000000" style="stroke:#000000;stroke-width:1.0;"/><ellipse cx="104" cy="266" fill="#000000" rx="3" ry="3" style="stroke:#000000;stroke-width:1.0;"/><!--MD5=[9e304f1652e177192688d19a8d597c1b]
@startjson spectrallyResolvedDataPoints
{
  "dataPoints": [
  {
    "incidence": {
      "direction": {
        "polar": 8
      }
      ,
      "wavelengths": {
        "wavelength": 480
      }
    }
    ,
    "emergence": {
      "direction": {
        "polar": 8
      }
    }
    ,
    "results": {
      "transmittance": 0.65,
      "reflectance": 0.07
    }
  }
  ,
  {
    "incidence": {
      "direction": {
        "polar": 8
      }
      ,
      "wavelengths": {
        "wavelength": 485
      }
    }
    ,
    "emergence": {
      "direction": {
        "polar": 8
      }
    }
    ,
    "results": {
      "transmittance": 0.66,
      "reflectance": 0.07
    }
  }
  ,
  {
    "incidence": {
      "direction": {
        "polar": 8
      }
      ,
      "wavelengths": {
        "wavelength": 490
      }
    }
    ,
    "emergence": {
      "direction": {
        "polar": 8
      }
    }
    ,
    "results": {
      "transmittance": 0.67,
      "reflectance": 0.07
    }
  }
  ]
}
@endjson

PlantUML version 1.2022.7(Mon Aug 22 19:01:30 CEST 2022)
(GPL source distribution)
Java Runtime: OpenJDK Runtime Environment
JVM: OpenJDK 64-Bit Server VM
Default Encoding: UTF-8
Language: en
Country: US
--></g></svg>