<?xml version="1.0" encoding="UTF-8" standalone="no"?><svg xmlns="http://www.w3.org/2000/svg" xmlns:xlink="http://www.w3.org/1999/xlink" contentStyleType="text/css" height="622px" preserveAspectRatio="none" style="width:862px;height:622px;background:#FFFFFF;" version="1.1" viewBox="0 0 862 622" width="862px" zoomAndPan="magnify"><defs/><g><rect fill="#F1F1F1" height="64.8281" rx="5" ry="5" style="stroke:#F1F1F1;stroke-width:1.5;" width="136" x="10" y="227"/><text fill="#000000" font-family="sans-serif" font-size="14" font-weight="bold" lengthAdjust="spacing" textLength="104" x="15" y="243.5332">characteristics</text><text fill="#000000" font-family="sans-serif" font-size="14" lengthAdjust="spacing" textLength="12" x="129" y="243.5332">   </text><line style="stroke:#000000;stroke-width:1.0;" x1="124" x2="124" y1="227" y2="248.6094"/><line style="stroke:#000000;stroke-width:1.0;" x1="10" x2="146" y1="248.6094" y2="248.6094"/><text fill="#000000" font-family="sans-serif" font-size="14" font-weight="bold" lengthAdjust="spacing" textLength="43" x="15" y="265.1426">fluxes</text><text fill="#000000" font-family="sans-serif" font-size="14" lengthAdjust="spacing" textLength="12" x="129" y="265.1426">   </text><line style="stroke:#000000;stroke-width:1.0;" x1="124" x2="124" y1="248.6094" y2="270.2188"/><line style="stroke:#000000;stroke-width:1.0;" x1="10" x2="146" y1="270.2188" y2="270.2188"/><text fill="#000000" font-family="sans-serif" font-size="14" font-weight="bold" lengthAdjust="spacing" textLength="49" x="15" y="286.752">results</text><text fill="#000000" font-family="sans-serif" font-size="14" lengthAdjust="spacing" textLength="12" x="129" y="286.752">   </text><line style="stroke:#000000;stroke-width:1.0;" x1="124" x2="124" y1="270.2188" y2="291.8281"/><rect fill="none" height="64.8281" rx="5" ry="5" style="stroke:#000000;stroke-width:1.5;" width="136" x="10" y="227"/><rect fill="#F1F1F1" height="43.2188" rx="5" ry="5" style="stroke:#F1F1F1;stroke-width:1.5;" width="176" x="183" y="132"/><text fill="#000000" font-family="sans-serif" font-size="14" font-weight="bold" lengthAdjust="spacing" textLength="74" x="188" y="148.5332">conditions</text><text fill="#000000" font-family="sans-serif" font-size="14" lengthAdjust="spacing" textLength="62" x="292" y="148.5332">stationary</text><line style="stroke:#000000;stroke-width:1.0;" x1="287" x2="287" y1="132" y2="153.6094"/><line style="stroke:#000000;stroke-width:1.0;" x1="183" x2="359" y1="153.6094" y2="153.6094"/><text fill="#000000" font-family="sans-serif" font-size="14" font-weight="bold" lengthAdjust="spacing" textLength="94" x="188" y="170.1426">primeSurface</text><text fill="#000000" font-family="sans-serif" font-size="14" lengthAdjust="spacing" textLength="44" x="292" y="170.1426">interior</text><line style="stroke:#000000;stroke-width:1.0;" x1="287" x2="287" y1="153.6094" y2="175.2188"/><rect fill="none" height="43.2188" rx="5" ry="5" style="stroke:#000000;stroke-width:1.5;" width="176" x="183" y="132"/><rect fill="#F1F1F1" height="129.6563" rx="5" ry="5" style="stroke:#F1F1F1;stroke-width:1.5;" width="172" x="185" y="193.5"/><text fill="#000000" font-family="sans-serif" font-size="14" font-weight="bold" lengthAdjust="spacing" textLength="79" x="190" y="210.0332">convection</text><text fill="#000000" font-family="sans-serif" font-size="14" lengthAdjust="spacing" textLength="12" x="340" y="210.0332">   </text><line style="stroke:#000000;stroke-width:1.0;" x1="335" x2="335" y1="193.5" y2="215.1094"/><line style="stroke:#000000;stroke-width:1.0;" x1="185" x2="357" y1="215.1094" y2="215.1094"/><text fill="#000000" font-family="sans-serif" font-size="14" font-weight="bold" lengthAdjust="spacing" textLength="134" x="190" y="231.6426">longwaveRadiation</text><text fill="#000000" font-family="sans-serif" font-size="14" lengthAdjust="spacing" textLength="12" x="340" y="231.6426">   </text><line style="stroke:#000000;stroke-width:1.0;" x1="335" x2="335" y1="215.1094" y2="236.7188"/><line style="stroke:#000000;stroke-width:1.0;" x1="185" x2="357" y1="236.7188" y2="236.7188"/><text fill="#000000" font-family="sans-serif" font-size="14" font-weight="bold" lengthAdjust="spacing" textLength="42" x="190" y="253.252">mixed</text><text fill="#000000" font-family="sans-serif" font-size="14" lengthAdjust="spacing" textLength="12" x="340" y="253.252">   </text><line style="stroke:#000000;stroke-width:1.0;" x1="335" x2="335" y1="236.7188" y2="258.3281"/><line style="stroke:#000000;stroke-width:1.0;" x1="185" x2="357" y1="258.3281" y2="258.3281"/><text fill="#000000" font-family="sans-serif" font-size="14" font-weight="bold" lengthAdjust="spacing" textLength="140" x="190" y="274.8613">shortwaveRadiation</text><text fill="#000000" font-family="sans-serif" font-size="14" lengthAdjust="spacing" textLength="12" x="340" y="274.8613">   </text><line style="stroke:#000000;stroke-width:1.0;" x1="335" x2="335" y1="258.3281" y2="279.9375"/><line style="stroke:#000000;stroke-width:1.0;" x1="185" x2="357" y1="279.9375" y2="279.9375"/><text fill="#000000" font-family="sans-serif" font-size="14" font-weight="bold" lengthAdjust="spacing" textLength="31" x="190" y="296.4707">fluid</text><text fill="#000000" font-family="sans-serif" font-size="14" lengthAdjust="spacing" textLength="12" x="340" y="296.4707">   </text><line style="stroke:#000000;stroke-width:1.0;" x1="335" x2="335" y1="279.9375" y2="301.5469"/><line style="stroke:#000000;stroke-width:1.0;" x1="185" x2="357" y1="301.5469" y2="301.5469"/><text fill="#000000" font-family="sans-serif" font-size="14" font-weight="bold" lengthAdjust="spacing" textLength="69" x="190" y="318.0801">electricity</text><text fill="#000000" font-family="sans-serif" font-size="14" lengthAdjust="spacing" textLength="12" x="340" y="318.0801">   </text><line style="stroke:#000000;stroke-width:1.0;" x1="335" x2="335" y1="301.5469" y2="323.1563"/><rect fill="none" height="129.6563" rx="5" ry="5" style="stroke:#000000;stroke-width:1.5;" width="172" x="185" y="193.5"/><rect fill="#F1F1F1" height="64.8281" rx="5" ry="5" style="stroke:#F1F1F1;stroke-width:1.5;" width="162" x="431" y="10"/><text fill="#000000" font-family="sans-serif" font-size="14" font-weight="bold" lengthAdjust="spacing" textLength="30" x="436" y="26.5332">side</text><text fill="#000000" font-family="sans-serif" font-size="14" lengthAdjust="spacing" textLength="47" x="541" y="26.5332">exterior</text><line style="stroke:#000000;stroke-width:1.0;" x1="536" x2="536" y1="10" y2="31.6094"/><line style="stroke:#000000;stroke-width:1.0;" x1="431" x2="593" y1="31.6094" y2="31.6094"/><text fill="#000000" font-family="sans-serif" font-size="14" font-weight="bold" lengthAdjust="spacing" textLength="95" x="436" y="48.1426">temperatures</text><text fill="#000000" font-family="sans-serif" font-size="14" lengthAdjust="spacing" textLength="12" x="541" y="48.1426">   </text><line style="stroke:#000000;stroke-width:1.0;" x1="536" x2="536" y1="31.6094" y2="53.2188"/><line style="stroke:#000000;stroke-width:1.0;" x1="431" x2="593" y1="53.2188" y2="53.2188"/><text fill="#000000" font-family="sans-serif" font-size="14" font-weight="bold" lengthAdjust="spacing" textLength="75" x="436" y="69.752">coefficient</text><text fill="#000000" font-family="sans-serif" font-size="14" lengthAdjust="spacing" textLength="16" x="541" y="69.752">18</text><line style="stroke:#000000;stroke-width:1.0;" x1="536" x2="536" y1="53.2188" y2="74.8281"/><rect fill="none" height="64.8281" rx="5" ry="5" style="stroke:#000000;stroke-width:1.5;" width="162" x="431" y="10"/><rect fill="#F1F1F1" height="21.6094" rx="5" ry="5" style="stroke:#F1F1F1;stroke-width:1.5;" width="131" x="692" y="30.5"/><text fill="#000000" font-family="sans-serif" font-size="14" font-weight="bold" lengthAdjust="spacing" textLength="87" x="697" y="47.0332">surrounding</text><text fill="#000000" font-family="sans-serif" font-size="14" lengthAdjust="spacing" textLength="24" x="794" y="47.0332">293</text><line style="stroke:#000000;stroke-width:1.0;" x1="789" x2="789" y1="30.5" y2="52.1094"/><rect fill="none" height="21.6094" rx="5" ry="5" style="stroke:#000000;stroke-width:1.5;" width="131" x="692" y="30.5"/><rect fill="#F1F1F1" height="64.8281" rx="5" ry="5" style="stroke:#F1F1F1;stroke-width:1.5;" width="232" x="396" y="93"/><text fill="#000000" font-family="sans-serif" font-size="14" font-weight="bold" lengthAdjust="spacing" textLength="30" x="401" y="109.5332">side</text><text fill="#000000" font-family="sans-serif" font-size="14" lengthAdjust="spacing" textLength="47" x="576" y="109.5332">exterior</text><line style="stroke:#000000;stroke-width:1.0;" x1="571" x2="571" y1="93" y2="114.6094"/><line style="stroke:#000000;stroke-width:1.0;" x1="396" x2="628" y1="114.6094" y2="114.6094"/><text fill="#000000" font-family="sans-serif" font-size="14" font-weight="bold" lengthAdjust="spacing" textLength="95" x="401" y="131.1426">temperatures</text><text fill="#000000" font-family="sans-serif" font-size="14" lengthAdjust="spacing" textLength="12" x="576" y="131.1426">   </text><line style="stroke:#000000;stroke-width:1.0;" x1="571" x2="571" y1="114.6094" y2="136.2188"/><line style="stroke:#000000;stroke-width:1.0;" x1="396" x2="628" y1="136.2188" y2="136.2188"/><text fill="#000000" font-family="sans-serif" font-size="14" font-weight="bold" lengthAdjust="spacing" textLength="165" x="401" y="152.752">emittanceSurroundings</text><text fill="#000000" font-family="sans-serif" font-size="14" lengthAdjust="spacing" textLength="20" x="576" y="152.752">0.9</text><line style="stroke:#000000;stroke-width:1.0;" x1="571" x2="571" y1="136.2188" y2="157.8281"/><rect fill="none" height="64.8281" rx="5" ry="5" style="stroke:#000000;stroke-width:1.5;" width="232" x="396" y="93"/><rect fill="#F1F1F1" height="21.6094" rx="5" ry="5" style="stroke:#F1F1F1;stroke-width:1.5;" width="131" x="692" y="112.5"/><text fill="#000000" font-family="sans-serif" font-size="14" font-weight="bold" lengthAdjust="spacing" textLength="87" x="697" y="129.0332">surrounding</text><text fill="#000000" font-family="sans-serif" font-size="14" lengthAdjust="spacing" textLength="24" x="794" y="129.0332">293</text><line style="stroke:#000000;stroke-width:1.0;" x1="789" x2="789" y1="112.5" y2="134.1094"/><rect fill="none" height="21.6094" rx="5" ry="5" style="stroke:#000000;stroke-width:1.5;" width="131" x="692" y="112.5"/><rect fill="#F1F1F1" height="43.2188" rx="5" ry="5" style="stroke:#F1F1F1;stroke-width:1.5;" width="94" x="465" y="176"/><text fill="#000000" font-family="sans-serif" font-size="14" font-weight="bold" lengthAdjust="spacing" textLength="30" x="470" y="192.5332">side</text><text fill="#000000" font-family="sans-serif" font-size="14" lengthAdjust="spacing" textLength="44" x="510" y="192.5332">interior</text><line style="stroke:#000000;stroke-width:1.0;" x1="505" x2="505" y1="176" y2="197.6094"/><line style="stroke:#000000;stroke-width:1.0;" x1="465" x2="559" y1="197.6094" y2="197.6094"/><text fill="#000000" font-family="sans-serif" font-size="14" font-weight="bold" lengthAdjust="spacing" textLength="26" x="470" y="214.1426">flux</text><text fill="#000000" font-family="sans-serif" font-size="14" lengthAdjust="spacing" textLength="12" x="510" y="214.1426">   </text><line style="stroke:#000000;stroke-width:1.0;" x1="505" x2="505" y1="197.6094" y2="219.2188"/><rect fill="none" height="43.2188" rx="5" ry="5" style="stroke:#000000;stroke-width:1.5;" width="94" x="465" y="176"/><rect fill="#F1F1F1" height="64.8281" rx="5" ry="5" style="stroke:#F1F1F1;stroke-width:1.5;" width="181" x="667" y="153"/><text fill="#000000" font-family="sans-serif" font-size="14" font-weight="bold" lengthAdjust="spacing" textLength="106" x="672" y="169.5332">uncertainValue</text><text fill="#000000" font-family="sans-serif" font-size="14" lengthAdjust="spacing" textLength="21" x="815" y="169.5332">-60</text><line style="stroke:#000000;stroke-width:1.0;" x1="810" x2="810" y1="153" y2="174.6094"/><line style="stroke:#000000;stroke-width:1.0;" x1="667" x2="848" y1="174.6094" y2="174.6094"/><text fill="#000000" font-family="sans-serif" font-size="14" font-weight="bold" lengthAdjust="spacing" textLength="79" x="672" y="191.1426">uncertainty</text><text fill="#000000" font-family="sans-serif" font-size="14" lengthAdjust="spacing" textLength="8" x="815" y="191.1426">3</text><line style="stroke:#000000;stroke-width:1.0;" x1="810" x2="810" y1="174.6094" y2="196.2188"/><line style="stroke:#000000;stroke-width:1.0;" x1="667" x2="848" y1="196.2188" y2="196.2188"/><text fill="#000000" font-family="sans-serif" font-size="14" font-weight="bold" lengthAdjust="spacing" textLength="133" x="672" y="212.752">confidenceInterval</text><text fill="#000000" font-family="sans-serif" font-size="14" lengthAdjust="spacing" textLength="28" x="815" y="212.752">95.4</text><line style="stroke:#000000;stroke-width:1.0;" x1="810" x2="810" y1="196.2188" y2="217.8281"/><rect fill="none" height="64.8281" rx="5" ry="5" style="stroke:#000000;stroke-width:1.5;" width="181" x="667" y="153"/><rect fill="#F1F1F1" height="64.8281" rx="5" ry="5" style="stroke:#F1F1F1;stroke-width:1.5;" width="130" x="447" y="237"/><text fill="#000000" font-family="sans-serif" font-size="14" font-weight="bold" lengthAdjust="spacing" textLength="30" x="452" y="253.5332">side</text><text fill="#000000" font-family="sans-serif" font-size="14" lengthAdjust="spacing" textLength="47" x="525" y="253.5332">exterior</text><line style="stroke:#000000;stroke-width:1.0;" x1="520" x2="520" y1="237" y2="258.6094"/><line style="stroke:#000000;stroke-width:1.0;" x1="447" x2="577" y1="258.6094" y2="258.6094"/><text fill="#000000" font-family="sans-serif" font-size="14" font-weight="bold" lengthAdjust="spacing" textLength="26" x="452" y="275.1426">flux</text><text fill="#000000" font-family="sans-serif" font-size="14" lengthAdjust="spacing" textLength="12" x="525" y="275.1426">   </text><line style="stroke:#000000;stroke-width:1.0;" x1="520" x2="520" y1="258.6094" y2="280.2188"/><line style="stroke:#000000;stroke-width:1.0;" x1="447" x2="577" y1="280.2188" y2="280.2188"/><text fill="#000000" font-family="sans-serif" font-size="14" font-weight="bold" lengthAdjust="spacing" textLength="63" x="452" y="296.752">direction</text><text fill="#000000" font-family="sans-serif" font-size="14" lengthAdjust="spacing" textLength="12" x="525" y="296.752">   </text><line style="stroke:#000000;stroke-width:1.0;" x1="520" x2="520" y1="280.2188" y2="301.8281"/><rect fill="none" height="64.8281" rx="5" ry="5" style="stroke:#000000;stroke-width:1.5;" width="130" x="447" y="237"/><rect fill="#F1F1F1" height="64.8281" rx="5" ry="5" style="stroke:#F1F1F1;stroke-width:1.5;" width="185" x="665" y="236"/><text fill="#000000" font-family="sans-serif" font-size="14" font-weight="bold" lengthAdjust="spacing" textLength="106" x="670" y="252.5332">uncertainValue</text><text fill="#000000" font-family="sans-serif" font-size="14" lengthAdjust="spacing" textLength="32" x="813" y="252.5332">1000</text><line style="stroke:#000000;stroke-width:1.0;" x1="808" x2="808" y1="236" y2="257.6094"/><line style="stroke:#000000;stroke-width:1.0;" x1="665" x2="850" y1="257.6094" y2="257.6094"/><text fill="#000000" font-family="sans-serif" font-size="14" font-weight="bold" lengthAdjust="spacing" textLength="79" x="670" y="274.1426">uncertainty</text><text fill="#000000" font-family="sans-serif" font-size="14" lengthAdjust="spacing" textLength="16" x="813" y="274.1426">50</text><line style="stroke:#000000;stroke-width:1.0;" x1="808" x2="808" y1="257.6094" y2="279.2188"/><line style="stroke:#000000;stroke-width:1.0;" x1="665" x2="850" y1="279.2188" y2="279.2188"/><text fill="#000000" font-family="sans-serif" font-size="14" font-weight="bold" lengthAdjust="spacing" textLength="133" x="670" y="295.752">confidenceInterval</text><text fill="#000000" font-family="sans-serif" font-size="14" lengthAdjust="spacing" textLength="28" x="813" y="295.752">68.3</text><line style="stroke:#000000;stroke-width:1.0;" x1="808" x2="808" y1="279.2188" y2="300.8281"/><rect fill="none" height="64.8281" rx="5" ry="5" style="stroke:#000000;stroke-width:1.5;" width="185" x="665" y="236"/><rect fill="#F1F1F1" height="43.2188" rx="5" ry="5" style="stroke:#F1F1F1;stroke-width:1.5;" width="90" x="712.5" y="319"/><text fill="#000000" font-family="sans-serif" font-size="14" font-weight="bold" lengthAdjust="spacing" textLength="36" x="717.5" y="335.5332">polar</text><text fill="#000000" font-family="sans-serif" font-size="14" lengthAdjust="spacing" textLength="16" x="781.5" y="335.5332">30</text><line style="stroke:#000000;stroke-width:1.0;" x1="776.5" x2="776.5" y1="319" y2="340.6094"/><line style="stroke:#000000;stroke-width:1.0;" x1="712.5" x2="802.5" y1="340.6094" y2="340.6094"/><text fill="#000000" font-family="sans-serif" font-size="14" font-weight="bold" lengthAdjust="spacing" textLength="54" x="717.5" y="357.1426">azimuth</text><text fill="#000000" font-family="sans-serif" font-size="14" lengthAdjust="spacing" textLength="8" x="781.5" y="357.1426">0</text><line style="stroke:#000000;stroke-width:1.0;" x1="776.5" x2="776.5" y1="340.6094" y2="362.2188"/><rect fill="none" height="43.2188" rx="5" ry="5" style="stroke:#000000;stroke-width:1.5;" width="90" x="712.5" y="319"/><rect fill="#F1F1F1" height="64.8281" rx="5" ry="5" style="stroke:#F1F1F1;stroke-width:1.5;" width="210" x="407" y="320"/><text fill="#000000" font-family="sans-serif" font-size="14" font-weight="bold" lengthAdjust="spacing" textLength="95" x="412" y="336.5332">temperatures</text><text fill="#000000" font-family="sans-serif" font-size="14" lengthAdjust="spacing" textLength="12" x="568" y="336.5332">   </text><line style="stroke:#000000;stroke-width:1.0;" x1="563" x2="563" y1="320" y2="341.6094"/><line style="stroke:#000000;stroke-width:1.0;" x1="407" x2="617" y1="341.6094" y2="341.6094"/><text fill="#000000" font-family="sans-serif" font-size="14" font-weight="bold" lengthAdjust="spacing" textLength="69" x="412" y="358.1426">massFlow</text><text fill="#000000" font-family="sans-serif" font-size="14" lengthAdjust="spacing" textLength="28" x="568" y="358.1426">0.02</text><line style="stroke:#000000;stroke-width:1.0;" x1="563" x2="563" y1="341.6094" y2="363.2188"/><line style="stroke:#000000;stroke-width:1.0;" x1="407" x2="617" y1="363.2188" y2="363.2188"/><text fill="#000000" font-family="sans-serif" font-size="14" font-weight="bold" lengthAdjust="spacing" textLength="146" x="412" y="379.752">specificHeatCapacity</text><text fill="#000000" font-family="sans-serif" font-size="14" lengthAdjust="spacing" textLength="44" x="568" y="379.752">4179.6</text><line style="stroke:#000000;stroke-width:1.0;" x1="563" x2="563" y1="363.2188" y2="384.8281"/><rect fill="none" height="64.8281" rx="5" ry="5" style="stroke:#000000;stroke-width:1.5;" width="210" x="407" y="320"/><rect fill="#F1F1F1" height="43.2188" rx="5" ry="5" style="stroke:#F1F1F1;stroke-width:1.5;" width="85" x="715" y="380"/><text fill="#000000" font-family="sans-serif" font-size="14" font-weight="bold" lengthAdjust="spacing" textLength="31" x="720" y="396.5332">inlet</text><text fill="#000000" font-family="sans-serif" font-size="14" lengthAdjust="spacing" textLength="24" x="771" y="396.5332">293</text><line style="stroke:#000000;stroke-width:1.0;" x1="766" x2="766" y1="380" y2="401.6094"/><line style="stroke:#000000;stroke-width:1.0;" x1="715" x2="800" y1="401.6094" y2="401.6094"/><text fill="#000000" font-family="sans-serif" font-size="14" font-weight="bold" lengthAdjust="spacing" textLength="41" x="720" y="418.1426">outlet</text><text fill="#000000" font-family="sans-serif" font-size="14" lengthAdjust="spacing" textLength="24" x="771" y="418.1426">298</text><line style="stroke:#000000;stroke-width:1.0;" x1="766" x2="766" y1="401.6094" y2="423.2188"/><rect fill="none" height="43.2188" rx="5" ry="5" style="stroke:#000000;stroke-width:1.5;" width="85" x="715" y="380"/><rect fill="#F1F1F1" height="21.6094" rx="5" ry="5" style="stroke:#F1F1F1;stroke-width:1.5;" width="75" x="474.5" y="403.5"/><text fill="#000000" font-family="sans-serif" font-size="14" font-weight="bold" lengthAdjust="spacing" textLength="26" x="479.5" y="420.0332">flux</text><text fill="#000000" font-family="sans-serif" font-size="14" lengthAdjust="spacing" textLength="29" x="515.5" y="420.0332">-200</text><line style="stroke:#000000;stroke-width:1.0;" x1="510.5" x2="510.5" y1="403.5" y2="425.1094"/><rect fill="none" height="21.6094" rx="5" ry="5" style="stroke:#000000;stroke-width:1.5;" width="75" x="474.5" y="403.5"/><rect fill="#F1F1F1" height="64.8281" rx="5" ry="5" style="stroke:#F1F1F1;stroke-width:1.5;" width="114" x="214" y="465"/><text fill="#000000" font-family="sans-serif" font-size="14" font-weight="bold" lengthAdjust="spacing" textLength="31" x="219" y="481.5332">area</text><text fill="#000000" font-family="sans-serif" font-size="14" lengthAdjust="spacing" textLength="12" x="311" y="481.5332">   </text><line style="stroke:#000000;stroke-width:1.0;" x1="306" x2="306" y1="465" y2="486.6094"/><line style="stroke:#000000;stroke-width:1.0;" x1="214" x2="328" y1="486.6094" y2="486.6094"/><text fill="#000000" font-family="sans-serif" font-size="14" font-weight="bold" lengthAdjust="spacing" textLength="48" x="219" y="503.1426">gValue</text><text fill="#000000" font-family="sans-serif" font-size="14" lengthAdjust="spacing" textLength="12" x="311" y="503.1426">   </text><line style="stroke:#000000;stroke-width:1.0;" x1="306" x2="306" y1="486.6094" y2="508.2188"/><line style="stroke:#000000;stroke-width:1.0;" x1="214" x2="328" y1="508.2188" y2="508.2188"/><text fill="#000000" font-family="sans-serif" font-size="14" font-weight="bold" lengthAdjust="spacing" textLength="82" x="219" y="524.752">efficiencies</text><text fill="#000000" font-family="sans-serif" font-size="14" lengthAdjust="spacing" textLength="12" x="311" y="524.752">   </text><line style="stroke:#000000;stroke-width:1.0;" x1="306" x2="306" y1="508.2188" y2="529.8281"/><rect fill="none" height="64.8281" rx="5" ry="5" style="stroke:#000000;stroke-width:1.5;" width="114" x="214" y="465"/><rect fill="#F1F1F1" height="21.6094" rx="5" ry="5" style="stroke:#F1F1F1;stroke-width:1.5;" width="121" x="451.5" y="443.5"/><text fill="#000000" font-family="sans-serif" font-size="14" font-weight="bold" lengthAdjust="spacing" textLength="61" x="456.5" y="460.0332">category</text><text fill="#000000" font-family="sans-serif" font-size="14" lengthAdjust="spacing" textLength="40" x="527.5" y="460.0332">centre</text><line style="stroke:#000000;stroke-width:1.0;" x1="522.5" x2="522.5" y1="443.5" y2="465.1094"/><rect fill="none" height="21.6094" rx="5" ry="5" style="stroke:#000000;stroke-width:1.5;" width="121" x="451.5" y="443.5"/><rect fill="#F1F1F1" height="64.8281" rx="5" ry="5" style="stroke:#F1F1F1;stroke-width:1.5;" width="181" x="421.5" y="484"/><text fill="#000000" font-family="sans-serif" font-size="14" font-weight="bold" lengthAdjust="spacing" textLength="106" x="426.5" y="500.5332">uncertainValue</text><text fill="#000000" font-family="sans-serif" font-size="14" lengthAdjust="spacing" textLength="28" x="569.5" y="500.5332">0.06</text><line style="stroke:#000000;stroke-width:1.0;" x1="564.5" x2="564.5" y1="484" y2="505.6094"/><line style="stroke:#000000;stroke-width:1.0;" x1="421.5" x2="602.5" y1="505.6094" y2="505.6094"/><text fill="#000000" font-family="sans-serif" font-size="14" font-weight="bold" lengthAdjust="spacing" textLength="79" x="426.5" y="522.1426">uncertainty</text><text fill="#000000" font-family="sans-serif" font-size="14" lengthAdjust="spacing" textLength="28" x="569.5" y="522.1426">0.01</text><line style="stroke:#000000;stroke-width:1.0;" x1="564.5" x2="564.5" y1="505.6094" y2="527.2188"/><line style="stroke:#000000;stroke-width:1.0;" x1="421.5" x2="602.5" y1="527.2188" y2="527.2188"/><text fill="#000000" font-family="sans-serif" font-size="14" font-weight="bold" lengthAdjust="spacing" textLength="133" x="426.5" y="543.752">confidenceInterval</text><text fill="#000000" font-family="sans-serif" font-size="14" lengthAdjust="spacing" textLength="28" x="569.5" y="543.752">68.3</text><line style="stroke:#000000;stroke-width:1.0;" x1="564.5" x2="564.5" y1="527.2188" y2="548.8281"/><rect fill="none" height="64.8281" rx="5" ry="5" style="stroke:#000000;stroke-width:1.5;" width="181" x="421.5" y="484"/><rect fill="#F1F1F1" height="43.2188" rx="5" ry="5" style="stroke:#F1F1F1;stroke-width:1.5;" width="131" x="446.5" y="567"/><text fill="#000000" font-family="sans-serif" font-size="14" font-weight="bold" lengthAdjust="spacing" textLength="91" x="451.5" y="583.5332">solarThermal</text><text fill="#000000" font-family="sans-serif" font-size="14" lengthAdjust="spacing" textLength="20" x="552.5" y="583.5332">0.5</text><line style="stroke:#000000;stroke-width:1.0;" x1="547.5" x2="547.5" y1="567" y2="588.6094"/><line style="stroke:#000000;stroke-width:1.0;" x1="446.5" x2="577.5" y1="588.6094" y2="588.6094"/><text fill="#000000" font-family="sans-serif" font-size="14" font-weight="bold" lengthAdjust="spacing" textLength="88" x="451.5" y="605.1426">photovoltaic</text><text fill="#000000" font-family="sans-serif" font-size="14" lengthAdjust="spacing" textLength="20" x="552.5" y="605.1426">0.2</text><line style="stroke:#000000;stroke-width:1.0;" x1="547.5" x2="547.5" y1="588.6094" y2="610.2188"/><rect fill="none" height="43.2188" rx="5" ry="5" style="stroke:#000000;stroke-width:1.5;" width="131" x="446.5" y="567"/><path d="M134,237.5 L147,237.5 C175.4757,237.5 160.4576,201.8984 183,184.5 C185.5118,182.5614 188.1547,180.7376 190.8938,179.0225 " fill="none" style="stroke:#000000;stroke-width:1.0;stroke-dasharray:3.0,3.0;"/><path d="M192.4169,181.6422 L192.8585,177.8802 L189.3707,176.4028 L197.4429,175.2148 L192.4169,181.6422 " fill="#000000" style="stroke:#000000;stroke-width:1.0;"/><ellipse cx="134" cy="237.5" fill="#000000" rx="3" ry="3" style="stroke:#000000;stroke-width:1.0;"/><path d="M581.5,41.5 L594.5,41.5 C623.8976,41.5 656.2867,41.5 684.3612,41.5 " fill="none" style="stroke:#000000;stroke-width:1.0;stroke-dasharray:3.0,3.0;"/><path d="M684.3612,44.6192 L686.7006,41.5 L684.3612,38.3808 L692.1592,41.5 L684.3612,44.6192 " fill="#000000" style="stroke:#000000;stroke-width:1.0;"/><ellipse cx="581.5" cy="41.5" fill="#000000" rx="3" ry="3" style="stroke:#000000;stroke-width:1.0;"/><path d="M345.5,203.5 L358.5,203.5 C414.3768,203.5 357.2513,123.7587 396,83.5 C404.0493,75.1371 413.9126,68.4765 424.4514,63.1726 " fill="none" style="stroke:#000000;stroke-width:1.0;stroke-dasharray:3.0,3.0;"/><path d="M425.769,65.9769 L426.5547,62.1845 L423.1339,60.3683 L431.4622,59.8789 L425.769,65.9769 " fill="#000000" style="stroke:#000000;stroke-width:1.0;"/><ellipse cx="345.5" cy="203.5" fill="#000000" rx="3" ry="3" style="stroke:#000000;stroke-width:1.0;"/><path d="M616,124.5 L629,124.5 C646.9867,124.5 666.3946,124.4 684.5272,124.2633 " fill="none" style="stroke:#000000;stroke-width:1.0;stroke-dasharray:3.0,3.0;"/><path d="M684.5515,127.3374 L686.8328,124.2451 L684.5029,121.1893 L692.2124,124.2027 L684.5515,127.3374 " fill="#000000" style="stroke:#000000;stroke-width:1.0;"/><ellipse cx="616" cy="124.5" fill="#000000" rx="3" ry="3" style="stroke:#000000;stroke-width:1.0;"/><path d="M345.5,225.5 L358.5,225.5 C389.5706,225.5 371.7015,185.864 396,166.5 C397.755,165.1014 399.5615,163.7484 401.4122,162.4397 " fill="none" style="stroke:#000000;stroke-width:1.0;stroke-dasharray:3.0,3.0;"/><path d="M403.1246,165.0206 L403.3478,161.1554 L399.6998,159.8588 L407.8644,158.1587 L403.1246,165.0206 " fill="#000000" style="stroke:#000000;stroke-width:1.0;"/><ellipse cx="345.5" cy="225.5" fill="#000000" rx="3" ry="3" style="stroke:#000000;stroke-width:1.0;"/><path d="M547.5,208.5 L560.5,208.5 C592.9342,208.5 628.1769,205.3706 659.743,201.4204 " fill="none" style="stroke:#000000;stroke-width:1.0;stroke-dasharray:3.0,3.0;"/><path d="M660.1289,204.4274 L661.9983,201.131 L659.3572,198.4133 L667.2607,200.4557 L660.1289,204.4274 " fill="#000000" style="stroke:#000000;stroke-width:1.0;"/><ellipse cx="547.5" cy="208.5" fill="#000000" rx="3" ry="3" style="stroke:#000000;stroke-width:1.0;"/><path d="M345.5,247.5 L358.5,247.5 C377.3889,247.5 378.4034,234.3664 396,227.5 C415.7664,219.7869 438.203,213.4437 458.0097,208.6089 " fill="none" style="stroke:#000000;stroke-width:1.0;stroke-dasharray:3.0,3.0;"/><path d="M458.7212,211.5894 L460.2451,208.0752 L457.2981,205.6284 L465.461,206.83 L458.7212,211.5894 " fill="#000000" style="stroke:#000000;stroke-width:1.0;"/><ellipse cx="345.5" cy="247.5" fill="#000000" rx="3" ry="3" style="stroke:#000000;stroke-width:1.0;"/><path d="M565.5,268.5 L578.5,268.5 C604.1669,268.5 631.9098,268.5 657.6987,268.5 " fill="none" style="stroke:#000000;stroke-width:1.0;stroke-dasharray:3.0,3.0;"/><path d="M657.6987,271.5304 L659.9716,268.5 L657.6987,265.4696 L665.2748,268.5 L657.6987,271.5304 " fill="#000000" style="stroke:#000000;stroke-width:1.0;"/><ellipse cx="565.5" cy="268.5" fill="#000000" rx="3" ry="3" style="stroke:#000000;stroke-width:1.0;"/><path d="M565.5,291.5 L578.5,291.5 C591.2999,291.5 657.304,310.4786 705.3316,324.8132 " fill="none" style="stroke:#000000;stroke-width:1.0;stroke-dasharray:3.0,3.0;"/><path d="M704.4646,327.711 L707.505,325.4635 L706.1987,321.9153 L712.5763,326.9808 L704.4646,327.711 " fill="#000000" style="stroke:#000000;stroke-width:1.0;"/><ellipse cx="565.5" cy="291.5" fill="#000000" rx="3" ry="3" style="stroke:#000000;stroke-width:1.0;"/><path d="M345.5,269.5 L358.5,269.5 C385.0936,269.5 414.2873,269.5 439.98,269.5 " fill="none" style="stroke:#000000;stroke-width:1.0;stroke-dasharray:3.0,3.0;"/><path d="M439.98,272.5001 L442.2302,269.5 L439.98,266.4999 L447.4804,269.5 L439.98,272.5001 " fill="#000000" style="stroke:#000000;stroke-width:1.0;"/><ellipse cx="345.5" cy="269.5" fill="#000000" rx="3" ry="3" style="stroke:#000000;stroke-width:1.0;"/><path d="M605.5,330.5 L618.5,330.5 C646.0529,330.5 641.0743,357.8354 665,371.5 C678.1683,379.0208 693.4883,384.9677 707.8056,389.5156 " fill="none" style="stroke:#000000;stroke-width:1.0;stroke-dasharray:3.0,3.0;"/><path d="M706.9049,392.4672 L710.0192,390.1911 L708.7062,386.564 L715.1845,391.7673 L706.9049,392.4672 " fill="#000000" style="stroke:#000000;stroke-width:1.0;"/><ellipse cx="605.5" cy="330.5" fill="#000000" rx="3" ry="3" style="stroke:#000000;stroke-width:1.0;"/><path d="M345.5,290.5 L358.5,290.5 C377.6021,290.5 378.6036,303.61 396,311.5 C400.0966,313.358 404.3043,315.1887 408.5768,316.984 " fill="none" style="stroke:#000000;stroke-width:1.0;stroke-dasharray:3.0,3.0;"/><path d="M407.3822,319.8813 L410.7498,317.88 L409.7714,314.0867 L415.8201,319.9705 L407.3822,319.8813 " fill="#000000" style="stroke:#000000;stroke-width:1.0;"/><ellipse cx="345.5" cy="290.5" fill="#000000" rx="3" ry="3" style="stroke:#000000;stroke-width:1.0;"/><path d="M345.5,312.5 L358.5,312.5 C398.5746,312.5 364.2596,370.0352 396,394.5 C416.0565,409.9591 443.9037,415.1151 467.2293,416.3316 " fill="none" style="stroke:#000000;stroke-width:1.0;stroke-dasharray:3.0,3.0;"/><path d="M467.121,419.4193 L469.5451,416.4128 L467.3376,413.2439 L474.9486,416.6023 L467.121,419.4193 " fill="#000000" style="stroke:#000000;stroke-width:1.0;"/><ellipse cx="345.5" cy="312.5" fill="#000000" rx="3" ry="3" style="stroke:#000000;stroke-width:1.0;"/><path d="M134,258.5 L147,258.5 C157.0069,258.5 167.4699,258.5 177.8901,258.5 " fill="none" style="stroke:#000000;stroke-width:1.0;stroke-dasharray:3.0,3.0;"/><path d="M177.8901,261.5291 L180.1619,258.5 L177.8901,255.4709 L185.4629,258.5 L177.8901,261.5291 " fill="#000000" style="stroke:#000000;stroke-width:1.0;"/><ellipse cx="134" cy="258.5" fill="#000000" rx="3" ry="3" style="stroke:#000000;stroke-width:1.0;"/><path d="M316.5,475.5 L329.5,475.5 C367.6459,475.5 409.9943,470.8911 444.2359,465.9917 " fill="none" style="stroke:#000000;stroke-width:1.0;stroke-dasharray:3.0,3.0;"/><path d="M444.6818,469.0416 L446.5233,465.6573 L443.79,462.9418 L451.8606,464.877 L444.6818,469.0416 " fill="#000000" style="stroke:#000000;stroke-width:1.0;"/><ellipse cx="316.5" cy="475.5" fill="#000000" rx="3" ry="3" style="stroke:#000000;stroke-width:1.0;"/><path d="M316.5,496.5 L329.5,496.5 C357.1029,496.5 386.9205,498.8012 414.2744,501.8424 " fill="none" style="stroke:#000000;stroke-width:1.0;stroke-dasharray:3.0,3.0;"/><path d="M413.924,504.9008 L416.5682,502.1052 L414.6248,498.784 L421.9204,502.7185 L413.924,504.9008 " fill="#000000" style="stroke:#000000;stroke-width:1.0;"/><ellipse cx="316.5" cy="496.5" fill="#000000" rx="3" ry="3" style="stroke:#000000;stroke-width:1.0;"/><path d="M316.5,519.5 L329.5,519.5 C363.7633,519.5 364.3392,545.4017 396,558.5 C409.6938,564.1652 424.7527,569.0068 439.3446,573.0426 " fill="none" style="stroke:#000000;stroke-width:1.0;stroke-dasharray:3.0,3.0;"/><path d="M438.5298,576.074 L441.6181,573.6538 L440.1595,570.0113 L446.923,575.0798 L438.5298,576.074 " fill="#000000" style="stroke:#000000;stroke-width:1.0;"/><ellipse cx="316.5" cy="519.5" fill="#000000" rx="3" ry="3" style="stroke:#000000;stroke-width:1.0;"/><path d="M135.5,280.5 L135.5,293.5 C135.5,360.0875 186.139,421.6322 225.3886,459.3339 " fill="none" style="stroke:#000000;stroke-width:1.0;stroke-dasharray:3.0,3.0;"/><path d="M223.2337,461.6142 L227.0989,460.9501 L227.5435,457.0535 L231.0895,464.7212 L223.2337,461.6142 " fill="#000000" style="stroke:#000000;stroke-width:1.0;"/><ellipse cx="135.5" cy="280.5" fill="#000000" rx="3" ry="3" style="stroke:#000000;stroke-width:1.0;"/><!--MD5=[5caa90cfd4f8d49f72da18483704a9d7]
@startjson semiTransparentBuildingIntegratedPhotovoltaicThermalCalorimetric
{
  "characteristics": {
    "conditions": "stationary",
    "primeSurface": "interior"
  }
  ,
  "fluxes": {
    "convection":
    {
      "side": "exterior",
      "temperatures": {
        "surrounding": 293
      }
      ,
      "coefficient": 18
    }
    ,
    "longwaveRadiation":
    {
      "side": "exterior",
      "temperatures": {
        "surrounding": 293
      }
      ,
      "emittanceSurroundings": 0.9
    }
    ,
    "mixed":
    {
      "side": "interior",
      "flux": {
        "uncertainValue": -60,
        "uncertainty": 3,
        "confidenceInterval": 95.4
      }
    }
    ,
    "shortwaveRadiation":
    {
      "side": "exterior",
      "flux": {
        "uncertainValue": 1000,
        "uncertainty": 50,
        "confidenceInterval": 68.3
      }
      ,
      "direction": {
        "polar": 30,
        "azimuth": 0
      }
    }
    ,
    "fluid":
    {
      "temperatures": {
        "inlet": 293,
        "outlet": 298
      }
      ,
      "massFlow": 0.02,
      "specificHeatCapacity": 4179.6
    }
    ,
    "electricity":
    {
      "flux": -200
    }
  }
  ,
  "results":
  {
    "area": {
      "category": "centre"
    }
    ,
    "gValue": {
      "uncertainValue": 0.06,
      "uncertainty": 0.01,
      "confidenceInterval": 68.3
    }
    ,
    "efficiencies": {
      "solarThermal": 0.5,
      "photovoltaic": 0.2
    }
  }
}
@endjson

PlantUML version 1.2022.7(Mon Aug 22 19:01:30 CEST 2022)
(GPL source distribution)
Java Runtime: OpenJDK Runtime Environment
JVM: OpenJDK 64-Bit Server VM
Default Encoding: UTF-8
Language: en
Country: US
--></g></svg>