<?xml version="1.0" encoding="UTF-8" standalone="no"?><svg xmlns="http://www.w3.org/2000/svg" xmlns:xlink="http://www.w3.org/1999/xlink" contentStyleType="text/css" height="622px" preserveAspectRatio="none" style="width:868px;height:622px;background:#FFFFFF;" version="1.1" viewBox="0 0 868 622" width="868px" zoomAndPan="magnify"><defs/><g><rect fill="#F1F1F1" height="64.8281" rx="5" ry="5" style="stroke:#F1F1F1;stroke-width:1.5;" width="136" x="10" y="227"/><text fill="#000000" font-family="sans-serif" font-size="14" font-weight="bold" lengthAdjust="spacing" textLength="104" x="15" y="243.5332">characteristics</text><text fill="#000000" font-family="sans-serif" font-size="14" lengthAdjust="spacing" textLength="12" x="129" y="243.5332">   </text><line style="stroke:#000000;stroke-width:1.0;" x1="124" x2="124" y1="227" y2="248.6094"/><line style="stroke:#000000;stroke-width:1.0;" x1="10" x2="146" y1="248.6094" y2="248.6094"/><text fill="#000000" font-family="sans-serif" font-size="14" font-weight="bold" lengthAdjust="spacing" textLength="43" x="15" y="265.1426">fluxes</text><text fill="#000000" font-family="sans-serif" font-size="14" lengthAdjust="spacing" textLength="12" x="129" y="265.1426">   </text><line style="stroke:#000000;stroke-width:1.0;" x1="124" x2="124" y1="248.6094" y2="270.2188"/><line style="stroke:#000000;stroke-width:1.0;" x1="10" x2="146" y1="270.2188" y2="270.2188"/><text fill="#000000" font-family="sans-serif" font-size="14" font-weight="bold" lengthAdjust="spacing" textLength="49" x="15" y="286.752">results</text><text fill="#000000" font-family="sans-serif" font-size="14" lengthAdjust="spacing" textLength="12" x="129" y="286.752">   </text><line style="stroke:#000000;stroke-width:1.0;" x1="124" x2="124" y1="270.2188" y2="291.8281"/><rect fill="none" height="64.8281" rx="5" ry="5" style="stroke:#000000;stroke-width:1.5;" width="136" x="10" y="227"/><rect fill="#F1F1F1" height="64.8281" rx="5" ry="5" style="stroke:#F1F1F1;stroke-width:1.5;" width="182" x="183" y="110"/><text fill="#000000" font-family="sans-serif" font-size="14" font-weight="bold" lengthAdjust="spacing" textLength="74" x="188" y="126.5332">conditions</text><text fill="#000000" font-family="sans-serif" font-size="14" lengthAdjust="spacing" textLength="62" x="298" y="126.5332">stationary</text><line style="stroke:#000000;stroke-width:1.0;" x1="293" x2="293" y1="110" y2="131.6094"/><line style="stroke:#000000;stroke-width:1.0;" x1="183" x2="365" y1="131.6094" y2="131.6094"/><text fill="#000000" font-family="sans-serif" font-size="14" font-weight="bold" lengthAdjust="spacing" textLength="94" x="188" y="148.1426">primeSurface</text><text fill="#000000" font-family="sans-serif" font-size="14" lengthAdjust="spacing" textLength="44" x="298" y="148.1426">interior</text><line style="stroke:#000000;stroke-width:1.0;" x1="293" x2="293" y1="131.6094" y2="153.2188"/><line style="stroke:#000000;stroke-width:1.0;" x1="183" x2="365" y1="153.2188" y2="153.2188"/><text fill="#000000" font-family="sans-serif" font-size="14" font-weight="bold" lengthAdjust="spacing" textLength="100" x="188" y="169.752">componentTilt</text><text fill="#000000" font-family="sans-serif" font-size="14" lengthAdjust="spacing" textLength="16" x="298" y="169.752">90</text><line style="stroke:#000000;stroke-width:1.0;" x1="293" x2="293" y1="153.2188" y2="174.8281"/><rect fill="none" height="64.8281" rx="5" ry="5" style="stroke:#000000;stroke-width:1.5;" width="182" x="183" y="110"/><rect fill="#F1F1F1" height="129.6563" rx="5" ry="5" style="stroke:#F1F1F1;stroke-width:1.5;" width="172" x="188" y="193.5"/><text fill="#000000" font-family="sans-serif" font-size="14" font-weight="bold" lengthAdjust="spacing" textLength="79" x="193" y="210.0332">convection</text><text fill="#000000" font-family="sans-serif" font-size="14" lengthAdjust="spacing" textLength="12" x="343" y="210.0332">   </text><line style="stroke:#000000;stroke-width:1.0;" x1="338" x2="338" y1="193.5" y2="215.1094"/><line style="stroke:#000000;stroke-width:1.0;" x1="188" x2="360" y1="215.1094" y2="215.1094"/><text fill="#000000" font-family="sans-serif" font-size="14" font-weight="bold" lengthAdjust="spacing" textLength="134" x="193" y="231.6426">longwaveRadiation</text><text fill="#000000" font-family="sans-serif" font-size="14" lengthAdjust="spacing" textLength="12" x="343" y="231.6426">   </text><line style="stroke:#000000;stroke-width:1.0;" x1="338" x2="338" y1="215.1094" y2="236.7188"/><line style="stroke:#000000;stroke-width:1.0;" x1="188" x2="360" y1="236.7188" y2="236.7188"/><text fill="#000000" font-family="sans-serif" font-size="14" font-weight="bold" lengthAdjust="spacing" textLength="42" x="193" y="253.252">mixed</text><text fill="#000000" font-family="sans-serif" font-size="14" lengthAdjust="spacing" textLength="12" x="343" y="253.252">   </text><line style="stroke:#000000;stroke-width:1.0;" x1="338" x2="338" y1="236.7188" y2="258.3281"/><line style="stroke:#000000;stroke-width:1.0;" x1="188" x2="360" y1="258.3281" y2="258.3281"/><text fill="#000000" font-family="sans-serif" font-size="14" font-weight="bold" lengthAdjust="spacing" textLength="140" x="193" y="274.8613">shortwaveRadiation</text><text fill="#000000" font-family="sans-serif" font-size="14" lengthAdjust="spacing" textLength="12" x="343" y="274.8613">   </text><line style="stroke:#000000;stroke-width:1.0;" x1="338" x2="338" y1="258.3281" y2="279.9375"/><line style="stroke:#000000;stroke-width:1.0;" x1="188" x2="360" y1="279.9375" y2="279.9375"/><text fill="#000000" font-family="sans-serif" font-size="14" font-weight="bold" lengthAdjust="spacing" textLength="31" x="193" y="296.4707">fluid</text><text fill="#000000" font-family="sans-serif" font-size="14" lengthAdjust="spacing" textLength="12" x="343" y="296.4707">   </text><line style="stroke:#000000;stroke-width:1.0;" x1="338" x2="338" y1="279.9375" y2="301.5469"/><line style="stroke:#000000;stroke-width:1.0;" x1="188" x2="360" y1="301.5469" y2="301.5469"/><text fill="#000000" font-family="sans-serif" font-size="14" font-weight="bold" lengthAdjust="spacing" textLength="69" x="193" y="318.0801">electricity</text><text fill="#000000" font-family="sans-serif" font-size="14" lengthAdjust="spacing" textLength="12" x="343" y="318.0801">   </text><line style="stroke:#000000;stroke-width:1.0;" x1="338" x2="338" y1="301.5469" y2="323.1563"/><rect fill="none" height="129.6563" rx="5" ry="5" style="stroke:#000000;stroke-width:1.5;" width="172" x="188" y="193.5"/><rect fill="#F1F1F1" height="64.8281" rx="5" ry="5" style="stroke:#F1F1F1;stroke-width:1.5;" width="162" x="437" y="10"/><text fill="#000000" font-family="sans-serif" font-size="14" font-weight="bold" lengthAdjust="spacing" textLength="30" x="442" y="26.5332">side</text><text fill="#000000" font-family="sans-serif" font-size="14" lengthAdjust="spacing" textLength="47" x="547" y="26.5332">exterior</text><line style="stroke:#000000;stroke-width:1.0;" x1="542" x2="542" y1="10" y2="31.6094"/><line style="stroke:#000000;stroke-width:1.0;" x1="437" x2="599" y1="31.6094" y2="31.6094"/><text fill="#000000" font-family="sans-serif" font-size="14" font-weight="bold" lengthAdjust="spacing" textLength="95" x="442" y="48.1426">temperatures</text><text fill="#000000" font-family="sans-serif" font-size="14" lengthAdjust="spacing" textLength="12" x="547" y="48.1426">   </text><line style="stroke:#000000;stroke-width:1.0;" x1="542" x2="542" y1="31.6094" y2="53.2188"/><line style="stroke:#000000;stroke-width:1.0;" x1="437" x2="599" y1="53.2188" y2="53.2188"/><text fill="#000000" font-family="sans-serif" font-size="14" font-weight="bold" lengthAdjust="spacing" textLength="75" x="442" y="69.752">coefficient</text><text fill="#000000" font-family="sans-serif" font-size="14" lengthAdjust="spacing" textLength="16" x="547" y="69.752">18</text><line style="stroke:#000000;stroke-width:1.0;" x1="542" x2="542" y1="53.2188" y2="74.8281"/><rect fill="none" height="64.8281" rx="5" ry="5" style="stroke:#000000;stroke-width:1.5;" width="162" x="437" y="10"/><rect fill="#F1F1F1" height="21.6094" rx="5" ry="5" style="stroke:#F1F1F1;stroke-width:1.5;" width="131" x="698" y="30.5"/><text fill="#000000" font-family="sans-serif" font-size="14" font-weight="bold" lengthAdjust="spacing" textLength="87" x="703" y="47.0332">surrounding</text><text fill="#000000" font-family="sans-serif" font-size="14" lengthAdjust="spacing" textLength="24" x="800" y="47.0332">293</text><line style="stroke:#000000;stroke-width:1.0;" x1="795" x2="795" y1="30.5" y2="52.1094"/><rect fill="none" height="21.6094" rx="5" ry="5" style="stroke:#000000;stroke-width:1.5;" width="131" x="698" y="30.5"/><rect fill="#F1F1F1" height="64.8281" rx="5" ry="5" style="stroke:#F1F1F1;stroke-width:1.5;" width="232" x="402" y="93"/><text fill="#000000" font-family="sans-serif" font-size="14" font-weight="bold" lengthAdjust="spacing" textLength="30" x="407" y="109.5332">side</text><text fill="#000000" font-family="sans-serif" font-size="14" lengthAdjust="spacing" textLength="47" x="582" y="109.5332">exterior</text><line style="stroke:#000000;stroke-width:1.0;" x1="577" x2="577" y1="93" y2="114.6094"/><line style="stroke:#000000;stroke-width:1.0;" x1="402" x2="634" y1="114.6094" y2="114.6094"/><text fill="#000000" font-family="sans-serif" font-size="14" font-weight="bold" lengthAdjust="spacing" textLength="95" x="407" y="131.1426">temperatures</text><text fill="#000000" font-family="sans-serif" font-size="14" lengthAdjust="spacing" textLength="12" x="582" y="131.1426">   </text><line style="stroke:#000000;stroke-width:1.0;" x1="577" x2="577" y1="114.6094" y2="136.2188"/><line style="stroke:#000000;stroke-width:1.0;" x1="402" x2="634" y1="136.2188" y2="136.2188"/><text fill="#000000" font-family="sans-serif" font-size="14" font-weight="bold" lengthAdjust="spacing" textLength="165" x="407" y="152.752">emittanceSurroundings</text><text fill="#000000" font-family="sans-serif" font-size="14" lengthAdjust="spacing" textLength="20" x="582" y="152.752">0.9</text><line style="stroke:#000000;stroke-width:1.0;" x1="577" x2="577" y1="136.2188" y2="157.8281"/><rect fill="none" height="64.8281" rx="5" ry="5" style="stroke:#000000;stroke-width:1.5;" width="232" x="402" y="93"/><rect fill="#F1F1F1" height="21.6094" rx="5" ry="5" style="stroke:#F1F1F1;stroke-width:1.5;" width="131" x="698" y="112.5"/><text fill="#000000" font-family="sans-serif" font-size="14" font-weight="bold" lengthAdjust="spacing" textLength="87" x="703" y="129.0332">surrounding</text><text fill="#000000" font-family="sans-serif" font-size="14" lengthAdjust="spacing" textLength="24" x="800" y="129.0332">293</text><line style="stroke:#000000;stroke-width:1.0;" x1="795" x2="795" y1="112.5" y2="134.1094"/><rect fill="none" height="21.6094" rx="5" ry="5" style="stroke:#000000;stroke-width:1.5;" width="131" x="698" y="112.5"/><rect fill="#F1F1F1" height="43.2188" rx="5" ry="5" style="stroke:#F1F1F1;stroke-width:1.5;" width="94" x="471" y="176"/><text fill="#000000" font-family="sans-serif" font-size="14" font-weight="bold" lengthAdjust="spacing" textLength="30" x="476" y="192.5332">side</text><text fill="#000000" font-family="sans-serif" font-size="14" lengthAdjust="spacing" textLength="44" x="516" y="192.5332">interior</text><line style="stroke:#000000;stroke-width:1.0;" x1="511" x2="511" y1="176" y2="197.6094"/><line style="stroke:#000000;stroke-width:1.0;" x1="471" x2="565" y1="197.6094" y2="197.6094"/><text fill="#000000" font-family="sans-serif" font-size="14" font-weight="bold" lengthAdjust="spacing" textLength="26" x="476" y="214.1426">flux</text><text fill="#000000" font-family="sans-serif" font-size="14" lengthAdjust="spacing" textLength="12" x="516" y="214.1426">   </text><line style="stroke:#000000;stroke-width:1.0;" x1="511" x2="511" y1="197.6094" y2="219.2188"/><rect fill="none" height="43.2188" rx="5" ry="5" style="stroke:#000000;stroke-width:1.5;" width="94" x="471" y="176"/><rect fill="#F1F1F1" height="64.8281" rx="5" ry="5" style="stroke:#F1F1F1;stroke-width:1.5;" width="181" x="673" y="153"/><text fill="#000000" font-family="sans-serif" font-size="14" font-weight="bold" lengthAdjust="spacing" textLength="106" x="678" y="169.5332">uncertainValue</text><text fill="#000000" font-family="sans-serif" font-size="14" lengthAdjust="spacing" textLength="21" x="821" y="169.5332">-60</text><line style="stroke:#000000;stroke-width:1.0;" x1="816" x2="816" y1="153" y2="174.6094"/><line style="stroke:#000000;stroke-width:1.0;" x1="673" x2="854" y1="174.6094" y2="174.6094"/><text fill="#000000" font-family="sans-serif" font-size="14" font-weight="bold" lengthAdjust="spacing" textLength="79" x="678" y="191.1426">uncertainty</text><text fill="#000000" font-family="sans-serif" font-size="14" lengthAdjust="spacing" textLength="8" x="821" y="191.1426">3</text><line style="stroke:#000000;stroke-width:1.0;" x1="816" x2="816" y1="174.6094" y2="196.2188"/><line style="stroke:#000000;stroke-width:1.0;" x1="673" x2="854" y1="196.2188" y2="196.2188"/><text fill="#000000" font-family="sans-serif" font-size="14" font-weight="bold" lengthAdjust="spacing" textLength="133" x="678" y="212.752">confidenceInterval</text><text fill="#000000" font-family="sans-serif" font-size="14" lengthAdjust="spacing" textLength="28" x="821" y="212.752">95.4</text><line style="stroke:#000000;stroke-width:1.0;" x1="816" x2="816" y1="196.2188" y2="217.8281"/><rect fill="none" height="64.8281" rx="5" ry="5" style="stroke:#000000;stroke-width:1.5;" width="181" x="673" y="153"/><rect fill="#F1F1F1" height="64.8281" rx="5" ry="5" style="stroke:#F1F1F1;stroke-width:1.5;" width="130" x="453" y="237"/><text fill="#000000" font-family="sans-serif" font-size="14" font-weight="bold" lengthAdjust="spacing" textLength="30" x="458" y="253.5332">side</text><text fill="#000000" font-family="sans-serif" font-size="14" lengthAdjust="spacing" textLength="47" x="531" y="253.5332">exterior</text><line style="stroke:#000000;stroke-width:1.0;" x1="526" x2="526" y1="237" y2="258.6094"/><line style="stroke:#000000;stroke-width:1.0;" x1="453" x2="583" y1="258.6094" y2="258.6094"/><text fill="#000000" font-family="sans-serif" font-size="14" font-weight="bold" lengthAdjust="spacing" textLength="26" x="458" y="275.1426">flux</text><text fill="#000000" font-family="sans-serif" font-size="14" lengthAdjust="spacing" textLength="12" x="531" y="275.1426">   </text><line style="stroke:#000000;stroke-width:1.0;" x1="526" x2="526" y1="258.6094" y2="280.2188"/><line style="stroke:#000000;stroke-width:1.0;" x1="453" x2="583" y1="280.2188" y2="280.2188"/><text fill="#000000" font-family="sans-serif" font-size="14" font-weight="bold" lengthAdjust="spacing" textLength="63" x="458" y="296.752">direction</text><text fill="#000000" font-family="sans-serif" font-size="14" lengthAdjust="spacing" textLength="12" x="531" y="296.752">   </text><line style="stroke:#000000;stroke-width:1.0;" x1="526" x2="526" y1="280.2188" y2="301.8281"/><rect fill="none" height="64.8281" rx="5" ry="5" style="stroke:#000000;stroke-width:1.5;" width="130" x="453" y="237"/><rect fill="#F1F1F1" height="64.8281" rx="5" ry="5" style="stroke:#F1F1F1;stroke-width:1.5;" width="185" x="671" y="236"/><text fill="#000000" font-family="sans-serif" font-size="14" font-weight="bold" lengthAdjust="spacing" textLength="106" x="676" y="252.5332">uncertainValue</text><text fill="#000000" font-family="sans-serif" font-size="14" lengthAdjust="spacing" textLength="32" x="819" y="252.5332">1000</text><line style="stroke:#000000;stroke-width:1.0;" x1="814" x2="814" y1="236" y2="257.6094"/><line style="stroke:#000000;stroke-width:1.0;" x1="671" x2="856" y1="257.6094" y2="257.6094"/><text fill="#000000" font-family="sans-serif" font-size="14" font-weight="bold" lengthAdjust="spacing" textLength="79" x="676" y="274.1426">uncertainty</text><text fill="#000000" font-family="sans-serif" font-size="14" lengthAdjust="spacing" textLength="16" x="819" y="274.1426">50</text><line style="stroke:#000000;stroke-width:1.0;" x1="814" x2="814" y1="257.6094" y2="279.2188"/><line style="stroke:#000000;stroke-width:1.0;" x1="671" x2="856" y1="279.2188" y2="279.2188"/><text fill="#000000" font-family="sans-serif" font-size="14" font-weight="bold" lengthAdjust="spacing" textLength="133" x="676" y="295.752">confidenceInterval</text><text fill="#000000" font-family="sans-serif" font-size="14" lengthAdjust="spacing" textLength="28" x="819" y="295.752">68.3</text><line style="stroke:#000000;stroke-width:1.0;" x1="814" x2="814" y1="279.2188" y2="300.8281"/><rect fill="none" height="64.8281" rx="5" ry="5" style="stroke:#000000;stroke-width:1.5;" width="185" x="671" y="236"/><rect fill="#F1F1F1" height="43.2188" rx="5" ry="5" style="stroke:#F1F1F1;stroke-width:1.5;" width="90" x="718.5" y="319"/><text fill="#000000" font-family="sans-serif" font-size="14" font-weight="bold" lengthAdjust="spacing" textLength="36" x="723.5" y="335.5332">polar</text><text fill="#000000" font-family="sans-serif" font-size="14" lengthAdjust="spacing" textLength="16" x="787.5" y="335.5332">30</text><line style="stroke:#000000;stroke-width:1.0;" x1="782.5" x2="782.5" y1="319" y2="340.6094"/><line style="stroke:#000000;stroke-width:1.0;" x1="718.5" x2="808.5" y1="340.6094" y2="340.6094"/><text fill="#000000" font-family="sans-serif" font-size="14" font-weight="bold" lengthAdjust="spacing" textLength="54" x="723.5" y="357.1426">azimuth</text><text fill="#000000" font-family="sans-serif" font-size="14" lengthAdjust="spacing" textLength="8" x="787.5" y="357.1426">0</text><line style="stroke:#000000;stroke-width:1.0;" x1="782.5" x2="782.5" y1="340.6094" y2="362.2188"/><rect fill="none" height="43.2188" rx="5" ry="5" style="stroke:#000000;stroke-width:1.5;" width="90" x="718.5" y="319"/><rect fill="#F1F1F1" height="64.8281" rx="5" ry="5" style="stroke:#F1F1F1;stroke-width:1.5;" width="210" x="413" y="320"/><text fill="#000000" font-family="sans-serif" font-size="14" font-weight="bold" lengthAdjust="spacing" textLength="95" x="418" y="336.5332">temperatures</text><text fill="#000000" font-family="sans-serif" font-size="14" lengthAdjust="spacing" textLength="12" x="574" y="336.5332">   </text><line style="stroke:#000000;stroke-width:1.0;" x1="569" x2="569" y1="320" y2="341.6094"/><line style="stroke:#000000;stroke-width:1.0;" x1="413" x2="623" y1="341.6094" y2="341.6094"/><text fill="#000000" font-family="sans-serif" font-size="14" font-weight="bold" lengthAdjust="spacing" textLength="69" x="418" y="358.1426">massFlow</text><text fill="#000000" font-family="sans-serif" font-size="14" lengthAdjust="spacing" textLength="28" x="574" y="358.1426">0.02</text><line style="stroke:#000000;stroke-width:1.0;" x1="569" x2="569" y1="341.6094" y2="363.2188"/><line style="stroke:#000000;stroke-width:1.0;" x1="413" x2="623" y1="363.2188" y2="363.2188"/><text fill="#000000" font-family="sans-serif" font-size="14" font-weight="bold" lengthAdjust="spacing" textLength="146" x="418" y="379.752">specificHeatCapacity</text><text fill="#000000" font-family="sans-serif" font-size="14" lengthAdjust="spacing" textLength="44" x="574" y="379.752">4179.6</text><line style="stroke:#000000;stroke-width:1.0;" x1="569" x2="569" y1="363.2188" y2="384.8281"/><rect fill="none" height="64.8281" rx="5" ry="5" style="stroke:#000000;stroke-width:1.5;" width="210" x="413" y="320"/><rect fill="#F1F1F1" height="43.2188" rx="5" ry="5" style="stroke:#F1F1F1;stroke-width:1.5;" width="85" x="721" y="380"/><text fill="#000000" font-family="sans-serif" font-size="14" font-weight="bold" lengthAdjust="spacing" textLength="31" x="726" y="396.5332">inlet</text><text fill="#000000" font-family="sans-serif" font-size="14" lengthAdjust="spacing" textLength="24" x="777" y="396.5332">293</text><line style="stroke:#000000;stroke-width:1.0;" x1="772" x2="772" y1="380" y2="401.6094"/><line style="stroke:#000000;stroke-width:1.0;" x1="721" x2="806" y1="401.6094" y2="401.6094"/><text fill="#000000" font-family="sans-serif" font-size="14" font-weight="bold" lengthAdjust="spacing" textLength="41" x="726" y="418.1426">outlet</text><text fill="#000000" font-family="sans-serif" font-size="14" lengthAdjust="spacing" textLength="24" x="777" y="418.1426">298</text><line style="stroke:#000000;stroke-width:1.0;" x1="772" x2="772" y1="401.6094" y2="423.2188"/><rect fill="none" height="43.2188" rx="5" ry="5" style="stroke:#000000;stroke-width:1.5;" width="85" x="721" y="380"/><rect fill="#F1F1F1" height="21.6094" rx="5" ry="5" style="stroke:#F1F1F1;stroke-width:1.5;" width="75" x="480.5" y="403.5"/><text fill="#000000" font-family="sans-serif" font-size="14" font-weight="bold" lengthAdjust="spacing" textLength="26" x="485.5" y="420.0332">flux</text><text fill="#000000" font-family="sans-serif" font-size="14" lengthAdjust="spacing" textLength="29" x="521.5" y="420.0332">-200</text><line style="stroke:#000000;stroke-width:1.0;" x1="516.5" x2="516.5" y1="403.5" y2="425.1094"/><rect fill="none" height="21.6094" rx="5" ry="5" style="stroke:#000000;stroke-width:1.5;" width="75" x="480.5" y="403.5"/><rect fill="#F1F1F1" height="64.8281" rx="5" ry="5" style="stroke:#F1F1F1;stroke-width:1.5;" width="114" x="217" y="465"/><text fill="#000000" font-family="sans-serif" font-size="14" font-weight="bold" lengthAdjust="spacing" textLength="31" x="222" y="481.5332">area</text><text fill="#000000" font-family="sans-serif" font-size="14" lengthAdjust="spacing" textLength="12" x="314" y="481.5332">   </text><line style="stroke:#000000;stroke-width:1.0;" x1="309" x2="309" y1="465" y2="486.6094"/><line style="stroke:#000000;stroke-width:1.0;" x1="217" x2="331" y1="486.6094" y2="486.6094"/><text fill="#000000" font-family="sans-serif" font-size="14" font-weight="bold" lengthAdjust="spacing" textLength="48" x="222" y="503.1426">gValue</text><text fill="#000000" font-family="sans-serif" font-size="14" lengthAdjust="spacing" textLength="12" x="314" y="503.1426">   </text><line style="stroke:#000000;stroke-width:1.0;" x1="309" x2="309" y1="486.6094" y2="508.2188"/><line style="stroke:#000000;stroke-width:1.0;" x1="217" x2="331" y1="508.2188" y2="508.2188"/><text fill="#000000" font-family="sans-serif" font-size="14" font-weight="bold" lengthAdjust="spacing" textLength="82" x="222" y="524.752">efficiencies</text><text fill="#000000" font-family="sans-serif" font-size="14" lengthAdjust="spacing" textLength="12" x="314" y="524.752">   </text><line style="stroke:#000000;stroke-width:1.0;" x1="309" x2="309" y1="508.2188" y2="529.8281"/><rect fill="none" height="64.8281" rx="5" ry="5" style="stroke:#000000;stroke-width:1.5;" width="114" x="217" y="465"/><rect fill="#F1F1F1" height="21.6094" rx="5" ry="5" style="stroke:#F1F1F1;stroke-width:1.5;" width="121" x="457.5" y="443.5"/><text fill="#000000" font-family="sans-serif" font-size="14" font-weight="bold" lengthAdjust="spacing" textLength="61" x="462.5" y="460.0332">category</text><text fill="#000000" font-family="sans-serif" font-size="14" lengthAdjust="spacing" textLength="40" x="533.5" y="460.0332">centre</text><line style="stroke:#000000;stroke-width:1.0;" x1="528.5" x2="528.5" y1="443.5" y2="465.1094"/><rect fill="none" height="21.6094" rx="5" ry="5" style="stroke:#000000;stroke-width:1.5;" width="121" x="457.5" y="443.5"/><rect fill="#F1F1F1" height="64.8281" rx="5" ry="5" style="stroke:#F1F1F1;stroke-width:1.5;" width="181" x="427.5" y="484"/><text fill="#000000" font-family="sans-serif" font-size="14" font-weight="bold" lengthAdjust="spacing" textLength="106" x="432.5" y="500.5332">uncertainValue</text><text fill="#000000" font-family="sans-serif" font-size="14" lengthAdjust="spacing" textLength="28" x="575.5" y="500.5332">0.06</text><line style="stroke:#000000;stroke-width:1.0;" x1="570.5" x2="570.5" y1="484" y2="505.6094"/><line style="stroke:#000000;stroke-width:1.0;" x1="427.5" x2="608.5" y1="505.6094" y2="505.6094"/><text fill="#000000" font-family="sans-serif" font-size="14" font-weight="bold" lengthAdjust="spacing" textLength="79" x="432.5" y="522.1426">uncertainty</text><text fill="#000000" font-family="sans-serif" font-size="14" lengthAdjust="spacing" textLength="28" x="575.5" y="522.1426">0.01</text><line style="stroke:#000000;stroke-width:1.0;" x1="570.5" x2="570.5" y1="505.6094" y2="527.2188"/><line style="stroke:#000000;stroke-width:1.0;" x1="427.5" x2="608.5" y1="527.2188" y2="527.2188"/><text fill="#000000" font-family="sans-serif" font-size="14" font-weight="bold" lengthAdjust="spacing" textLength="133" x="432.5" y="543.752">confidenceInterval</text><text fill="#000000" font-family="sans-serif" font-size="14" lengthAdjust="spacing" textLength="28" x="575.5" y="543.752">68.3</text><line style="stroke:#000000;stroke-width:1.0;" x1="570.5" x2="570.5" y1="527.2188" y2="548.8281"/><rect fill="none" height="64.8281" rx="5" ry="5" style="stroke:#000000;stroke-width:1.5;" width="181" x="427.5" y="484"/><rect fill="#F1F1F1" height="43.2188" rx="5" ry="5" style="stroke:#F1F1F1;stroke-width:1.5;" width="131" x="452.5" y="567"/><text fill="#000000" font-family="sans-serif" font-size="14" font-weight="bold" lengthAdjust="spacing" textLength="91" x="457.5" y="583.5332">solarThermal</text><text fill="#000000" font-family="sans-serif" font-size="14" lengthAdjust="spacing" textLength="20" x="558.5" y="583.5332">0.5</text><line style="stroke:#000000;stroke-width:1.0;" x1="553.5" x2="553.5" y1="567" y2="588.6094"/><line style="stroke:#000000;stroke-width:1.0;" x1="452.5" x2="583.5" y1="588.6094" y2="588.6094"/><text fill="#000000" font-family="sans-serif" font-size="14" font-weight="bold" lengthAdjust="spacing" textLength="88" x="457.5" y="605.1426">photovoltaic</text><text fill="#000000" font-family="sans-serif" font-size="14" lengthAdjust="spacing" textLength="20" x="558.5" y="605.1426">0.2</text><line style="stroke:#000000;stroke-width:1.0;" x1="553.5" x2="553.5" y1="588.6094" y2="610.2188"/><rect fill="none" height="43.2188" rx="5" ry="5" style="stroke:#000000;stroke-width:1.5;" width="131" x="452.5" y="567"/><path d="M134,237.5 L147,237.5 C175.4757,237.5 161.3001,202.9385 183,184.5 C184.98,182.8176 187.0386,181.1882 189.1599,179.6113 " fill="none" style="stroke:#000000;stroke-width:1.0;stroke-dasharray:3.0,3.0;"/><path d="M190.9893,182.2257 L191.1207,178.2392 L187.3305,176.9969 L195.6958,175.0378 L190.9893,182.2257 " fill="#000000" style="stroke:#000000;stroke-width:1.0;"/><ellipse cx="134" cy="237.5" fill="#000000" rx="3" ry="3" style="stroke:#000000;stroke-width:1.0;"/><path d="M587.5,41.5 L600.5,41.5 C629.8976,41.5 662.2867,41.5 690.3612,41.5 " fill="none" style="stroke:#000000;stroke-width:1.0;stroke-dasharray:3.0,3.0;"/><path d="M690.3612,44.6192 L692.7006,41.5 L690.3612,38.3808 L698.1592,41.5 L690.3612,44.6192 " fill="#000000" style="stroke:#000000;stroke-width:1.0;"/><ellipse cx="587.5" cy="41.5" fill="#000000" rx="3" ry="3" style="stroke:#000000;stroke-width:1.0;"/><path d="M348.5,203.5 L361.5,203.5 C417.7889,203.5 362.5095,123.6117 402,83.5 C410.0821,75.2908 419.9116,68.7201 430.3879,63.462 " fill="none" style="stroke:#000000;stroke-width:1.0;stroke-dasharray:3.0,3.0;"/><path d="M431.6958,66.2483 L432.4777,62.481 L429.08,60.6756 L437.3539,60.1921 L431.6958,66.2483 " fill="#000000" style="stroke:#000000;stroke-width:1.0;"/><ellipse cx="348.5" cy="203.5" fill="#000000" rx="3" ry="3" style="stroke:#000000;stroke-width:1.0;"/><path d="M622,124.5 L635,124.5 C652.9867,124.5 672.3946,124.4 690.5272,124.2633 " fill="none" style="stroke:#000000;stroke-width:1.0;stroke-dasharray:3.0,3.0;"/><path d="M690.5515,127.3374 L692.8328,124.2451 L690.5029,121.1893 L698.2124,124.2027 L690.5515,127.3374 " fill="#000000" style="stroke:#000000;stroke-width:1.0;"/><ellipse cx="622" cy="124.5" fill="#000000" rx="3" ry="3" style="stroke:#000000;stroke-width:1.0;"/><path d="M348.5,225.5 L361.5,225.5 C393.3057,225.5 376.7797,185.8789 402,166.5 C403.819,165.1023 405.6897,163.7495 407.6045,162.4405 " fill="none" style="stroke:#000000;stroke-width:1.0;stroke-dasharray:3.0,3.0;"/><path d="M409.3182,165.1081 L409.6051,161.1553 L405.8908,159.773 L414.2734,158.1563 L409.3182,165.1081 " fill="#000000" style="stroke:#000000;stroke-width:1.0;"/><ellipse cx="348.5" cy="225.5" fill="#000000" rx="3" ry="3" style="stroke:#000000;stroke-width:1.0;"/><path d="M553.5,208.5 L566.5,208.5 C598.9342,208.5 634.1769,205.3706 665.743,201.4204 " fill="none" style="stroke:#000000;stroke-width:1.0;stroke-dasharray:3.0,3.0;"/><path d="M666.1289,204.4274 L667.9983,201.131 L665.3572,198.4133 L673.2607,200.4557 L666.1289,204.4274 " fill="#000000" style="stroke:#000000;stroke-width:1.0;"/><ellipse cx="553.5" cy="208.5" fill="#000000" rx="3" ry="3" style="stroke:#000000;stroke-width:1.0;"/><path d="M348.5,247.5 L361.5,247.5 C381.5752,247.5 383.1865,234.5045 402,227.5 C421.7985,220.1288 444.1503,213.87 463.88,209.0068 " fill="none" style="stroke:#000000;stroke-width:1.0;stroke-dasharray:3.0,3.0;"/><path d="M464.598,211.9758 L466.1068,208.4684 L463.1621,206.0379 L471.3025,207.2119 L464.598,211.9758 " fill="#000000" style="stroke:#000000;stroke-width:1.0;"/><ellipse cx="348.5" cy="247.5" fill="#000000" rx="3" ry="3" style="stroke:#000000;stroke-width:1.0;"/><path d="M571.5,268.5 L584.5,268.5 C610.1669,268.5 637.9098,268.5 663.6987,268.5 " fill="none" style="stroke:#000000;stroke-width:1.0;stroke-dasharray:3.0,3.0;"/><path d="M663.6987,271.5304 L665.9716,268.5 L663.6987,265.4696 L671.2748,268.5 L663.6987,271.5304 " fill="#000000" style="stroke:#000000;stroke-width:1.0;"/><ellipse cx="571.5" cy="268.5" fill="#000000" rx="3" ry="3" style="stroke:#000000;stroke-width:1.0;"/><path d="M571.5,291.5 L584.5,291.5 C597.2999,291.5 663.304,310.4786 711.3316,324.8132 " fill="none" style="stroke:#000000;stroke-width:1.0;stroke-dasharray:3.0,3.0;"/><path d="M710.4646,327.711 L713.505,325.4635 L712.1987,321.9153 L718.5763,326.9808 L710.4646,327.711 " fill="#000000" style="stroke:#000000;stroke-width:1.0;"/><ellipse cx="571.5" cy="291.5" fill="#000000" rx="3" ry="3" style="stroke:#000000;stroke-width:1.0;"/><path d="M348.5,269.5 L361.5,269.5 C388.9848,269.5 419.1935,269.5 445.6474,269.5 " fill="none" style="stroke:#000000;stroke-width:1.0;stroke-dasharray:3.0,3.0;"/><path d="M445.6474,272.5872 L447.9628,269.5 L445.6474,266.4128 L453.3653,269.5 L445.6474,272.5872 " fill="#000000" style="stroke:#000000;stroke-width:1.0;"/><ellipse cx="348.5" cy="269.5" fill="#000000" rx="3" ry="3" style="stroke:#000000;stroke-width:1.0;"/><path d="M611.5,330.5 L624.5,330.5 C652.0529,330.5 647.0743,357.8354 671,371.5 C684.1683,379.0208 699.4883,384.9677 713.8056,389.5156 " fill="none" style="stroke:#000000;stroke-width:1.0;stroke-dasharray:3.0,3.0;"/><path d="M712.9049,392.4672 L716.0192,390.1911 L714.7062,386.564 L721.1845,391.7673 L712.9049,392.4672 " fill="#000000" style="stroke:#000000;stroke-width:1.0;"/><ellipse cx="611.5" cy="330.5" fill="#000000" rx="3" ry="3" style="stroke:#000000;stroke-width:1.0;"/><path d="M348.5,290.5 L361.5,290.5 C381.7759,290.5 383.4024,303.4229 402,311.5 C406.3547,313.3913 410.8277,315.2643 415.3653,317.108 " fill="none" style="stroke:#000000;stroke-width:1.0;stroke-dasharray:3.0,3.0;"/><path d="M414.2167,319.9784 L417.5181,317.9694 L416.5138,314.2376 L422.5412,319.9793 L414.2167,319.9784 " fill="#000000" style="stroke:#000000;stroke-width:1.0;"/><ellipse cx="348.5" cy="290.5" fill="#000000" rx="3" ry="3" style="stroke:#000000;stroke-width:1.0;"/><path d="M348.5,312.5 L361.5,312.5 C402.1472,312.5 369.4395,370.1687 402,394.5 C422.2116,409.6035 449.9374,414.7685 473.158,416.0791 " fill="none" style="stroke:#000000;stroke-width:1.0;stroke-dasharray:3.0,3.0;"/><path d="M473.0359,419.153 L475.4635,416.1707 L473.2802,413.0052 L480.8428,416.3845 L473.0359,419.153 " fill="#000000" style="stroke:#000000;stroke-width:1.0;"/><ellipse cx="348.5" cy="312.5" fill="#000000" rx="3" ry="3" style="stroke:#000000;stroke-width:1.0;"/><path d="M134,258.5 L147,258.5 C157.8848,258.5 169.2965,258.5 180.623,258.5 " fill="none" style="stroke:#000000;stroke-width:1.0;stroke-dasharray:3.0,3.0;"/><path d="M180.623,261.6281 L182.9691,258.5 L180.623,255.3719 L188.4433,258.5 L180.623,261.6281 " fill="#000000" style="stroke:#000000;stroke-width:1.0;"/><ellipse cx="134" cy="258.5" fill="#000000" rx="3" ry="3" style="stroke:#000000;stroke-width:1.0;"/><path d="M319.5,475.5 L332.5,475.5 C371.567,475.5 414.9801,470.8194 449.9282,465.8777 " fill="none" style="stroke:#000000;stroke-width:1.0;stroke-dasharray:3.0,3.0;"/><path d="M450.3777,468.9892 L452.2618,465.5406 L449.4787,462.7663 L457.7068,464.7539 L450.3777,468.9892 " fill="#000000" style="stroke:#000000;stroke-width:1.0;"/><ellipse cx="319.5" cy="475.5" fill="#000000" rx="3" ry="3" style="stroke:#000000;stroke-width:1.0;"/><path d="M319.5,496.5 L332.5,496.5 C361.1172,496.5 392.081,498.8948 420.3408,502.0269 " fill="none" style="stroke:#000000;stroke-width:1.0;stroke-dasharray:3.0,3.0;"/><path d="M419.9983,505.03 L422.5931,502.2838 L420.6833,499.0239 L427.8485,502.8831 L419.9983,505.03 " fill="#000000" style="stroke:#000000;stroke-width:1.0;"/><ellipse cx="319.5" cy="496.5" fill="#000000" rx="3" ry="3" style="stroke:#000000;stroke-width:1.0;"/><path d="M319.5,519.5 L332.5,519.5 C367.9199,519.5 369.143,545.2718 402,558.5 C415.6653,564.0016 430.65,568.7615 445.1669,572.7672 " fill="none" style="stroke:#000000;stroke-width:1.0;stroke-dasharray:3.0,3.0;"/><path d="M444.3566,575.7829 L447.4287,573.375 L445.9773,569.7515 L452.7062,574.7931 L444.3566,575.7829 " fill="#000000" style="stroke:#000000;stroke-width:1.0;"/><ellipse cx="319.5" cy="519.5" fill="#000000" rx="3" ry="3" style="stroke:#000000;stroke-width:1.0;"/><path d="M135.5,280.5 L135.5,293.5 C135.5,360.5416 187.2643,421.9842 227.3861,459.5385 " fill="none" style="stroke:#000000;stroke-width:1.0;stroke-dasharray:3.0,3.0;"/><path d="M225.24,461.8695 L229.1344,461.1481 L229.5322,457.2074 L233.2137,464.9038 L225.24,461.8695 " fill="#000000" style="stroke:#000000;stroke-width:1.0;"/><ellipse cx="135.5" cy="280.5" fill="#000000" rx="3" ry="3" style="stroke:#000000;stroke-width:1.0;"/><!--MD5=[7236ba1aaa8264e3eda8f999171bf2fb]
@startjson semiTransparentBuildingIntegratedPhotovoltaicThermalCalorimetric
{
  "characteristics": {
    "conditions": "stationary",
    "primeSurface": "interior",
    "componentTilt": 90
  }
  ,
  "fluxes": {
    "convection":
    {
      "side": "exterior",
      "temperatures": {
        "surrounding": 293
      }
      ,
      "coefficient": 18
    }
    ,
    "longwaveRadiation":
    {
      "side": "exterior",
      "temperatures": {
        "surrounding": 293
      }
      ,
      "emittanceSurroundings": 0.9
    }
    ,
    "mixed":
    {
      "side": "interior",
      "flux": {
        "uncertainValue": -60,
        "uncertainty": 3,
        "confidenceInterval": 95.4
      }
    }
    ,
    "shortwaveRadiation":
    {
      "side": "exterior",
      "flux": {
        "uncertainValue": 1000,
        "uncertainty": 50,
        "confidenceInterval": 68.3
      }
      ,
      "direction": {
        "polar": 30,
        "azimuth": 0
      }
    }
    ,
    "fluid":
    {
      "temperatures": {
        "inlet": 293,
        "outlet": 298
      }
      ,
      "massFlow": 0.02,
      "specificHeatCapacity": 4179.6
    }
    ,
    "electricity":
    {
      "flux": -200
    }
  }
  ,
  "results":
  {
    "area": {
      "category": "centre"
    }
    ,
    "gValue": {
      "uncertainValue": 0.06,
      "uncertainty": 0.01,
      "confidenceInterval": 68.3
    }
    ,
    "efficiencies": {
      "solarThermal": 0.5,
      "photovoltaic": 0.2
    }
  }
}
@endjson

PlantUML version 1.2022.7(Mon Aug 22 19:01:30 CEST 2022)
(GPL source distribution)
Java Runtime: OpenJDK Runtime Environment
JVM: OpenJDK 64-Bit Server VM
Default Encoding: UTF-8
Language: en
Country: US
--></g></svg>