<?xml version="1.0" encoding="UTF-8" standalone="no"?><svg xmlns="http://www.w3.org/2000/svg" xmlns:xlink="http://www.w3.org/1999/xlink" contentStyleType="text/css" height="230px" preserveAspectRatio="none" style="width:491px;height:230px;background:#FFFFFF;" version="1.1" viewBox="0 0 491 230" width="491px" zoomAndPan="magnify"><defs/><g><rect fill="#F1F1F1" height="64.8281" rx="5" ry="5" style="stroke:#F1F1F1;stroke-width:1.5;" width="112" x="10" y="114"/><text fill="#000000" font-family="sans-serif" font-size="14" font-weight="bold" lengthAdjust="spacing" textLength="69" x="15" y="130.5332">incidence</text><text fill="#000000" font-family="sans-serif" font-size="14" lengthAdjust="spacing" textLength="12" x="105" y="130.5332">   </text><line style="stroke:#000000;stroke-width:1.0;" x1="100" x2="100" y1="114" y2="135.6094"/><line style="stroke:#000000;stroke-width:1.0;" x1="10" x2="122" y1="135.6094" y2="135.6094"/><text fill="#000000" font-family="sans-serif" font-size="14" font-weight="bold" lengthAdjust="spacing" textLength="80" x="15" y="152.1426">emergence</text><text fill="#000000" font-family="sans-serif" font-size="14" lengthAdjust="spacing" textLength="12" x="105" y="152.1426">   </text><line style="stroke:#000000;stroke-width:1.0;" x1="100" x2="100" y1="135.6094" y2="157.2188"/><line style="stroke:#000000;stroke-width:1.0;" x1="10" x2="122" y1="157.2188" y2="157.2188"/><text fill="#000000" font-family="sans-serif" font-size="14" font-weight="bold" lengthAdjust="spacing" textLength="49" x="15" y="173.752">results</text><text fill="#000000" font-family="sans-serif" font-size="14" lengthAdjust="spacing" textLength="12" x="105" y="173.752">   </text><line style="stroke:#000000;stroke-width:1.0;" x1="100" x2="100" y1="157.2188" y2="178.8281"/><rect fill="none" height="64.8281" rx="5" ry="5" style="stroke:#000000;stroke-width:1.5;" width="112" x="10" y="114"/><rect fill="#F1F1F1" height="64.8281" rx="5" ry="5" style="stroke:#F1F1F1;stroke-width:1.5;" width="122" x="183" y="51"/><text fill="#000000" font-family="sans-serif" font-size="14" font-weight="bold" lengthAdjust="spacing" textLength="63" x="188" y="67.5332">direction</text><text fill="#000000" font-family="sans-serif" font-size="14" lengthAdjust="spacing" textLength="12" x="288" y="67.5332">   </text><line style="stroke:#000000;stroke-width:1.0;" x1="283" x2="283" y1="51" y2="72.6094"/><line style="stroke:#000000;stroke-width:1.0;" x1="183" x2="305" y1="72.6094" y2="72.6094"/><text fill="#000000" font-family="sans-serif" font-size="14" font-weight="bold" lengthAdjust="spacing" textLength="90" x="188" y="89.1426">wavelengths</text><text fill="#000000" font-family="sans-serif" font-size="14" lengthAdjust="spacing" textLength="12" x="288" y="89.1426">   </text><line style="stroke:#000000;stroke-width:1.0;" x1="283" x2="283" y1="72.6094" y2="94.2188"/><line style="stroke:#000000;stroke-width:1.0;" x1="183" x2="305" y1="94.2188" y2="94.2188"/><text fill="#000000" font-family="sans-serif" font-size="14" font-weight="bold" lengthAdjust="spacing" textLength="82" x="188" y="110.752">polarization</text><text fill="#000000" font-family="sans-serif" font-size="14" lengthAdjust="spacing" textLength="12" x="288" y="110.752">   </text><line style="stroke:#000000;stroke-width:1.0;" x1="283" x2="283" y1="94.2188" y2="115.8281"/><rect fill="none" height="64.8281" rx="5" ry="5" style="stroke:#000000;stroke-width:1.5;" width="122" x="183" y="51"/><rect fill="#F1F1F1" height="43.2188" rx="5" ry="5" style="stroke:#F1F1F1;stroke-width:1.5;" width="90" x="377.5" y="10"/><text fill="#000000" font-family="sans-serif" font-size="14" font-weight="bold" lengthAdjust="spacing" textLength="36" x="382.5" y="26.5332">polar</text><text fill="#000000" font-family="sans-serif" font-size="14" lengthAdjust="spacing" textLength="16" x="446.5" y="26.5332">60</text><line style="stroke:#000000;stroke-width:1.0;" x1="441.5" x2="441.5" y1="10" y2="31.6094"/><line style="stroke:#000000;stroke-width:1.0;" x1="377.5" x2="467.5" y1="31.6094" y2="31.6094"/><text fill="#000000" font-family="sans-serif" font-size="14" font-weight="bold" lengthAdjust="spacing" textLength="54" x="382.5" y="48.1426">azimuth</text><text fill="#000000" font-family="sans-serif" font-size="14" lengthAdjust="spacing" textLength="16" x="446.5" y="48.1426">90</text><line style="stroke:#000000;stroke-width:1.0;" x1="441.5" x2="441.5" y1="31.6094" y2="53.2188"/><rect fill="none" height="43.2188" rx="5" ry="5" style="stroke:#000000;stroke-width:1.5;" width="90" x="377.5" y="10"/><rect fill="#F1F1F1" height="21.6094" rx="5" ry="5" style="stroke:#F1F1F1;stroke-width:1.5;" width="113" x="366" y="71.5"/><text fill="#000000" font-family="sans-serif" font-size="14" font-weight="bold" lengthAdjust="spacing" textLength="54" x="371" y="88.0332">integral</text><text fill="#000000" font-family="sans-serif" font-size="14" lengthAdjust="spacing" textLength="39" x="435" y="88.0332">visible</text><line style="stroke:#000000;stroke-width:1.0;" x1="430" x2="430" y1="71.5" y2="93.1094"/><rect fill="none" height="21.6094" rx="5" ry="5" style="stroke:#000000;stroke-width:1.5;" width="113" x="366" y="71.5"/><rect fill="#F1F1F1" height="43.2188" rx="5" ry="5" style="stroke:#F1F1F1;stroke-width:1.5;" width="37" x="404" y="112"/><text fill="#000000" font-family="sans-serif" font-size="14" font-weight="bold" lengthAdjust="spacing" textLength="8" x="409" y="128.5332">s</text><text fill="#000000" font-family="sans-serif" font-size="14" lengthAdjust="spacing" textLength="8" x="428" y="128.5332">1</text><line style="stroke:#000000;stroke-width:1.0;" x1="423" x2="423" y1="112" y2="133.6094"/><line style="stroke:#000000;stroke-width:1.0;" x1="404" x2="441" y1="133.6094" y2="133.6094"/><text fill="#000000" font-family="sans-serif" font-size="14" font-weight="bold" lengthAdjust="spacing" textLength="9" x="409" y="150.1426">p</text><text fill="#000000" font-family="sans-serif" font-size="14" lengthAdjust="spacing" textLength="8" x="428" y="150.1426">0</text><line style="stroke:#000000;stroke-width:1.0;" x1="423" x2="423" y1="133.6094" y2="155.2188"/><rect fill="none" height="43.2188" rx="5" ry="5" style="stroke:#000000;stroke-width:1.5;" width="37" x="404" y="112"/><rect fill="#F1F1F1" height="21.6094" rx="5" ry="5" style="stroke:#F1F1F1;stroke-width:1.5;" width="170" x="159" y="134.5"/><text fill="#000000" font-family="sans-serif" font-size="14" font-weight="bold" lengthAdjust="spacing" textLength="63" x="164" y="151.0332">direction</text><text fill="#000000" font-family="sans-serif" font-size="14" lengthAdjust="spacing" textLength="87" x="237" y="151.0332">hemispherical</text><line style="stroke:#000000;stroke-width:1.0;" x1="232" x2="232" y1="134.5" y2="156.1094"/><rect fill="none" height="21.6094" rx="5" ry="5" style="stroke:#000000;stroke-width:1.5;" width="170" x="159" y="134.5"/><rect fill="#F1F1F1" height="43.2188" rx="5" ry="5" style="stroke:#F1F1F1;stroke-width:1.5;" width="144" x="172" y="175"/><text fill="#000000" font-family="sans-serif" font-size="14" font-weight="bold" lengthAdjust="spacing" textLength="96" x="177" y="191.5332">transmittance</text><text fill="#000000" font-family="sans-serif" font-size="14" lengthAdjust="spacing" textLength="28" x="283" y="191.5332">0.81</text><line style="stroke:#000000;stroke-width:1.0;" x1="278" x2="278" y1="175" y2="196.6094"/><line style="stroke:#000000;stroke-width:1.0;" x1="172" x2="316" y1="196.6094" y2="196.6094"/><text fill="#000000" font-family="sans-serif" font-size="14" font-weight="bold" lengthAdjust="spacing" textLength="80" x="177" y="213.1426">reflectance</text><text fill="#000000" font-family="sans-serif" font-size="14" lengthAdjust="spacing" textLength="28" x="283" y="213.1426">0.08</text><line style="stroke:#000000;stroke-width:1.0;" x1="278" x2="278" y1="196.6094" y2="218.2188"/><rect fill="none" height="43.2188" rx="5" ry="5" style="stroke:#000000;stroke-width:1.5;" width="144" x="172" y="175"/><path d="M293.5,61.5 L306.5,61.5 C327.9017,61.5 350.8384,56.615 370.5863,50.7874 " fill="none" style="stroke:#000000;stroke-width:1.0;stroke-dasharray:3.0,3.0;"/><path d="M371.4948,53.7485 L372.8071,50.106 L369.6777,47.8264 L377.9889,48.516 L371.4948,53.7485 " fill="#000000" style="stroke:#000000;stroke-width:1.0;"/><ellipse cx="293.5" cy="61.5" fill="#000000" rx="3" ry="3" style="stroke:#000000;stroke-width:1.0;"/><path d="M293.5,82.5 L306.5,82.5 C323.4542,82.5 341.8083,82.5 358.7881,82.5 " fill="none" style="stroke:#000000;stroke-width:1.0;stroke-dasharray:3.0,3.0;"/><path d="M358.7881,85.578 L361.0966,82.5 L358.7881,79.422 L366.483,82.5 L358.7881,85.578 " fill="#000000" style="stroke:#000000;stroke-width:1.0;"/><ellipse cx="293.5" cy="82.5" fill="#000000" rx="3" ry="3" style="stroke:#000000;stroke-width:1.0;"/><path d="M293.5,105.5 L306.5,105.5 C338.3843,105.5 373.8612,115.7026 396.9754,123.7904 " fill="none" style="stroke:#000000;stroke-width:1.0;stroke-dasharray:3.0,3.0;"/><path d="M395.9179,126.7272 L399.178,124.5836 L398.033,120.8537 L404.3172,126.4344 L395.9179,126.7272 " fill="#000000" style="stroke:#000000;stroke-width:1.0;"/><ellipse cx="293.5" cy="105.5" fill="#000000" rx="3" ry="3" style="stroke:#000000;stroke-width:1.0;"/><path d="M110,124.5 L123,124.5 C140.6922,124.5 159.1041,120.4898 176.055,114.9778 " fill="none" style="stroke:#000000;stroke-width:1.0;stroke-dasharray:3.0,3.0;"/><path d="M177.0338,117.8454 L178.2057,114.2437 L175.0763,112.1103 L183.224,112.5309 L177.0338,117.8454 " fill="#000000" style="stroke:#000000;stroke-width:1.0;"/><ellipse cx="110" cy="124.5" fill="#000000" rx="3" ry="3" style="stroke:#000000;stroke-width:1.0;"/><path d="M110,145.5 L123,145.5 C132.2441,145.5 141.8871,145.5 151.5158,145.5 " fill="none" style="stroke:#000000;stroke-width:1.0;stroke-dasharray:3.0,3.0;"/><path d="M151.5158,148.5845 L153.8292,145.5 L151.5158,142.4155 L159.227,145.5 L151.5158,148.5845 " fill="#000000" style="stroke:#000000;stroke-width:1.0;"/><ellipse cx="110" cy="145.5" fill="#000000" rx="3" ry="3" style="stroke:#000000;stroke-width:1.0;"/><path d="M110,168.5 L123,168.5 C137.6315,168.5 153.0091,170.4829 167.6996,173.3932 " fill="none" style="stroke:#000000;stroke-width:1.0;stroke-dasharray:3.0,3.0;"/><path d="M167.0592,176.438 L169.9832,173.8735 L168.34,170.3485 L175.3115,174.9941 L167.0592,176.438 " fill="#000000" style="stroke:#000000;stroke-width:1.0;"/><ellipse cx="110" cy="168.5" fill="#000000" rx="3" ry="3" style="stroke:#000000;stroke-width:1.0;"/><!--MD5=[1bf4da11c39cfa206f9490046a29b9ca]
@startjson polarizedVisibleDataPoint
{
  "incidence": {
    "direction": {
      "polar": 60,
      "azimuth": 90
    }
    ,
    "wavelengths": {
      "integral": "visible"
    }
    ,
    "polarization": {
      "s": 1,
      "p": 0
    }
  }
  ,
  "emergence": {
    "direction": "hemispherical"
  }
  ,
  "results": {
    "transmittance": 0.81,
    "reflectance": 0.08
  }
}
@endjson

PlantUML version 1.2022.7(Mon Aug 22 19:01:30 CEST 2022)
(GPL source distribution)
Java Runtime: OpenJDK Runtime Environment
JVM: OpenJDK 64-Bit Server VM
Default Encoding: UTF-8
Language: en
Country: US
--></g></svg>