<?xml version="1.0" encoding="UTF-8" standalone="no"?><svg xmlns="http://www.w3.org/2000/svg" xmlns:xlink="http://www.w3.org/1999/xlink" contentStyleType="text/css" height="433px" preserveAspectRatio="none" style="width:1371px;height:433px;background:#FFFFFF;" version="1.1" viewBox="0 0 1371 433" width="1371px" zoomAndPan="magnify"><defs/><g><rect fill="#F1F1F1" height="21.6094" rx="5" ry="5" style="stroke:#F1F1F1;stroke-width:1.5;" width="101" x="10" y="203"/><text fill="#000000" font-family="sans-serif" font-size="14" font-weight="bold" lengthAdjust="spacing" textLength="69" x="15" y="219.5332">incidence</text><text fill="#000000" font-family="sans-serif" font-size="14" lengthAdjust="spacing" textLength="12" x="94" y="219.5332">   </text><line style="stroke:#000000;stroke-width:1.0;" x1="89" x2="89" y1="203" y2="224.6094"/><rect fill="none" height="21.6094" rx="5" ry="5" style="stroke:#000000;stroke-width:1.5;" width="101" x="10" y="203"/><rect fill="#F1F1F1" height="64.8281" rx="5" ry="5" style="stroke:#F1F1F1;stroke-width:1.5;" width="122" x="148" y="181.5"/><text fill="#000000" font-family="sans-serif" font-size="14" font-weight="bold" lengthAdjust="spacing" textLength="63" x="153" y="198.0332">direction</text><text fill="#000000" font-family="sans-serif" font-size="14" lengthAdjust="spacing" textLength="12" x="253" y="198.0332">   </text><line style="stroke:#000000;stroke-width:1.0;" x1="248" x2="248" y1="181.5" y2="203.1094"/><line style="stroke:#000000;stroke-width:1.0;" x1="148" x2="270" y1="203.1094" y2="203.1094"/><text fill="#000000" font-family="sans-serif" font-size="14" font-weight="bold" lengthAdjust="spacing" textLength="90" x="153" y="219.6426">wavelengths</text><text fill="#000000" font-family="sans-serif" font-size="14" lengthAdjust="spacing" textLength="12" x="253" y="219.6426">   </text><line style="stroke:#000000;stroke-width:1.0;" x1="248" x2="248" y1="203.1094" y2="224.7188"/><line style="stroke:#000000;stroke-width:1.0;" x1="148" x2="270" y1="224.7188" y2="224.7188"/><text fill="#000000" font-family="sans-serif" font-size="14" font-weight="bold" lengthAdjust="spacing" textLength="82" x="153" y="241.252">polarization</text><text fill="#000000" font-family="sans-serif" font-size="14" lengthAdjust="spacing" textLength="12" x="253" y="241.252">   </text><line style="stroke:#000000;stroke-width:1.0;" x1="248" x2="248" y1="224.7188" y2="246.3281"/><rect fill="none" height="64.8281" rx="5" ry="5" style="stroke:#000000;stroke-width:1.5;" width="122" x="148" y="181.5"/><rect fill="#F1F1F1" height="21.6094" rx="5" ry="5" style="stroke:#F1F1F1;stroke-width:1.5;" width="75" x="307" y="127"/><text fill="#000000" font-family="sans-serif" font-size="14" font-weight="bold" lengthAdjust="spacing" textLength="43" x="312" y="143.5332">oneOf</text><text fill="#000000" font-family="sans-serif" font-size="14" lengthAdjust="spacing" textLength="12" x="365" y="143.5332">   </text><line style="stroke:#000000;stroke-width:1.0;" x1="360" x2="360" y1="127" y2="148.6094"/><rect fill="none" height="21.6094" rx="5" ry="5" style="stroke:#000000;stroke-width:1.5;" width="75" x="307" y="127"/><rect fill="#F1F1F1" height="43.2188" rx="5" ry="5" style="stroke:#F1F1F1;stroke-width:1.5;" width="22" x="419" y="80.5"/><text fill="#000000" font-family="sans-serif" font-size="14" lengthAdjust="spacing" textLength="12" x="424" y="97.0332">   </text><line style="stroke:#000000;stroke-width:1.0;" x1="419" x2="441" y1="102.1094" y2="102.1094"/><text fill="#000000" font-family="sans-serif" font-size="14" lengthAdjust="spacing" textLength="12" x="424" y="118.6426">   </text><rect fill="none" height="43.2188" rx="5" ry="5" style="stroke:#000000;stroke-width:1.5;" width="22" x="419" y="80.5"/><rect fill="#F1F1F1" height="43.2188" rx="5" ry="5" style="stroke:#F1F1F1;stroke-width:1.5;" width="86" x="529" y="19.5"/><text fill="#000000" font-family="sans-serif" font-size="14" font-weight="bold" lengthAdjust="spacing" textLength="36" x="534" y="36.0332">polar</text><text fill="#000000" font-family="sans-serif" font-size="14" lengthAdjust="spacing" textLength="12" x="598" y="36.0332">   </text><line style="stroke:#000000;stroke-width:1.0;" x1="593" x2="593" y1="19.5" y2="41.1094"/><line style="stroke:#000000;stroke-width:1.0;" x1="529" x2="615" y1="41.1094" y2="41.1094"/><text fill="#000000" font-family="sans-serif" font-size="14" font-weight="bold" lengthAdjust="spacing" textLength="54" x="534" y="57.6426">azimuth</text><text fill="#000000" font-family="sans-serif" font-size="14" lengthAdjust="spacing" textLength="12" x="598" y="57.6426">   </text><line style="stroke:#000000;stroke-width:1.0;" x1="593" x2="593" y1="41.1094" y2="62.7188"/><rect fill="none" height="43.2188" rx="5" ry="5" style="stroke:#000000;stroke-width:1.5;" width="86" x="529" y="19.5"/><rect fill="#F1F1F1" height="21.6094" rx="5" ry="5" style="stroke:#F1F1F1;stroke-width:1.5;" width="468" x="742" y="10"/><text fill="#000000" font-family="sans-serif" font-size="14" font-weight="bold" lengthAdjust="spacing" textLength="28" x="747" y="26.5332">$ref</text><text fill="#000000" font-family="sans-serif" font-size="14" lengthAdjust="spacing" textLength="420" x="785" y="26.5332">number.json#/$defs/degreeBetweenZeroAndNinetyWithUncertainty</text><line style="stroke:#000000;stroke-width:1.0;" x1="780" x2="780" y1="10" y2="31.6094"/><rect fill="none" height="21.6094" rx="5" ry="5" style="stroke:#000000;stroke-width:1.5;" width="468" x="742" y="10"/><rect fill="#F1F1F1" height="21.6094" rx="5" ry="5" style="stroke:#F1F1F1;stroke-width:1.5;" width="550" x="701" y="50"/><text fill="#000000" font-family="sans-serif" font-size="14" font-weight="bold" lengthAdjust="spacing" textLength="28" x="706" y="66.5332">$ref</text><text fill="#000000" font-family="sans-serif" font-size="14" lengthAdjust="spacing" textLength="502" x="744" y="66.5332">number.json#/$defs/degreeBetweenZeroAndThreeHundredSixtyWithUncertainty</text><line style="stroke:#000000;stroke-width:1.0;" x1="739" x2="739" y1="50" y2="71.6094"/><rect fill="none" height="21.6094" rx="5" ry="5" style="stroke:#000000;stroke-width:1.5;" width="550" x="701" y="50"/><rect fill="#F1F1F1" height="64.8281" rx="5" ry="5" style="stroke:#F1F1F1;stroke-width:1.5;" width="147" x="498.5" y="80.5"/><text fill="#000000" font-family="sans-serif" font-size="14" font-weight="bold" lengthAdjust="spacing" textLength="27" x="503.5" y="97.0332">title</text><text fill="#000000" font-family="sans-serif" font-size="14" lengthAdjust="spacing" textLength="88" x="552.5" y="97.0332">Hemispherical</text><line style="stroke:#000000;stroke-width:1.0;" x1="547.5" x2="547.5" y1="80.5" y2="102.1094"/><line style="stroke:#000000;stroke-width:1.0;" x1="498.5" x2="645.5" y1="102.1094" y2="102.1094"/><text fill="#000000" font-family="sans-serif" font-size="14" font-weight="bold" lengthAdjust="spacing" textLength="30" x="503.5" y="118.6426">type</text><text fill="#000000" font-family="sans-serif" font-size="14" lengthAdjust="spacing" textLength="35" x="552.5" y="118.6426">string</text><line style="stroke:#000000;stroke-width:1.0;" x1="547.5" x2="547.5" y1="102.1094" y2="123.7188"/><line style="stroke:#000000;stroke-width:1.0;" x1="498.5" x2="645.5" y1="123.7188" y2="123.7188"/><text fill="#000000" font-family="sans-serif" font-size="14" font-weight="bold" lengthAdjust="spacing" textLength="39" x="503.5" y="140.252">const</text><text fill="#000000" font-family="sans-serif" font-size="14" lengthAdjust="spacing" textLength="87" x="552.5" y="140.252">hemispherical</text><line style="stroke:#000000;stroke-width:1.0;" x1="547.5" x2="547.5" y1="123.7188" y2="145.3281"/><rect fill="none" height="64.8281" rx="5" ry="5" style="stroke:#000000;stroke-width:1.5;" width="147" x="498.5" y="80.5"/><rect fill="#F1F1F1" height="21.6094" rx="5" ry="5" style="stroke:#F1F1F1;stroke-width:1.5;" width="75" x="307" y="202"/><text fill="#000000" font-family="sans-serif" font-size="14" font-weight="bold" lengthAdjust="spacing" textLength="43" x="312" y="218.5332">oneOf</text><text fill="#000000" font-family="sans-serif" font-size="14" lengthAdjust="spacing" textLength="12" x="365" y="218.5332">   </text><line style="stroke:#000000;stroke-width:1.0;" x1="360" x2="360" y1="202" y2="223.6094"/><rect fill="none" height="21.6094" rx="5" ry="5" style="stroke:#000000;stroke-width:1.5;" width="75" x="307" y="202"/><rect fill="#F1F1F1" height="43.2188" rx="5" ry="5" style="stroke:#F1F1F1;stroke-width:1.5;" width="22" x="419" y="191.5"/><text fill="#000000" font-family="sans-serif" font-size="14" lengthAdjust="spacing" textLength="12" x="424" y="208.0332">   </text><line style="stroke:#000000;stroke-width:1.0;" x1="419" x2="441" y1="213.1094" y2="213.1094"/><text fill="#000000" font-family="sans-serif" font-size="14" lengthAdjust="spacing" textLength="12" x="424" y="229.6426">   </text><rect fill="none" height="43.2188" rx="5" ry="5" style="stroke:#000000;stroke-width:1.5;" width="22" x="419" y="191.5"/><rect fill="#F1F1F1" height="43.2188" rx="5" ry="5" style="stroke:#F1F1F1;stroke-width:1.5;" width="114" x="515" y="163.5"/><text fill="#000000" font-family="sans-serif" font-size="14" font-weight="bold" lengthAdjust="spacing" textLength="82" x="520" y="180.0332">wavelength</text><text fill="#000000" font-family="sans-serif" font-size="14" lengthAdjust="spacing" textLength="12" x="612" y="180.0332">   </text><line style="stroke:#000000;stroke-width:1.0;" x1="607" x2="607" y1="163.5" y2="185.1094"/><line style="stroke:#000000;stroke-width:1.0;" x1="515" x2="629" y1="185.1094" y2="185.1094"/><text fill="#000000" font-family="sans-serif" font-size="14" font-weight="bold" lengthAdjust="spacing" textLength="79" x="520" y="201.6426">uncertainty</text><text fill="#000000" font-family="sans-serif" font-size="14" lengthAdjust="spacing" textLength="12" x="612" y="201.6426">   </text><line style="stroke:#000000;stroke-width:1.0;" x1="607" x2="607" y1="185.1094" y2="206.7188"/><rect fill="none" height="43.2188" rx="5" ry="5" style="stroke:#000000;stroke-width:1.5;" width="114" x="515" y="163.5"/><rect fill="#F1F1F1" height="21.6094" rx="5" ry="5" style="stroke:#F1F1F1;stroke-width:1.5;" width="245" x="853.5" y="142"/><text fill="#000000" font-family="sans-serif" font-size="14" font-weight="bold" lengthAdjust="spacing" textLength="28" x="858.5" y="158.5332">$ref</text><text fill="#000000" font-family="sans-serif" font-size="14" lengthAdjust="spacing" textLength="197" x="896.5" y="158.5332">number.json#/$defs/nanometer</text><line style="stroke:#000000;stroke-width:1.0;" x1="891.5" x2="891.5" y1="142" y2="163.6094"/><rect fill="none" height="21.6094" rx="5" ry="5" style="stroke:#000000;stroke-width:1.5;" width="245" x="853.5" y="142"/><rect fill="#F1F1F1" height="21.6094" rx="5" ry="5" style="stroke:#F1F1F1;stroke-width:1.5;" width="241" x="855.5" y="182"/><text fill="#000000" font-family="sans-serif" font-size="14" font-weight="bold" lengthAdjust="spacing" textLength="28" x="860.5" y="198.5332">$ref</text><text fill="#000000" font-family="sans-serif" font-size="14" lengthAdjust="spacing" textLength="193" x="898.5" y="198.5332">#/$defs/wavelengthUncertainty</text><line style="stroke:#000000;stroke-width:1.0;" x1="893.5" x2="893.5" y1="182" y2="203.6094"/><rect fill="none" height="21.6094" rx="5" ry="5" style="stroke:#000000;stroke-width:1.5;" width="241" x="855.5" y="182"/><rect fill="#F1F1F1" height="21.6094" rx="5" ry="5" style="stroke:#F1F1F1;stroke-width:1.5;" width="86" x="529" y="230"/><text fill="#000000" font-family="sans-serif" font-size="14" font-weight="bold" lengthAdjust="spacing" textLength="54" x="534" y="246.5332">integral</text><text fill="#000000" font-family="sans-serif" font-size="14" lengthAdjust="spacing" textLength="12" x="598" y="246.5332">   </text><line style="stroke:#000000;stroke-width:1.0;" x1="593" x2="593" y1="230" y2="251.6094"/><rect fill="none" height="21.6094" rx="5" ry="5" style="stroke:#000000;stroke-width:1.5;" width="86" x="529" y="230"/><rect fill="#F1F1F1" height="43.2188" rx="5" ry="5" style="stroke:#F1F1F1;stroke-width:1.5;" width="94" x="929" y="222.5"/><text fill="#000000" font-family="sans-serif" font-size="14" font-weight="bold" lengthAdjust="spacing" textLength="30" x="934" y="239.0332">type</text><text fill="#000000" font-family="sans-serif" font-size="14" lengthAdjust="spacing" textLength="35" x="983" y="239.0332">string</text><line style="stroke:#000000;stroke-width:1.0;" x1="978" x2="978" y1="222.5" y2="244.1094"/><line style="stroke:#000000;stroke-width:1.0;" x1="929" x2="1023" y1="244.1094" y2="244.1094"/><text fill="#000000" font-family="sans-serif" font-size="14" font-weight="bold" lengthAdjust="spacing" textLength="39" x="934" y="260.6426">enum</text><text fill="#000000" font-family="sans-serif" font-size="14" lengthAdjust="spacing" textLength="12" x="983" y="260.6426">   </text><line style="stroke:#000000;stroke-width:1.0;" x1="978" x2="978" y1="244.1094" y2="265.7188"/><rect fill="none" height="43.2188" rx="5" ry="5" style="stroke:#000000;stroke-width:1.5;" width="94" x="929" y="222.5"/><rect fill="#F1F1F1" height="108.0469" rx="5" ry="5" style="stroke:#F1F1F1;stroke-width:1.5;" width="71" x="1288" y="201"/><text fill="#000000" font-family="sans-serif" font-size="14" lengthAdjust="spacing" textLength="49" x="1293" y="217.5332">infrared</text><line style="stroke:#000000;stroke-width:1.0;" x1="1288" x2="1359" y1="222.6094" y2="222.6094"/><text fill="#000000" font-family="sans-serif" font-size="14" lengthAdjust="spacing" textLength="31" x="1293" y="239.1426">solar</text><line style="stroke:#000000;stroke-width:1.0;" x1="1288" x2="1359" y1="244.2188" y2="244.2188"/><text fill="#000000" font-family="sans-serif" font-size="14" lengthAdjust="spacing" textLength="61" x="1293" y="260.752">ultraviolet</text><line style="stroke:#000000;stroke-width:1.0;" x1="1288" x2="1359" y1="265.8281" y2="265.8281"/><text fill="#000000" font-family="sans-serif" font-size="14" lengthAdjust="spacing" textLength="39" x="1293" y="282.3613">visible</text><line style="stroke:#000000;stroke-width:1.0;" x1="1288" x2="1359" y1="287.4375" y2="287.4375"/><text fill="#000000" font-family="sans-serif" font-size="14" lengthAdjust="spacing" textLength="33" x="1293" y="303.9707">other</text><rect fill="none" height="108.0469" rx="5" ry="5" style="stroke:#000000;stroke-width:1.5;" width="71" x="1288" y="201"/><rect fill="#F1F1F1" height="21.6094" rx="5" ry="5" style="stroke:#F1F1F1;stroke-width:1.5;" width="75" x="307" y="272"/><text fill="#000000" font-family="sans-serif" font-size="14" font-weight="bold" lengthAdjust="spacing" textLength="43" x="312" y="288.5332">oneOf</text><text fill="#000000" font-family="sans-serif" font-size="14" lengthAdjust="spacing" textLength="12" x="365" y="288.5332">   </text><line style="stroke:#000000;stroke-width:1.0;" x1="360" x2="360" y1="272" y2="293.6094"/><rect fill="none" height="21.6094" rx="5" ry="5" style="stroke:#000000;stroke-width:1.5;" width="75" x="307" y="272"/><rect fill="#F1F1F1" height="43.2188" rx="5" ry="5" style="stroke:#F1F1F1;stroke-width:1.5;" width="22" x="419" y="295.5"/><text fill="#000000" font-family="sans-serif" font-size="14" lengthAdjust="spacing" textLength="12" x="424" y="312.0332">   </text><line style="stroke:#000000;stroke-width:1.0;" x1="419" x2="441" y1="317.1094" y2="317.1094"/><text fill="#000000" font-family="sans-serif" font-size="14" lengthAdjust="spacing" textLength="12" x="424" y="333.6426">   </text><rect fill="none" height="43.2188" rx="5" ry="5" style="stroke:#000000;stroke-width:1.5;" width="22" x="419" y="295.5"/><rect fill="#F1F1F1" height="43.2188" rx="5" ry="5" style="stroke:#F1F1F1;stroke-width:1.5;" width="41" x="551.5" y="284.5"/><text fill="#000000" font-family="sans-serif" font-size="14" font-weight="bold" lengthAdjust="spacing" textLength="8" x="556.5" y="301.0332">s</text><text fill="#000000" font-family="sans-serif" font-size="14" lengthAdjust="spacing" textLength="12" x="575.5" y="301.0332">   </text><line style="stroke:#000000;stroke-width:1.0;" x1="570.5" x2="570.5" y1="284.5" y2="306.1094"/><line style="stroke:#000000;stroke-width:1.0;" x1="551.5" x2="592.5" y1="306.1094" y2="306.1094"/><text fill="#000000" font-family="sans-serif" font-size="14" font-weight="bold" lengthAdjust="spacing" textLength="9" x="556.5" y="322.6426">p</text><text fill="#000000" font-family="sans-serif" font-size="14" lengthAdjust="spacing" textLength="12" x="575.5" y="322.6426">   </text><line style="stroke:#000000;stroke-width:1.0;" x1="570.5" x2="570.5" y1="306.1094" y2="327.7188"/><rect fill="none" height="43.2188" rx="5" ry="5" style="stroke:#000000;stroke-width:1.5;" width="41" x="551.5" y="284.5"/><rect fill="#F1F1F1" height="21.6094" rx="5" ry="5" style="stroke:#F1F1F1;stroke-width:1.5;" width="324" x="814" y="284"/><text fill="#000000" font-family="sans-serif" font-size="14" font-weight="bold" lengthAdjust="spacing" textLength="28" x="819" y="300.5332">$ref</text><text fill="#000000" font-family="sans-serif" font-size="14" lengthAdjust="spacing" textLength="276" x="857" y="300.5332">number.json#/$defs/numberWithUncertainty</text><line style="stroke:#000000;stroke-width:1.0;" x1="852" x2="852" y1="284" y2="305.6094"/><rect fill="none" height="21.6094" rx="5" ry="5" style="stroke:#000000;stroke-width:1.5;" width="324" x="814" y="284"/><rect fill="#F1F1F1" height="21.6094" rx="5" ry="5" style="stroke:#F1F1F1;stroke-width:1.5;" width="324" x="814" y="324"/><text fill="#000000" font-family="sans-serif" font-size="14" font-weight="bold" lengthAdjust="spacing" textLength="28" x="819" y="340.5332">$ref</text><text fill="#000000" font-family="sans-serif" font-size="14" lengthAdjust="spacing" textLength="276" x="857" y="340.5332">number.json#/$defs/numberWithUncertainty</text><line style="stroke:#000000;stroke-width:1.0;" x1="852" x2="852" y1="324" y2="345.6094"/><rect fill="none" height="21.6094" rx="5" ry="5" style="stroke:#000000;stroke-width:1.5;" width="324" x="814" y="324"/><rect fill="#F1F1F1" height="64.8281" rx="5" ry="5" style="stroke:#F1F1F1;stroke-width:1.5;" width="184" x="480" y="345.5"/><text fill="#000000" font-family="sans-serif" font-size="14" font-weight="bold" lengthAdjust="spacing" textLength="27" x="485" y="362.0332">title</text><text fill="#000000" font-family="sans-serif" font-size="14" lengthAdjust="spacing" textLength="125" x="534" y="362.0332">Circular polarization</text><line style="stroke:#000000;stroke-width:1.0;" x1="529" x2="529" y1="345.5" y2="367.1094"/><line style="stroke:#000000;stroke-width:1.0;" x1="480" x2="664" y1="367.1094" y2="367.1094"/><text fill="#000000" font-family="sans-serif" font-size="14" font-weight="bold" lengthAdjust="spacing" textLength="30" x="485" y="383.6426">type</text><text fill="#000000" font-family="sans-serif" font-size="14" lengthAdjust="spacing" textLength="35" x="534" y="383.6426">string</text><line style="stroke:#000000;stroke-width:1.0;" x1="529" x2="529" y1="367.1094" y2="388.7188"/><line style="stroke:#000000;stroke-width:1.0;" x1="480" x2="664" y1="388.7188" y2="388.7188"/><text fill="#000000" font-family="sans-serif" font-size="14" font-weight="bold" lengthAdjust="spacing" textLength="39" x="485" y="405.252">enum</text><text fill="#000000" font-family="sans-serif" font-size="14" lengthAdjust="spacing" textLength="12" x="534" y="405.252">   </text><line style="stroke:#000000;stroke-width:1.0;" x1="529" x2="529" y1="388.7188" y2="410.3281"/><rect fill="none" height="64.8281" rx="5" ry="5" style="stroke:#000000;stroke-width:1.5;" width="184" x="480" y="345.5"/><rect fill="#F1F1F1" height="43.2188" rx="5" ry="5" style="stroke:#F1F1F1;stroke-width:1.5;" width="87" x="932.5" y="378.5"/><text fill="#000000" font-family="sans-serif" font-size="14" lengthAdjust="spacing" textLength="68" x="937.5" y="395.0332">leftHanded</text><line style="stroke:#000000;stroke-width:1.0;" x1="932.5" x2="1019.5" y1="400.1094" y2="400.1094"/><text fill="#000000" font-family="sans-serif" font-size="14" lengthAdjust="spacing" textLength="77" x="937.5" y="416.6426">rightHanded</text><rect fill="none" height="43.2188" rx="5" ry="5" style="stroke:#000000;stroke-width:1.5;" width="87" x="932.5" y="378.5"/><path d="M603.5,30 L616.5,30 C654.6382,30 695.0483,29.4861 734.4668,28.7039 " fill="none" style="stroke:#000000;stroke-width:1.0;stroke-dasharray:3.0,3.0;"/><path d="M734.5308,31.8517 L736.8277,28.656 L734.4029,25.5561 L742.3364,28.544 L734.5308,31.8517 " fill="#000000" style="stroke:#000000;stroke-width:1.0;"/><ellipse cx="603.5" cy="30" fill="#000000" rx="3" ry="3" style="stroke:#000000;stroke-width:1.0;"/><path d="M603.5,52 L616.5,52 C641.4676,52 667.4089,52.2202 693.4083,52.5918 " fill="none" style="stroke:#000000;stroke-width:1.0;stroke-dasharray:3.0,3.0;"/><path d="M693.3625,55.6719 L695.7183,52.6261 L693.454,49.5117 L701.1085,52.7062 L693.3625,55.6719 " fill="#000000" style="stroke:#000000;stroke-width:1.0;"/><ellipse cx="603.5" cy="52" fill="#000000" rx="3" ry="3" style="stroke:#000000;stroke-width:1.0;"/><path d="M431,91 L444,91 C462.3033,91 463.228,78.3288 480,71 C493.313,65.1827 508.132,59.8577 521.9002,55.3612 " fill="none" style="stroke:#000000;stroke-width:1.0;stroke-dasharray:3.0,3.0;"/><path d="M522.8645,58.3711 L524.1576,54.638 L520.936,52.3513 L529.4249,52.9505 L522.8645,58.3711 " fill="#000000" style="stroke:#000000;stroke-width:1.0;"/><ellipse cx="431" cy="91" fill="#000000" rx="3" ry="3" style="stroke:#000000;stroke-width:1.0;"/><path d="M431,113 L444,113 C459.2181,113 475.4579,113 491.0731,113 " fill="none" style="stroke:#000000;stroke-width:1.0;stroke-dasharray:3.0,3.0;"/><path d="M491.0731,116.0433 L493.3556,113 L491.0731,109.9567 L498.6814,113 L491.0731,116.0433 " fill="#000000" style="stroke:#000000;stroke-width:1.0;"/><ellipse cx="431" cy="113" fill="#000000" rx="3" ry="3" style="stroke:#000000;stroke-width:1.0;"/><path d="M370,138 L383,138 C394.9383,138 405.7638,130.6878 414.0547,122.6545 " fill="none" style="stroke:#000000;stroke-width:1.0;stroke-dasharray:3.0,3.0;"/><path d="M416.293,124.7814 L415.6499,120.9757 L411.8163,120.5275 L419.3721,117.0587 L416.293,124.7814 " fill="#000000" style="stroke:#000000;stroke-width:1.0;"/><ellipse cx="370" cy="138" fill="#000000" rx="3" ry="3" style="stroke:#000000;stroke-width:1.0;"/><path d="M258,192 L271,192 C296.1895,192 318.3741,170.9618 331.4913,155.1485 " fill="none" style="stroke:#000000;stroke-width:1.0;stroke-dasharray:3.0,3.0;"/><path d="M333.8752,157.0406 L332.9103,153.3606 L329.1074,153.2565 L336.2214,149.1888 L333.8752,157.0406 " fill="#000000" style="stroke:#000000;stroke-width:1.0;"/><ellipse cx="258" cy="192" fill="#000000" rx="3" ry="3" style="stroke:#000000;stroke-width:1.0;"/><path d="M617.5,174 L630.5,174 C701.8576,174 781.364,169.4687 846.0516,164.6159 " fill="none" style="stroke:#000000;stroke-width:1.0;stroke-dasharray:3.0,3.0;"/><path d="M846.2889,167.7414 L848.3958,164.4379 L845.8144,161.4904 L853.8654,164.0228 L846.2889,167.7414 " fill="#000000" style="stroke:#000000;stroke-width:1.0;"/><ellipse cx="617.5" cy="174" fill="#000000" rx="3" ry="3" style="stroke:#000000;stroke-width:1.0;"/><path d="M617.5,196 L630.5,196 C702.4479,196 782.8326,195.3395 847.8971,194.6384 " fill="none" style="stroke:#000000;stroke-width:1.0;stroke-dasharray:3.0,3.0;"/><path d="M847.9313,197.7812 L850.2542,194.6127 L847.8628,191.4955 L855.7542,194.5527 L847.9313,197.7812 " fill="#000000" style="stroke:#000000;stroke-width:1.0;"/><ellipse cx="617.5" cy="196" fill="#000000" rx="3" ry="3" style="stroke:#000000;stroke-width:1.0;"/><path d="M431,202 L444,202 C464.7917,202 487.3245,199.7514 507.5819,196.8897 " fill="none" style="stroke:#000000;stroke-width:1.0;stroke-dasharray:3.0,3.0;"/><path d="M508.0313,199.9473 L509.8751,196.5527 L507.1326,193.8321 L515.226,195.7664 L508.0313,199.9473 " fill="#000000" style="stroke:#000000;stroke-width:1.0;"/><ellipse cx="431" cy="202" fill="#000000" rx="3" ry="3" style="stroke:#000000;stroke-width:1.0;"/><path d="M1011.5,255 L1024.5,255 C1115.5707,255 1222.2705,255 1280.2265,255 " fill="none" style="stroke:#000000;stroke-width:1.0;stroke-dasharray:3.0,3.0;"/><path d="M1280.2265,258.1391 L1282.5808,255 L1280.2265,251.8609 L1288.0742,255 L1280.2265,258.1391 " fill="#000000" style="stroke:#000000;stroke-width:1.0;"/><ellipse cx="1011.5" cy="255" fill="#000000" rx="3" ry="3" style="stroke:#000000;stroke-width:1.0;"/><path d="M603.5,241 L616.5,241 C724.6781,241 851.1859,242.3789 921.4456,243.2671 " fill="none" style="stroke:#000000;stroke-width:1.0;stroke-dasharray:3.0,3.0;"/><path d="M921.4054,246.4144 L923.8061,243.2972 L921.4857,240.1197 L929.314,243.3674 L921.4054,246.4144 " fill="#000000" style="stroke:#000000;stroke-width:1.0;"/><ellipse cx="603.5" cy="241" fill="#000000" rx="3" ry="3" style="stroke:#000000;stroke-width:1.0;"/><path d="M431,224 L444,224 C469.8934,224 498.4874,227.4875 522.0235,231.3034 " fill="none" style="stroke:#000000;stroke-width:1.0;stroke-dasharray:3.0,3.0;"/><path d="M521.5249,234.285 L524.2597,231.6773 L522.5221,228.3218 L529.4775,232.5498 L521.5249,234.285 " fill="#000000" style="stroke:#000000;stroke-width:1.0;"/><ellipse cx="431" cy="224" fill="#000000" rx="3" ry="3" style="stroke:#000000;stroke-width:1.0;"/><path d="M370,213 L383,213 C392.374,213 402.7885,213 411.4714,213 " fill="none" style="stroke:#000000;stroke-width:1.0;stroke-dasharray:3.0,3.0;"/><path d="M411.4714,216.0815 L413.7825,213 L411.4714,209.9185 L419.1751,213 L411.4714,216.0815 " fill="#000000" style="stroke:#000000;stroke-width:1.0;"/><ellipse cx="370" cy="213" fill="#000000" rx="3" ry="3" style="stroke:#000000;stroke-width:1.0;"/><path d="M258,213 L271,213 C280.2082,213 290.0697,213 299.472,213 " fill="none" style="stroke:#000000;stroke-width:1.0;stroke-dasharray:3.0,3.0;"/><path d="M299.472,216.1062 L301.8016,213 L299.472,209.8938 L307.2375,213 L299.472,216.1062 " fill="#000000" style="stroke:#000000;stroke-width:1.0;"/><ellipse cx="258" cy="213" fill="#000000" rx="3" ry="3" style="stroke:#000000;stroke-width:1.0;"/><path d="M581.5,295 L594.5,295 C663.9234,295 740.4624,295 806.6135,295 " fill="none" style="stroke:#000000;stroke-width:1.0;stroke-dasharray:3.0,3.0;"/><path d="M806.6135,298.0404 L808.8938,295 L806.6135,291.9596 L814.2145,295 L806.6135,298.0404 " fill="#000000" style="stroke:#000000;stroke-width:1.0;"/><ellipse cx="581.5" cy="295" fill="#000000" rx="3" ry="3" style="stroke:#000000;stroke-width:1.0;"/><path d="M581.5,317 L594.5,317 C664.0008,317 740.5538,320.0255 806.6943,323.5957 " fill="none" style="stroke:#000000;stroke-width:1.0;stroke-dasharray:3.0,3.0;"/><path d="M806.5283,326.6356 L808.9742,323.7203 L806.8604,320.5559 L814.294,324.0108 L806.5283,326.6356 " fill="#000000" style="stroke:#000000;stroke-width:1.0;"/><ellipse cx="581.5" cy="317" fill="#000000" rx="3" ry="3" style="stroke:#000000;stroke-width:1.0;"/><path d="M431,306 L444,306 C478.5036,306 518.2594,306 544.0794,306 " fill="none" style="stroke:#000000;stroke-width:1.0;stroke-dasharray:3.0,3.0;"/><path d="M544.0794,309.0178 L546.3427,306 L544.0794,302.9822 L551.6238,306 L544.0794,309.0178 " fill="#000000" style="stroke:#000000;stroke-width:1.0;"/><ellipse cx="431" cy="306" fill="#000000" rx="3" ry="3" style="stroke:#000000;stroke-width:1.0;"/><path d="M652,400 L665,400 C756.7591,400 863.7713,400 925.1839,400 " fill="none" style="stroke:#000000;stroke-width:1.0;stroke-dasharray:3.0,3.0;"/><path d="M925.1839,403.0499 L927.4713,400 L925.1839,396.9501 L932.8087,400 L925.1839,403.0499 " fill="#000000" style="stroke:#000000;stroke-width:1.0;"/><ellipse cx="652" cy="400" fill="#000000" rx="3" ry="3" style="stroke:#000000;stroke-width:1.0;"/><path d="M431,328 L444,328 C454.8945,328 474.3275,334.4072 494.7898,342.6343 " fill="none" style="stroke:#000000;stroke-width:1.0;stroke-dasharray:3.0,3.0;"/><path d="M493.6485,345.4215 L496.8802,343.4903 L495.9311,339.8471 L501.7578,345.4876 L493.6485,345.4215 " fill="#000000" style="stroke:#000000;stroke-width:1.0;"/><ellipse cx="431" cy="328" fill="#000000" rx="3" ry="3" style="stroke:#000000;stroke-width:1.0;"/><path d="M370,283 L383,283 C394.7006,283 405.5027,289.9059 413.8396,297.493 " fill="none" style="stroke:#000000;stroke-width:1.0;stroke-dasharray:3.0,3.0;"/><path d="M411.7256,299.6364 L415.4471,299.0785 L415.9535,295.3496 L419.1981,302.7779 L411.7256,299.6364 " fill="#000000" style="stroke:#000000;stroke-width:1.0;"/><ellipse cx="370" cy="283" fill="#000000" rx="3" ry="3" style="stroke:#000000;stroke-width:1.0;"/><path d="M258,236 L271,236 C293.949,236 315.4213,252.6239 329.0563,266.0983 " fill="none" style="stroke:#000000;stroke-width:1.0;stroke-dasharray:3.0,3.0;"/><path d="M326.8466,268.2364 L330.6599,267.7556 L331.266,263.9602 L334.4015,271.6226 L326.8466,268.2364 " fill="#000000" style="stroke:#000000;stroke-width:1.0;"/><ellipse cx="258" cy="236" fill="#000000" rx="3" ry="3" style="stroke:#000000;stroke-width:1.0;"/><path d="M99,214 L112,214 C121.2537,214 131.0065,214 140.6123,214 " fill="none" style="stroke:#000000;stroke-width:1.0;stroke-dasharray:3.0,3.0;"/><path d="M140.6123,217.0639 L142.9102,214 L140.6123,210.9361 L148.2721,214 L140.6123,217.0639 " fill="#000000" style="stroke:#000000;stroke-width:1.0;"/><ellipse cx="99" cy="214" fill="#000000" rx="3" ry="3" style="stroke:#000000;stroke-width:1.0;"/><!--MD5=[6d35f1c0fee2cb1d6019b7d079b00f0c]
@startjson incidence02
{
  "incidence": {
    "direction": {
      "oneOf": [
      {
        "polar": {
          "$ref": "number.json#/$defs/degreeBetweenZeroAndNinetyWithUncertainty"
        }
        ,
        "azimuth": {
          "$ref": "number.json#/$defs/degreeBetweenZeroAndThreeHundredSixtyWithUncertainty"

        }
      }
      ,
      {
        "title": "Hemispherical",
        "type": "string",
        "const": "hemispherical"
      }
      ]
    }
    ,
    "wavelengths": {
      "oneOf": [
      {
        "wavelength": {
          "$ref": "number.json#/$defs/nanometer"
        }
        ,
        "uncertainty": { "$ref": "#/$defs/wavelengthUncertainty" }
      }
      ,
      {
        "integral": {
          "type": "string",
          "enum": ["infrared", "solar", "ultraviolet", "visible", "other"]
        }
      }
      ]
    }
    ,
    "polarization": {
      "oneOf": [
      {
        "s": {
          "$ref": "number.json#/$defs/numberWithUncertainty"
        }
        ,
        "p": {
          "$ref": "number.json#/$defs/numberWithUncertainty"
        }
      }
      ,
      {
        "title": "Circular polarization",
        "type": "string",
        "enum": ["leftHanded", "rightHanded"]
      }
      ]
    }
  }
}
@endjson

PlantUML version 1.2022.7(Mon Aug 22 19:01:30 CEST 2022)
(GPL source distribution)
Java Runtime: OpenJDK Runtime Environment
JVM: OpenJDK 64-Bit Server VM
Default Encoding: UTF-8
Language: en
Country: US
--></g></svg>