<?xml version="1.0" encoding="UTF-8" standalone="no"?><svg xmlns="http://www.w3.org/2000/svg" xmlns:xlink="http://www.w3.org/1999/xlink" contentStyleType="text/css" height="188px" preserveAspectRatio="none" style="width:536px;height:188px;background:#FFFFFF;" version="1.1" viewBox="0 0 536 188" width="536px" zoomAndPan="magnify"><defs/><g><rect fill="#F1F1F1" height="64.8281" rx="5" ry="5" style="stroke:#F1F1F1;stroke-width:1.5;" width="112" x="10" y="51"/><text fill="#000000" font-family="sans-serif" font-size="14" font-weight="bold" lengthAdjust="spacing" textLength="69" x="15" y="67.5332">incidence</text><text fill="#000000" font-family="sans-serif" font-size="14" lengthAdjust="spacing" textLength="12" x="105" y="67.5332">   </text><line style="stroke:#000000;stroke-width:1.0;" x1="100" x2="100" y1="51" y2="72.6094"/><line style="stroke:#000000;stroke-width:1.0;" x1="10" x2="122" y1="72.6094" y2="72.6094"/><text fill="#000000" font-family="sans-serif" font-size="14" font-weight="bold" lengthAdjust="spacing" textLength="80" x="15" y="89.1426">emergence</text><text fill="#000000" font-family="sans-serif" font-size="14" lengthAdjust="spacing" textLength="12" x="105" y="89.1426">   </text><line style="stroke:#000000;stroke-width:1.0;" x1="100" x2="100" y1="72.6094" y2="94.2188"/><line style="stroke:#000000;stroke-width:1.0;" x1="10" x2="122" y1="94.2188" y2="94.2188"/><text fill="#000000" font-family="sans-serif" font-size="14" font-weight="bold" lengthAdjust="spacing" textLength="49" x="15" y="110.752">results</text><text fill="#000000" font-family="sans-serif" font-size="14" lengthAdjust="spacing" textLength="12" x="105" y="110.752">   </text><line style="stroke:#000000;stroke-width:1.0;" x1="100" x2="100" y1="94.2188" y2="115.8281"/><rect fill="none" height="64.8281" rx="5" ry="5" style="stroke:#000000;stroke-width:1.5;" width="112" x="10" y="51"/><rect fill="#F1F1F1" height="43.2188" rx="5" ry="5" style="stroke:#F1F1F1;stroke-width:1.5;" width="197" x="163" y="10"/><text fill="#000000" font-family="sans-serif" font-size="14" font-weight="bold" lengthAdjust="spacing" textLength="63" x="168" y="26.5332">direction</text><text fill="#000000" font-family="sans-serif" font-size="14" lengthAdjust="spacing" textLength="87" x="268" y="26.5332">hemispherical</text><line style="stroke:#000000;stroke-width:1.0;" x1="263" x2="263" y1="10" y2="31.6094"/><line style="stroke:#000000;stroke-width:1.0;" x1="163" x2="360" y1="31.6094" y2="31.6094"/><text fill="#000000" font-family="sans-serif" font-size="14" font-weight="bold" lengthAdjust="spacing" textLength="90" x="168" y="48.1426">wavelengths</text><text fill="#000000" font-family="sans-serif" font-size="14" lengthAdjust="spacing" textLength="12" x="268" y="48.1426">   </text><line style="stroke:#000000;stroke-width:1.0;" x1="263" x2="263" y1="31.6094" y2="53.2188"/><rect fill="none" height="43.2188" rx="5" ry="5" style="stroke:#000000;stroke-width:1.5;" width="197" x="163" y="10"/><rect fill="#F1F1F1" height="21.6094" rx="5" ry="5" style="stroke:#F1F1F1;stroke-width:1.5;" width="123" x="401" y="31.5"/><text fill="#000000" font-family="sans-serif" font-size="14" font-weight="bold" lengthAdjust="spacing" textLength="54" x="406" y="48.0332">integral</text><text fill="#000000" font-family="sans-serif" font-size="14" lengthAdjust="spacing" textLength="49" x="470" y="48.0332">infrared</text><line style="stroke:#000000;stroke-width:1.0;" x1="465" x2="465" y1="31.5" y2="53.1094"/><rect fill="none" height="21.6094" rx="5" ry="5" style="stroke:#000000;stroke-width:1.5;" width="123" x="401" y="31.5"/><rect fill="#F1F1F1" height="21.6094" rx="5" ry="5" style="stroke:#F1F1F1;stroke-width:1.5;" width="170" x="176.5" y="71.5"/><text fill="#000000" font-family="sans-serif" font-size="14" font-weight="bold" lengthAdjust="spacing" textLength="63" x="181.5" y="88.0332">direction</text><text fill="#000000" font-family="sans-serif" font-size="14" lengthAdjust="spacing" textLength="87" x="254.5" y="88.0332">hemispherical</text><line style="stroke:#000000;stroke-width:1.0;" x1="249.5" x2="249.5" y1="71.5" y2="93.1094"/><rect fill="none" height="21.6094" rx="5" ry="5" style="stroke:#000000;stroke-width:1.5;" width="170" x="176.5" y="71.5"/><rect fill="#F1F1F1" height="64.8281" rx="5" ry="5" style="stroke:#F1F1F1;stroke-width:1.5;" width="205" x="159" y="112"/><text fill="#000000" font-family="sans-serif" font-size="14" font-weight="bold" lengthAdjust="spacing" textLength="96" x="164" y="128.5332">transmittance</text><text fill="#000000" font-family="sans-serif" font-size="14" lengthAdjust="spacing" textLength="8" x="331" y="128.5332">0</text><line style="stroke:#000000;stroke-width:1.0;" x1="326" x2="326" y1="112" y2="133.6094"/><line style="stroke:#000000;stroke-width:1.0;" x1="159" x2="364" y1="133.6094" y2="133.6094"/><text fill="#000000" font-family="sans-serif" font-size="14" font-weight="bold" lengthAdjust="spacing" textLength="80" x="164" y="150.1426">reflectance</text><text fill="#000000" font-family="sans-serif" font-size="14" lengthAdjust="spacing" textLength="28" x="331" y="150.1426">0.16</text><line style="stroke:#000000;stroke-width:1.0;" x1="326" x2="326" y1="133.6094" y2="155.2188"/><line style="stroke:#000000;stroke-width:1.0;" x1="159" x2="364" y1="155.2188" y2="155.2188"/><text fill="#000000" font-family="sans-serif" font-size="14" font-weight="bold" lengthAdjust="spacing" textLength="157" x="164" y="171.752">absorptanceEmittance</text><text fill="#000000" font-family="sans-serif" font-size="14" lengthAdjust="spacing" textLength="28" x="331" y="171.752">0.84</text><line style="stroke:#000000;stroke-width:1.0;" x1="326" x2="326" y1="155.2188" y2="176.8281"/><rect fill="none" height="64.8281" rx="5" ry="5" style="stroke:#000000;stroke-width:1.5;" width="205" x="159" y="112"/><path d="M349,42.5 L362,42.5 C372.2681,42.5 383.1294,42.5 393.7615,42.5 " fill="none" style="stroke:#000000;stroke-width:1.0;stroke-dasharray:3.0,3.0;"/><path d="M393.7615,45.5759 L396.0684,42.5 L393.7615,39.4241 L401.4512,42.5 L393.7615,45.5759 " fill="#000000" style="stroke:#000000;stroke-width:1.0;"/><ellipse cx="349" cy="42.5" fill="#000000" rx="3" ry="3" style="stroke:#000000;stroke-width:1.0;"/><path d="M110,61.5 L123,61.5 C142.372,61.5 162.9318,58.6422 182.1007,54.6908 " fill="none" style="stroke:#000000;stroke-width:1.0;stroke-dasharray:3.0,3.0;"/><path d="M182.7516,57.7124 L184.3669,54.2026 L181.4498,51.6691 L189.6548,53.0635 L182.7516,57.7124 " fill="#000000" style="stroke:#000000;stroke-width:1.0;"/><ellipse cx="110" cy="61.5" fill="#000000" rx="3" ry="3" style="stroke:#000000;stroke-width:1.0;"/><path d="M110,82.5 L123,82.5 C137.9272,82.5 153.7626,82.5 169.1799,82.5 " fill="none" style="stroke:#000000;stroke-width:1.0;stroke-dasharray:3.0,3.0;"/><path d="M169.1799,85.5117 L171.4387,82.5 L169.1799,79.4883 L176.7091,82.5 L169.1799,85.5117 " fill="#000000" style="stroke:#000000;stroke-width:1.0;"/><ellipse cx="110" cy="82.5" fill="#000000" rx="3" ry="3" style="stroke:#000000;stroke-width:1.0;"/><path d="M110,105.5 L123,105.5 C136.9927,105.5 151.4929,107.3798 165.6034,110.3139 " fill="none" style="stroke:#000000;stroke-width:1.0;stroke-dasharray:3.0,3.0;"/><path d="M164.9529,113.2494 L167.8049,110.8018 L166.2538,107.3785 L172.9419,111.9401 L164.9529,113.2494 " fill="#000000" style="stroke:#000000;stroke-width:1.0;"/><ellipse cx="110" cy="105.5" fill="#000000" rx="3" ry="3" style="stroke:#000000;stroke-width:1.0;"/><!--MD5=[69f6bb3253d03e57ebd26b40fd610d67]
@startjson infraredDataPoint
{
  "incidence": {
    "direction": "hemispherical",
    "wavelengths": {
      "integral": "infrared"
    }
  }
  ,
  "emergence": {
    "direction": "hemispherical"
  }
  ,
  "results": {
    "transmittance": 0,
    "reflectance": 0.16,
    "absorptanceEmittance": 0.84
  }
}
@endjson

PlantUML version 1.2022.7(Mon Aug 22 19:01:30 CEST 2022)
(GPL source distribution)
Java Runtime: OpenJDK Runtime Environment
JVM: OpenJDK 64-Bit Server VM
Default Encoding: UTF-8
Language: en
Country: US
--></g></svg>