<?xml version="1.0" encoding="UTF-8" standalone="no"?><svg xmlns="http://www.w3.org/2000/svg" xmlns:xlink="http://www.w3.org/1999/xlink" contentStyleType="text/css" height="154px" preserveAspectRatio="none" style="width:695px;height:154px;background:#FFFFFF;" version="1.1" viewBox="0 0 695 154" width="695px" zoomAndPan="magnify"><defs/><g><rect fill="#F1F1F1" height="21.6094" rx="5" ry="5" style="stroke:#F1F1F1;stroke-width:1.5;" width="106" x="10" y="82"/><text fill="#000000" font-family="sans-serif" font-size="14" font-weight="bold" lengthAdjust="spacing" textLength="74" x="15" y="98.5332">dataPoints</text><text fill="#000000" font-family="sans-serif" font-size="14" lengthAdjust="spacing" textLength="12" x="99" y="98.5332">   </text><line style="stroke:#000000;stroke-width:1.0;" x1="94" x2="94" y1="82" y2="103.6094"/><rect fill="none" height="21.6094" rx="5" ry="5" style="stroke:#000000;stroke-width:1.5;" width="106" x="10" y="82"/><rect fill="#F1F1F1" height="21.6094" rx="5" ry="5" style="stroke:#F1F1F1;stroke-width:1.5;" width="22" x="153" y="82"/><text fill="#000000" font-family="sans-serif" font-size="14" lengthAdjust="spacing" textLength="12" x="158" y="98.5332">   </text><rect fill="none" height="21.6094" rx="5" ry="5" style="stroke:#000000;stroke-width:1.5;" width="22" x="153" y="82"/><rect fill="#F1F1F1" height="64.8281" rx="5" ry="5" style="stroke:#F1F1F1;stroke-width:1.5;" width="112" x="214" y="60.5"/><text fill="#000000" font-family="sans-serif" font-size="14" font-weight="bold" lengthAdjust="spacing" textLength="69" x="219" y="77.0332">incidence</text><text fill="#000000" font-family="sans-serif" font-size="14" lengthAdjust="spacing" textLength="12" x="309" y="77.0332">   </text><line style="stroke:#000000;stroke-width:1.0;" x1="304" x2="304" y1="60.5" y2="82.1094"/><line style="stroke:#000000;stroke-width:1.0;" x1="214" x2="326" y1="82.1094" y2="82.1094"/><text fill="#000000" font-family="sans-serif" font-size="14" font-weight="bold" lengthAdjust="spacing" textLength="80" x="219" y="98.6426">emergence</text><text fill="#000000" font-family="sans-serif" font-size="14" lengthAdjust="spacing" textLength="12" x="309" y="98.6426">   </text><line style="stroke:#000000;stroke-width:1.0;" x1="304" x2="304" y1="82.1094" y2="103.7188"/><line style="stroke:#000000;stroke-width:1.0;" x1="214" x2="326" y1="103.7188" y2="103.7188"/><text fill="#000000" font-family="sans-serif" font-size="14" font-weight="bold" lengthAdjust="spacing" textLength="49" x="219" y="120.252">results</text><text fill="#000000" font-family="sans-serif" font-size="14" lengthAdjust="spacing" textLength="12" x="309" y="120.252">   </text><line style="stroke:#000000;stroke-width:1.0;" x1="304" x2="304" y1="103.7188" y2="125.3281"/><rect fill="none" height="64.8281" rx="5" ry="5" style="stroke:#000000;stroke-width:1.5;" width="112" x="214" y="60.5"/><rect fill="#F1F1F1" height="43.2188" rx="5" ry="5" style="stroke:#F1F1F1;stroke-width:1.5;" width="122" x="387" y="19.5"/><text fill="#000000" font-family="sans-serif" font-size="14" font-weight="bold" lengthAdjust="spacing" textLength="63" x="392" y="36.0332">direction</text><text fill="#000000" font-family="sans-serif" font-size="14" lengthAdjust="spacing" textLength="12" x="492" y="36.0332">   </text><line style="stroke:#000000;stroke-width:1.0;" x1="487" x2="487" y1="19.5" y2="41.1094"/><line style="stroke:#000000;stroke-width:1.0;" x1="387" x2="509" y1="41.1094" y2="41.1094"/><text fill="#000000" font-family="sans-serif" font-size="14" font-weight="bold" lengthAdjust="spacing" textLength="90" x="392" y="57.6426">wavelengths</text><text fill="#000000" font-family="sans-serif" font-size="14" lengthAdjust="spacing" textLength="12" x="492" y="57.6426">   </text><line style="stroke:#000000;stroke-width:1.0;" x1="487" x2="487" y1="41.1094" y2="62.7188"/><rect fill="none" height="43.2188" rx="5" ry="5" style="stroke:#000000;stroke-width:1.5;" width="122" x="387" y="19.5"/><rect fill="#F1F1F1" height="21.6094" rx="5" ry="5" style="stroke:#F1F1F1;stroke-width:1.5;" width="64" x="594.5" y="10"/><text fill="#000000" font-family="sans-serif" font-size="14" font-weight="bold" lengthAdjust="spacing" textLength="36" x="599.5" y="26.5332">polar</text><text fill="#000000" font-family="sans-serif" font-size="14" lengthAdjust="spacing" textLength="8" x="645.5" y="26.5332">0</text><line style="stroke:#000000;stroke-width:1.0;" x1="640.5" x2="640.5" y1="10" y2="31.6094"/><rect fill="none" height="21.6094" rx="5" ry="5" style="stroke:#000000;stroke-width:1.5;" width="64" x="594.5" y="10"/><rect fill="#F1F1F1" height="21.6094" rx="5" ry="5" style="stroke:#F1F1F1;stroke-width:1.5;" width="113" x="570" y="50"/><text fill="#000000" font-family="sans-serif" font-size="14" font-weight="bold" lengthAdjust="spacing" textLength="54" x="575" y="66.5332">integral</text><text fill="#000000" font-family="sans-serif" font-size="14" lengthAdjust="spacing" textLength="39" x="639" y="66.5332">visible</text><line style="stroke:#000000;stroke-width:1.0;" x1="634" x2="634" y1="50" y2="71.6094"/><rect fill="none" height="21.6094" rx="5" ry="5" style="stroke:#000000;stroke-width:1.5;" width="113" x="570" y="50"/><rect fill="#F1F1F1" height="21.6094" rx="5" ry="5" style="stroke:#F1F1F1;stroke-width:1.5;" width="170" x="363" y="81"/><text fill="#000000" font-family="sans-serif" font-size="14" font-weight="bold" lengthAdjust="spacing" textLength="63" x="368" y="97.5332">direction</text><text fill="#000000" font-family="sans-serif" font-size="14" lengthAdjust="spacing" textLength="87" x="441" y="97.5332">hemispherical</text><line style="stroke:#000000;stroke-width:1.0;" x1="436" x2="436" y1="81" y2="102.6094"/><rect fill="none" height="21.6094" rx="5" ry="5" style="stroke:#000000;stroke-width:1.5;" width="170" x="363" y="81"/><rect fill="#F1F1F1" height="21.6094" rx="5" ry="5" style="stroke:#F1F1F1;stroke-width:1.5;" width="144" x="376" y="121"/><text fill="#000000" font-family="sans-serif" font-size="14" font-weight="bold" lengthAdjust="spacing" textLength="96" x="381" y="137.5332">transmittance</text><text fill="#000000" font-family="sans-serif" font-size="14" lengthAdjust="spacing" textLength="28" x="487" y="137.5332">0.63</text><line style="stroke:#000000;stroke-width:1.0;" x1="482" x2="482" y1="121" y2="142.6094"/><rect fill="none" height="21.6094" rx="5" ry="5" style="stroke:#000000;stroke-width:1.5;" width="144" x="376" y="121"/><path d="M497.5,30 L510.5,30 C536.0481,30 564.6791,27.7842 587.0436,25.5515 " fill="none" style="stroke:#000000;stroke-width:1.0;stroke-dasharray:3.0,3.0;"/><path d="M587.3584,28.6051 L589.3338,25.3154 L586.7289,22.4979 L594.6776,24.7647 L587.3584,28.6051 " fill="#000000" style="stroke:#000000;stroke-width:1.0;"/><ellipse cx="497.5" cy="30" fill="#000000" rx="3" ry="3" style="stroke:#000000;stroke-width:1.0;"/><path d="M497.5,52 L510.5,52 C527.4184,52 545.6887,52.9717 562.596,54.2765 " fill="none" style="stroke:#000000;stroke-width:1.0;stroke-dasharray:3.0,3.0;"/><path d="M562.3477,57.3415 L564.8947,54.4627 L562.8442,51.2115 L570.2585,54.8972 L562.3477,57.3415 " fill="#000000" style="stroke:#000000;stroke-width:1.0;"/><ellipse cx="497.5" cy="52" fill="#000000" rx="3" ry="3" style="stroke:#000000;stroke-width:1.0;"/><path d="M314,71 L327,71 C344.2933,71 362.5801,68.0546 379.54,64.0095 " fill="none" style="stroke:#000000;stroke-width:1.0;stroke-dasharray:3.0,3.0;"/><path d="M380.3117,67.0858 L381.8472,63.4307 L378.7683,60.9333 L387.2306,62.0802 L380.3117,67.0858 " fill="#000000" style="stroke:#000000;stroke-width:1.0;"/><ellipse cx="314" cy="71" fill="#000000" rx="3" ry="3" style="stroke:#000000;stroke-width:1.0;"/><path d="M314,92 L327,92 C336.2441,92 345.8871,92 355.5158,92 " fill="none" style="stroke:#000000;stroke-width:1.0;stroke-dasharray:3.0,3.0;"/><path d="M355.5158,95.0845 L357.8292,92 L355.5158,88.9155 L363.227,92 L355.5158,95.0845 " fill="#000000" style="stroke:#000000;stroke-width:1.0;"/><ellipse cx="314" cy="92" fill="#000000" rx="3" ry="3" style="stroke:#000000;stroke-width:1.0;"/><path d="M314,115 L327,115 C345.9485,115 366.4103,117.0866 384.9991,119.7977 " fill="none" style="stroke:#000000;stroke-width:1.0;stroke-dasharray:3.0,3.0;"/><path d="M384.5208,122.9345 L387.3518,120.1564 L385.4775,116.6608 L392.8413,120.9936 L384.5208,122.9345 " fill="#000000" style="stroke:#000000;stroke-width:1.0;"/><ellipse cx="314" cy="115" fill="#000000" rx="3" ry="3" style="stroke:#000000;stroke-width:1.0;"/><path d="M164.8386,93 L177.8386,93 C185.3579,93 195.6014,93 206.5216,93 " fill="none" style="stroke:#000000;stroke-width:1.0;stroke-dasharray:3.0,3.0;"/><path d="M206.5216,96.0573 L208.8146,93 L206.5216,89.9427 L214.1648,93 L206.5216,96.0573 " fill="#000000" style="stroke:#000000;stroke-width:1.0;"/><ellipse cx="164.8386" cy="93" fill="#000000" rx="3" ry="3" style="stroke:#000000;stroke-width:1.0;"/><path d="M104,93 L117,93 C126.374,93 136.7885,93 145.4714,93 " fill="none" style="stroke:#000000;stroke-width:1.0;stroke-dasharray:3.0,3.0;"/><path d="M145.4714,96.0815 L147.7825,93 L145.4714,89.9185 L153.1751,93 L145.4714,96.0815 " fill="#000000" style="stroke:#000000;stroke-width:1.0;"/><ellipse cx="104" cy="93" fill="#000000" rx="3" ry="3" style="stroke:#000000;stroke-width:1.0;"/><!--MD5=[7c272b461e84a1b8f47a57e5155fbb69]
@startjson RETROLuxO
{
  "dataPoints": [
    {
      "incidence": {
        "direction": {
          "polar": 0
        },
        "wavelengths": {
          "integral": "visible"
        }
      },
      "emergence": {
        "direction": "hemispherical"
      },
      "results": {
        "transmittance": 0.63
      }
    }
  ]
}
@endjson

PlantUML version 1.2022.7(Mon Aug 22 19:01:30 CEST 2022)
(GPL source distribution)
Java Runtime: OpenJDK Runtime Environment
JVM: OpenJDK 64-Bit Server VM
Default Encoding: UTF-8
Language: en
Country: US
--></g></svg>